  0
SECTION
  2
HEADER
  9
$ACADVER
  1
AC1009
  9
$EXTMIN
 10
0.0
 20
0.0
 30
0.0
  9
$EXTMAX
 10
1000.0
 20
1000.0
 30
0.0
  9
$FILLMODE
 70
 0
  9
$SPLFRAME
 70
 1
  0
ENDSEC
  0
SECTION
  2
TABLES
  0
TABLE
  2
LAYER
 70
1
  0
LAYER
  2
0
 70
     0
 62
     7
  6
CONTINUOUS
  0
ENDTAB
  0
ENDSEC
  0
SECTION
  2
ENTITIES
  0
LINE
  8
0
 62
     5
 10
336.846
 20
109.619
 30
0.0
 11
336.925
 21
109.616
 31
0.0
  0
LINE
  8
0
 62
     5
 10
336.925
 20
109.616
 30
0.0
 11
337.002
 21
109.606
 31
0.0
  0
LINE
  8
0
 62
     5
 10
337.002
 20
109.606
 30
0.0
 11
337.079
 21
109.591
 31
0.0
  0
LINE
  8
0
 62
     5
 10
337.079
 20
109.591
 30
0.0
 11
337.155
 21
109.571
 31
0.0
  0
LINE
  8
0
 62
     5
 10
337.155
 20
109.571
 30
0.0
 11
337.228
 21
109.543
 31
0.0
  0
LINE
  8
0
 62
     5
 10
337.228
 20
109.543
 30
0.0
 11
337.3
 21
109.51
 31
0.0
  0
LINE
  8
0
 62
     5
 10
337.3
 20
109.51
 30
0.0
 11
337.368
 21
109.472
 31
0.0
  0
LINE
  8
0
 62
     5
 10
337.368
 20
109.472
 30
0.0
 11
337.433
 21
109.428
 31
0.0
  0
LINE
  8
0
 62
     5
 10
337.433
 20
109.428
 30
0.0
 11
337.495
 21
109.379
 31
0.0
  0
LINE
  8
0
 62
     5
 10
337.495
 20
109.379
 30
0.0
 11
337.553
 21
109.327
 31
0.0
  0
LINE
  8
0
 62
     5
 10
337.553
 20
109.327
 30
0.0
 11
337.607
 21
109.269
 31
0.0
  0
LINE
  8
0
 62
     5
 10
337.607
 20
109.269
 30
0.0
 11
337.655
 21
109.207
 31
0.0
  0
LINE
  8
0
 62
     5
 10
337.655
 20
109.207
 30
0.0
 11
337.698
 21
109.142
 31
0.0
  0
LINE
  8
0
 62
     5
 10
337.698
 20
109.142
 30
0.0
 11
337.738
 21
109.072
 31
0.0
  0
LINE
  8
0
 62
     5
 10
337.738
 20
109.072
 30
0.0
 11
337.77
 21
109.001
 31
0.0
  0
LINE
  8
0
 62
     5
 10
337.77
 20
109.001
 30
0.0
 11
337.797
 21
108.928
 31
0.0
  0
LINE
  8
0
 62
     5
 10
337.797
 20
108.928
 30
0.0
 11
337.819
 21
108.853
 31
0.0
  0
LINE
  8
0
 62
     5
 10
337.819
 20
108.853
 30
0.0
 11
337.833
 21
108.775
 31
0.0
  0
LINE
  8
0
 62
     5
 10
337.833
 20
108.775
 30
0.0
 11
337.843
 21
108.697
 31
0.0
  0
LINE
  8
0
 62
     5
 10
337.843
 20
108.697
 30
0.0
 11
337.847
 21
108.619
 31
0.0
  0
LINE
  8
0
 62
     5
 10
337.847
 20
108.619
 30
0.0
 11
337.847
 21
1.36839
 31
0.0
  0
LINE
  8
0
 62
     5
 10
337.847
 20
1.36839
 30
0.0
 11
337.843
 21
1.28984
 31
0.0
  0
LINE
  8
0
 62
     5
 10
337.843
 20
1.28984
 30
0.0
 11
337.833
 21
1.21129
 31
0.0
  0
LINE
  8
0
 62
     5
 10
337.833
 20
1.21129
 30
0.0
 11
337.819
 21
1.13412
 31
0.0
  0
LINE
  8
0
 62
     5
 10
337.819
 20
1.13412
 30
0.0
 11
337.797
 21
1.05833
 31
0.0
  0
LINE
  8
0
 62
     5
 10
337.797
 20
1.05833
 30
0.0
 11
337.77
 21
0.985298
 31
0.0
  0
LINE
  8
0
 62
     5
 10
337.77
 20
0.985298
 30
0.0
 11
337.738
 21
0.915017
 31
0.0
  0
LINE
  8
0
 62
     5
 10
337.738
 20
0.915017
 30
0.0
 11
337.698
 21
0.844737
 31
0.0
  0
LINE
  8
0
 62
     5
 10
337.698
 20
0.844737
 30
0.0
 11
337.655
 21
0.77997
 31
0.0
  0
LINE
  8
0
 62
     5
 10
337.655
 20
0.77997
 30
0.0
 11
337.607
 21
0.717959
 31
0.0
  0
LINE
  8
0
 62
     5
 10
337.607
 20
0.717959
 30
0.0
 11
337.553
 21
0.660079
 31
0.0
  0
LINE
  8
0
 62
     5
 10
337.553
 20
0.660079
 30
0.0
 11
337.495
 21
0.607716
 31
0.0
  0
LINE
  8
0
 62
     5
 10
337.495
 20
0.607716
 30
0.0
 11
337.433
 21
0.558105
 31
0.0
  0
LINE
  8
0
 62
     5
 10
337.433
 20
0.558105
 30
0.0
 11
337.368
 21
0.515387
 31
0.0
  0
LINE
  8
0
 62
     5
 10
337.368
 20
0.515387
 30
0.0
 11
337.3
 21
0.4768
 31
0.0
  0
LINE
  8
0
 62
     5
 10
337.3
 20
0.4768
 30
0.0
 11
337.228
 21
0.443727
 31
0.0
  0
LINE
  8
0
 62
     5
 10
337.228
 20
0.443727
 30
0.0
 11
337.155
 21
0.416168
 31
0.0
  0
LINE
  8
0
 62
     5
 10
337.155
 20
0.416168
 30
0.0
 11
337.079
 21
0.395496
 31
0.0
  0
LINE
  8
0
 62
     5
 10
337.079
 20
0.395496
 30
0.0
 11
337.002
 21
0.38034
 31
0.0
  0
LINE
  8
0
 62
     5
 10
337.002
 20
0.38034
 30
0.0
 11
336.925
 21
0.372071
 31
0.0
  0
LINE
  8
0
 62
     5
 10
336.925
 20
0.372071
 30
0.0
 11
336.846
 21
0.367937
 31
0.0
  0
LINE
  8
0
 62
     5
 10
336.846
 20
0.367937
 30
0.0
 11
1.09554
 21
0.367937
 31
0.0
  0
LINE
  8
0
 62
     5
 10
1.09554
 20
0.367937
 30
0.0
 11
1.01699
 21
0.372071
 31
0.0
  0
LINE
  8
0
 62
     5
 10
1.01699
 20
0.372071
 30
0.0
 11
0.938445
 21
0.38034
 31
0.0
  0
LINE
  8
0
 62
     5
 10
0.938445
 20
0.38034
 30
0.0
 11
0.861275
 21
0.395496
 31
0.0
  0
LINE
  8
0
 62
     5
 10
0.861275
 20
0.395496
 30
0.0
 11
0.785481
 21
0.416168
 31
0.0
  0
LINE
  8
0
 62
     5
 10
0.785481
 20
0.416168
 30
0.0
 11
0.712445
 21
0.443727
 31
0.0
  0
LINE
  8
0
 62
     5
 10
0.712445
 20
0.443727
 30
0.0
 11
0.642165
 21
0.4768
 31
0.0
  0
LINE
  8
0
 62
     5
 10
0.642165
 20
0.4768
 30
0.0
 11
0.571885
 21
0.515387
 31
0.0
  0
LINE
  8
0
 62
     5
 10
0.571885
 20
0.515387
 30
0.0
 11
0.507118
 21
0.558105
 31
0.0
  0
LINE
  8
0
 62
     5
 10
0.507118
 20
0.558105
 30
0.0
 11
0.445107
 21
0.607716
 31
0.0
  0
LINE
  8
0
 62
     5
 10
0.445107
 20
0.607716
 30
0.0
 11
0.38723
 21
0.660079
 31
0.0
  0
LINE
  8
0
 62
     5
 10
0.38723
 20
0.660079
 30
0.0
 11
0.334863
 21
0.717959
 31
0.0
  0
LINE
  8
0
 62
     5
 10
0.334863
 20
0.717959
 30
0.0
 11
0.285254
 21
0.77997
 31
0.0
  0
LINE
  8
0
 62
     5
 10
0.285254
 20
0.77997
 30
0.0
 11
0.242535
 21
0.844737
 31
0.0
  0
LINE
  8
0
 62
     5
 10
0.242535
 20
0.844737
 30
0.0
 11
0.20395
 21
0.915017
 31
0.0
  0
LINE
  8
0
 62
     5
 10
0.20395
 20
0.915017
 30
0.0
 11
0.170877
 21
0.985298
 31
0.0
  0
LINE
  8
0
 62
     5
 10
0.170877
 20
0.985298
 30
0.0
 11
0.143316
 21
1.05833
 31
0.0
  0
LINE
  8
0
 62
     5
 10
0.143316
 20
1.05833
 30
0.0
 11
0.122645
 21
1.13412
 31
0.0
  0
LINE
  8
0
 62
     5
 10
0.122645
 20
1.13412
 30
0.0
 11
0.107487
 21
1.21129
 31
0.0
  0
LINE
  8
0
 62
     5
 10
0.107487
 20
1.21129
 30
0.0
 11
0.0978408
 21
1.28984
 31
0.0
  0
LINE
  8
0
 62
     5
 10
0.0978408
 20
1.28984
 30
0.0
 11
0.0950846
 21
1.36839
 31
0.0
  0
LINE
  8
0
 62
     5
 10
0.0950846
 20
1.36839
 30
0.0
 11
0.0950846
 21
108.619
 31
0.0
  0
LINE
  8
0
 62
     5
 10
0.0950846
 20
108.619
 30
0.0
 11
0.0978408
 21
108.697
 31
0.0
  0
LINE
  8
0
 62
     5
 10
0.0978408
 20
108.697
 30
0.0
 11
0.107487
 21
108.775
 31
0.0
  0
LINE
  8
0
 62
     5
 10
0.107487
 20
108.775
 30
0.0
 11
0.122645
 21
108.853
 31
0.0
  0
LINE
  8
0
 62
     5
 10
0.122645
 20
108.853
 30
0.0
 11
0.143316
 21
108.928
 31
0.0
  0
LINE
  8
0
 62
     5
 10
0.143316
 20
108.928
 30
0.0
 11
0.170877
 21
109.001
 31
0.0
  0
LINE
  8
0
 62
     5
 10
0.170877
 20
109.001
 30
0.0
 11
0.20395
 21
109.072
 31
0.0
  0
LINE
  8
0
 62
     5
 10
0.20395
 20
109.072
 30
0.0
 11
0.242535
 21
109.142
 31
0.0
  0
LINE
  8
0
 62
     5
 10
0.242535
 20
109.142
 30
0.0
 11
0.285254
 21
109.207
 31
0.0
  0
LINE
  8
0
 62
     5
 10
0.285254
 20
109.207
 30
0.0
 11
0.334863
 21
109.269
 31
0.0
  0
LINE
  8
0
 62
     5
 10
0.334863
 20
109.269
 30
0.0
 11
0.38723
 21
109.327
 31
0.0
  0
LINE
  8
0
 62
     5
 10
0.38723
 20
109.327
 30
0.0
 11
0.445107
 21
109.379
 31
0.0
  0
LINE
  8
0
 62
     5
 10
0.445107
 20
109.379
 30
0.0
 11
0.507118
 21
109.428
 31
0.0
  0
LINE
  8
0
 62
     5
 10
0.507118
 20
109.428
 30
0.0
 11
0.571885
 21
109.472
 31
0.0
  0
LINE
  8
0
 62
     5
 10
0.571885
 20
109.472
 30
0.0
 11
0.642165
 21
109.51
 31
0.0
  0
LINE
  8
0
 62
     5
 10
0.642165
 20
109.51
 30
0.0
 11
0.712445
 21
109.543
 31
0.0
  0
LINE
  8
0
 62
     5
 10
0.712445
 20
109.543
 30
0.0
 11
0.785481
 21
109.571
 31
0.0
  0
LINE
  8
0
 62
     5
 10
0.785481
 20
109.571
 30
0.0
 11
0.861275
 21
109.591
 31
0.0
  0
LINE
  8
0
 62
     5
 10
0.861275
 20
109.591
 30
0.0
 11
0.938445
 21
109.606
 31
0.0
  0
LINE
  8
0
 62
     5
 10
0.938445
 20
109.606
 30
0.0
 11
1.01699
 21
109.616
 31
0.0
  0
LINE
  8
0
 62
     5
 10
1.01699
 20
109.616
 30
0.0
 11
1.09554
 21
109.619
 31
0.0
  0
LINE
  8
0
 62
     5
 10
1.09554
 20
109.619
 30
0.0
 11
336.846
 21
109.619
 31
0.0
  0
LINE
  8
0
 62
     5
 10
3.11712
 20
5.34264
 30
0.0
 11
2.68304
 21
5.12078
 31
0.0
  0
LINE
  8
0
 62
     5
 10
2.68304
 20
5.12078
 30
0.0
 11
2.34129
 21
4.77905
 31
0.0
  0
LINE
  8
0
 62
     5
 10
2.34129
 20
4.77905
 30
0.0
 11
2.1208
 21
4.34633
 31
0.0
  0
LINE
  8
0
 62
     5
 10
2.1208
 20
4.34633
 30
0.0
 11
2.04501
 21
3.86676
 31
0.0
  0
LINE
  8
0
 62
     5
 10
2.04501
 20
3.86676
 30
0.0
 11
2.1208
 21
3.38998
 31
0.0
  0
LINE
  8
0
 62
     5
 10
2.1208
 20
3.38998
 30
0.0
 11
2.34129
 21
2.95589
 31
0.0
  0
LINE
  8
0
 62
     5
 10
2.34129
 20
2.95589
 30
0.0
 11
2.68304
 21
2.61414
 31
0.0
  0
LINE
  8
0
 62
     5
 10
2.68304
 20
2.61414
 30
0.0
 11
3.11712
 21
2.39365
 31
0.0
  0
LINE
  8
0
 62
     5
 10
3.11712
 20
2.39365
 30
0.0
 11
3.59392
 21
2.31786
 31
0.0
  0
LINE
  8
0
 62
     5
 10
3.59392
 20
2.31786
 30
0.0
 11
4.07349
 21
2.39365
 31
0.0
  0
LINE
  8
0
 62
     5
 10
4.07349
 20
2.39365
 30
0.0
 11
4.50617
 21
2.61414
 31
0.0
  0
LINE
  8
0
 62
     5
 10
4.50617
 20
2.61414
 30
0.0
 11
4.84794
 21
2.95589
 31
0.0
  0
LINE
  8
0
 62
     5
 10
4.84794
 20
2.95589
 30
0.0
 11
5.0698
 21
3.38998
 31
0.0
  0
LINE
  8
0
 62
     5
 10
5.0698
 20
3.38998
 30
0.0
 11
5.14421
 21
3.86676
 31
0.0
  0
LINE
  8
0
 62
     5
 10
5.14421
 20
3.86676
 30
0.0
 11
5.0698
 21
4.34633
 31
0.0
  0
LINE
  8
0
 62
     5
 10
5.0698
 20
4.34633
 30
0.0
 11
4.84794
 21
4.77905
 31
0.0
  0
LINE
  8
0
 62
     5
 10
4.84794
 20
4.77905
 30
0.0
 11
4.50617
 21
5.12078
 31
0.0
  0
LINE
  8
0
 62
     5
 10
4.50617
 20
5.12078
 30
0.0
 11
4.07349
 21
5.34264
 31
0.0
  0
LINE
  8
0
 62
     5
 10
4.07349
 20
5.34264
 30
0.0
 11
3.59392
 21
5.41708
 31
0.0
  0
LINE
  8
0
 62
     5
 10
3.59392
 20
5.41708
 30
0.0
 11
3.11712
 21
5.34264
 31
0.0
  0
LINE
  8
0
 62
     5
 10
85.8037
 20
5.34264
 30
0.0
 11
85.3708
 21
5.12078
 31
0.0
  0
LINE
  8
0
 62
     5
 10
85.3708
 20
5.12078
 30
0.0
 11
85.029
 21
4.77905
 31
0.0
  0
LINE
  8
0
 62
     5
 10
85.029
 20
4.77905
 30
0.0
 11
84.8085
 21
4.34633
 31
0.0
  0
LINE
  8
0
 62
     5
 10
84.8085
 20
4.34633
 30
0.0
 11
84.733
 21
3.86676
 31
0.0
  0
LINE
  8
0
 62
     5
 10
84.733
 20
3.86676
 30
0.0
 11
84.8085
 21
3.38998
 31
0.0
  0
LINE
  8
0
 62
     5
 10
84.8085
 20
3.38998
 30
0.0
 11
85.029
 21
2.95589
 31
0.0
  0
LINE
  8
0
 62
     5
 10
85.029
 20
2.95589
 30
0.0
 11
85.3708
 21
2.61414
 31
0.0
  0
LINE
  8
0
 62
     5
 10
85.3708
 20
2.61414
 30
0.0
 11
85.8037
 21
2.39365
 31
0.0
  0
LINE
  8
0
 62
     5
 10
85.8037
 20
2.39365
 30
0.0
 11
86.2831
 21
2.31786
 31
0.0
  0
LINE
  8
0
 62
     5
 10
86.2831
 20
2.31786
 30
0.0
 11
86.7615
 21
2.39365
 31
0.0
  0
LINE
  8
0
 62
     5
 10
86.7615
 20
2.39365
 30
0.0
 11
87.194
 21
2.61414
 31
0.0
  0
LINE
  8
0
 62
     5
 10
87.194
 20
2.61414
 30
0.0
 11
87.5372
 21
2.95589
 31
0.0
  0
LINE
  8
0
 62
     5
 10
87.5372
 20
2.95589
 30
0.0
 11
87.7563
 21
3.38998
 31
0.0
  0
LINE
  8
0
 62
     5
 10
87.7563
 20
3.38998
 30
0.0
 11
87.8321
 21
3.86676
 31
0.0
  0
LINE
  8
0
 62
     5
 10
87.8321
 20
3.86676
 30
0.0
 11
87.7563
 21
4.34633
 31
0.0
  0
LINE
  8
0
 62
     5
 10
87.7563
 20
4.34633
 30
0.0
 11
87.5372
 21
4.77905
 31
0.0
  0
LINE
  8
0
 62
     5
 10
87.5372
 20
4.77905
 30
0.0
 11
87.194
 21
5.12078
 31
0.0
  0
LINE
  8
0
 62
     5
 10
87.194
 20
5.12078
 30
0.0
 11
86.7615
 21
5.34264
 31
0.0
  0
LINE
  8
0
 62
     5
 10
86.7615
 20
5.34264
 30
0.0
 11
86.2831
 21
5.41708
 31
0.0
  0
LINE
  8
0
 62
     5
 10
86.2831
 20
5.41708
 30
0.0
 11
85.8037
 21
5.34264
 31
0.0
  0
LINE
  8
0
 62
     5
 10
168.491
 20
5.34264
 30
0.0
 11
168.06
 21
5.12078
 31
0.0
  0
LINE
  8
0
 62
     5
 10
168.06
 20
5.12078
 30
0.0
 11
167.717
 21
4.77905
 31
0.0
  0
LINE
  8
0
 62
     5
 10
167.717
 20
4.77905
 30
0.0
 11
167.496
 21
4.34633
 31
0.0
  0
LINE
  8
0
 62
     5
 10
167.496
 20
4.34633
 30
0.0
 11
167.421
 21
3.86676
 31
0.0
  0
LINE
  8
0
 62
     5
 10
167.421
 20
3.86676
 30
0.0
 11
167.496
 21
3.38998
 31
0.0
  0
LINE
  8
0
 62
     5
 10
167.496
 20
3.38998
 30
0.0
 11
167.717
 21
2.95589
 31
0.0
  0
LINE
  8
0
 62
     5
 10
167.717
 20
2.95589
 30
0.0
 11
168.06
 21
2.61414
 31
0.0
  0
LINE
  8
0
 62
     5
 10
168.06
 20
2.61414
 30
0.0
 11
168.491
 21
2.39365
 31
0.0
  0
LINE
  8
0
 62
     5
 10
168.491
 20
2.39365
 30
0.0
 11
168.971
 21
2.31786
 31
0.0
  0
LINE
  8
0
 62
     5
 10
168.971
 20
2.31786
 30
0.0
 11
169.449
 21
2.39365
 31
0.0
  0
LINE
  8
0
 62
     5
 10
169.449
 20
2.39365
 30
0.0
 11
169.882
 21
2.61414
 31
0.0
  0
LINE
  8
0
 62
     5
 10
169.882
 20
2.61414
 30
0.0
 11
170.225
 21
2.95589
 31
0.0
  0
LINE
  8
0
 62
     5
 10
170.225
 20
2.95589
 30
0.0
 11
170.444
 21
3.38998
 31
0.0
  0
LINE
  8
0
 62
     5
 10
170.444
 20
3.38998
 30
0.0
 11
170.52
 21
3.86676
 31
0.0
  0
LINE
  8
0
 62
     5
 10
170.52
 20
3.86676
 30
0.0
 11
170.444
 21
4.34633
 31
0.0
  0
LINE
  8
0
 62
     5
 10
170.444
 20
4.34633
 30
0.0
 11
170.225
 21
4.77905
 31
0.0
  0
LINE
  8
0
 62
     5
 10
170.225
 20
4.77905
 30
0.0
 11
169.882
 21
5.12078
 31
0.0
  0
LINE
  8
0
 62
     5
 10
169.882
 20
5.12078
 30
0.0
 11
169.449
 21
5.34264
 31
0.0
  0
LINE
  8
0
 62
     5
 10
169.449
 20
5.34264
 30
0.0
 11
168.971
 21
5.41708
 31
0.0
  0
LINE
  8
0
 62
     5
 10
168.971
 20
5.41708
 30
0.0
 11
168.491
 21
5.34264
 31
0.0
  0
LINE
  8
0
 62
     5
 10
251.179
 20
5.34264
 30
0.0
 11
250.748
 21
5.12078
 31
0.0
  0
LINE
  8
0
 62
     5
 10
250.748
 20
5.12078
 30
0.0
 11
250.405
 21
4.77905
 31
0.0
  0
LINE
  8
0
 62
     5
 10
250.405
 20
4.77905
 30
0.0
 11
250.184
 21
4.34633
 31
0.0
  0
LINE
  8
0
 62
     5
 10
250.184
 20
4.34633
 30
0.0
 11
250.109
 21
3.86676
 31
0.0
  0
LINE
  8
0
 62
     5
 10
250.109
 20
3.86676
 30
0.0
 11
250.184
 21
3.38998
 31
0.0
  0
LINE
  8
0
 62
     5
 10
250.184
 20
3.38998
 30
0.0
 11
250.405
 21
2.95589
 31
0.0
  0
LINE
  8
0
 62
     5
 10
250.405
 20
2.95589
 30
0.0
 11
250.748
 21
2.61414
 31
0.0
  0
LINE
  8
0
 62
     5
 10
250.748
 20
2.61414
 30
0.0
 11
251.179
 21
2.39365
 31
0.0
  0
LINE
  8
0
 62
     5
 10
251.179
 20
2.39365
 30
0.0
 11
251.659
 21
2.31786
 31
0.0
  0
LINE
  8
0
 62
     5
 10
251.659
 20
2.31786
 30
0.0
 11
252.137
 21
2.39365
 31
0.0
  0
LINE
  8
0
 62
     5
 10
252.137
 20
2.39365
 30
0.0
 11
252.569
 21
2.61414
 31
0.0
  0
LINE
  8
0
 62
     5
 10
252.569
 20
2.61414
 30
0.0
 11
252.913
 21
2.95589
 31
0.0
  0
LINE
  8
0
 62
     5
 10
252.913
 20
2.95589
 30
0.0
 11
253.132
 21
3.38998
 31
0.0
  0
LINE
  8
0
 62
     5
 10
253.132
 20
3.38998
 30
0.0
 11
253.209
 21
3.86676
 31
0.0
  0
LINE
  8
0
 62
     5
 10
253.209
 20
3.86676
 30
0.0
 11
253.132
 21
4.34633
 31
0.0
  0
LINE
  8
0
 62
     5
 10
253.132
 20
4.34633
 30
0.0
 11
252.913
 21
4.77905
 31
0.0
  0
LINE
  8
0
 62
     5
 10
252.913
 20
4.77905
 30
0.0
 11
252.569
 21
5.12078
 31
0.0
  0
LINE
  8
0
 62
     5
 10
252.569
 20
5.12078
 30
0.0
 11
252.137
 21
5.34264
 31
0.0
  0
LINE
  8
0
 62
     5
 10
252.137
 20
5.34264
 30
0.0
 11
251.659
 21
5.41708
 31
0.0
  0
LINE
  8
0
 62
     5
 10
251.659
 20
5.41708
 30
0.0
 11
251.179
 21
5.34264
 31
0.0
  0
LINE
  8
0
 62
     5
 10
333.867
 20
5.34264
 30
0.0
 11
333.434
 21
5.12078
 31
0.0
  0
LINE
  8
0
 62
     5
 10
333.434
 20
5.12078
 30
0.0
 11
333.092
 21
4.77905
 31
0.0
  0
LINE
  8
0
 62
     5
 10
333.092
 20
4.77905
 30
0.0
 11
332.872
 21
4.34633
 31
0.0
  0
LINE
  8
0
 62
     5
 10
332.872
 20
4.34633
 30
0.0
 11
332.796
 21
3.86676
 31
0.0
  0
LINE
  8
0
 62
     5
 10
332.796
 20
3.86676
 30
0.0
 11
332.872
 21
3.38998
 31
0.0
  0
LINE
  8
0
 62
     5
 10
332.872
 20
3.38998
 30
0.0
 11
333.092
 21
2.95589
 31
0.0
  0
LINE
  8
0
 62
     5
 10
333.092
 20
2.95589
 30
0.0
 11
333.434
 21
2.61414
 31
0.0
  0
LINE
  8
0
 62
     5
 10
333.434
 20
2.61414
 30
0.0
 11
333.867
 21
2.39365
 31
0.0
  0
LINE
  8
0
 62
     5
 10
333.867
 20
2.39365
 30
0.0
 11
334.347
 21
2.31786
 31
0.0
  0
LINE
  8
0
 62
     5
 10
334.347
 20
2.31786
 30
0.0
 11
334.825
 21
2.39365
 31
0.0
  0
LINE
  8
0
 62
     5
 10
334.825
 20
2.39365
 30
0.0
 11
335.257
 21
2.61414
 31
0.0
  0
LINE
  8
0
 62
     5
 10
335.257
 20
2.61414
 30
0.0
 11
335.599
 21
2.95589
 31
0.0
  0
LINE
  8
0
 62
     5
 10
335.599
 20
2.95589
 30
0.0
 11
335.821
 21
3.38998
 31
0.0
  0
LINE
  8
0
 62
     5
 10
335.821
 20
3.38998
 30
0.0
 11
335.897
 21
3.86676
 31
0.0
  0
LINE
  8
0
 62
     5
 10
335.897
 20
3.86676
 30
0.0
 11
335.821
 21
4.34633
 31
0.0
  0
LINE
  8
0
 62
     5
 10
335.821
 20
4.34633
 30
0.0
 11
335.599
 21
4.77905
 31
0.0
  0
LINE
  8
0
 62
     5
 10
335.599
 20
4.77905
 30
0.0
 11
335.257
 21
5.12078
 31
0.0
  0
LINE
  8
0
 62
     5
 10
335.257
 20
5.12078
 30
0.0
 11
334.825
 21
5.34264
 31
0.0
  0
LINE
  8
0
 62
     5
 10
334.825
 20
5.34264
 30
0.0
 11
334.347
 21
5.41708
 31
0.0
  0
LINE
  8
0
 62
     5
 10
334.347
 20
5.41708
 30
0.0
 11
333.867
 21
5.34264
 31
0.0
  0
LINE
  8
0
 62
     5
 10
3.11712
 20
107.593
 30
0.0
 11
2.68304
 21
107.373
 31
0.0
  0
LINE
  8
0
 62
     5
 10
2.68304
 20
107.373
 30
0.0
 11
2.34129
 21
107.031
 31
0.0
  0
LINE
  8
0
 62
     5
 10
2.34129
 20
107.031
 30
0.0
 11
2.1208
 21
106.597
 31
0.0
  0
LINE
  8
0
 62
     5
 10
2.1208
 20
106.597
 30
0.0
 11
2.04501
 21
106.119
 31
0.0
  0
LINE
  8
0
 62
     5
 10
2.04501
 20
106.119
 30
0.0
 11
2.1208
 21
105.64
 31
0.0
  0
LINE
  8
0
 62
     5
 10
2.1208
 20
105.64
 30
0.0
 11
2.34129
 21
105.208
 31
0.0
  0
LINE
  8
0
 62
     5
 10
2.34129
 20
105.208
 30
0.0
 11
2.68304
 21
104.866
 31
0.0
  0
LINE
  8
0
 62
     5
 10
2.68304
 20
104.866
 30
0.0
 11
3.11712
 21
104.644
 31
0.0
  0
LINE
  8
0
 62
     5
 10
3.11712
 20
104.644
 30
0.0
 11
3.59392
 21
104.568
 31
0.0
  0
LINE
  8
0
 62
     5
 10
3.59392
 20
104.568
 30
0.0
 11
4.07349
 21
104.644
 31
0.0
  0
LINE
  8
0
 62
     5
 10
4.07349
 20
104.644
 30
0.0
 11
4.50617
 21
104.866
 31
0.0
  0
LINE
  8
0
 62
     5
 10
4.50617
 20
104.866
 30
0.0
 11
4.84794
 21
105.208
 31
0.0
  0
LINE
  8
0
 62
     5
 10
4.84794
 20
105.208
 30
0.0
 11
5.0698
 21
105.64
 31
0.0
  0
LINE
  8
0
 62
     5
 10
5.0698
 20
105.64
 30
0.0
 11
5.14421
 21
106.119
 31
0.0
  0
LINE
  8
0
 62
     5
 10
5.14421
 20
106.119
 30
0.0
 11
5.0698
 21
106.597
 31
0.0
  0
LINE
  8
0
 62
     5
 10
5.0698
 20
106.597
 30
0.0
 11
4.84794
 21
107.031
 31
0.0
  0
LINE
  8
0
 62
     5
 10
4.84794
 20
107.031
 30
0.0
 11
4.50617
 21
107.373
 31
0.0
  0
LINE
  8
0
 62
     5
 10
4.50617
 20
107.373
 30
0.0
 11
4.07349
 21
107.593
 31
0.0
  0
LINE
  8
0
 62
     5
 10
4.07349
 20
107.593
 30
0.0
 11
3.59392
 21
107.669
 31
0.0
  0
LINE
  8
0
 62
     5
 10
3.59392
 20
107.669
 30
0.0
 11
3.11712
 21
107.593
 31
0.0
  0
LINE
  8
0
 62
     5
 10
333.867
 20
107.593
 30
0.0
 11
333.434
 21
107.373
 31
0.0
  0
LINE
  8
0
 62
     5
 10
333.434
 20
107.373
 30
0.0
 11
333.092
 21
107.031
 31
0.0
  0
LINE
  8
0
 62
     5
 10
333.092
 20
107.031
 30
0.0
 11
332.872
 21
106.597
 31
0.0
  0
LINE
  8
0
 62
     5
 10
332.872
 20
106.597
 30
0.0
 11
332.796
 21
106.119
 31
0.0
  0
LINE
  8
0
 62
     5
 10
332.796
 20
106.119
 30
0.0
 11
332.872
 21
105.64
 31
0.0
  0
LINE
  8
0
 62
     5
 10
332.872
 20
105.64
 30
0.0
 11
333.092
 21
105.208
 31
0.0
  0
LINE
  8
0
 62
     5
 10
333.092
 20
105.208
 30
0.0
 11
333.434
 21
104.866
 31
0.0
  0
LINE
  8
0
 62
     5
 10
333.434
 20
104.866
 30
0.0
 11
333.867
 21
104.644
 31
0.0
  0
LINE
  8
0
 62
     5
 10
333.867
 20
104.644
 30
0.0
 11
334.347
 21
104.568
 31
0.0
  0
LINE
  8
0
 62
     5
 10
334.347
 20
104.568
 30
0.0
 11
334.825
 21
104.644
 31
0.0
  0
LINE
  8
0
 62
     5
 10
334.825
 20
104.644
 30
0.0
 11
335.257
 21
104.866
 31
0.0
  0
LINE
  8
0
 62
     5
 10
335.257
 20
104.866
 30
0.0
 11
335.599
 21
105.208
 31
0.0
  0
LINE
  8
0
 62
     5
 10
335.599
 20
105.208
 30
0.0
 11
335.821
 21
105.64
 31
0.0
  0
LINE
  8
0
 62
     5
 10
335.821
 20
105.64
 30
0.0
 11
335.897
 21
106.119
 31
0.0
  0
LINE
  8
0
 62
     5
 10
335.897
 20
106.119
 30
0.0
 11
335.821
 21
106.597
 31
0.0
  0
LINE
  8
0
 62
     5
 10
335.821
 20
106.597
 30
0.0
 11
335.599
 21
107.031
 31
0.0
  0
LINE
  8
0
 62
     5
 10
335.599
 20
107.031
 30
0.0
 11
335.257
 21
107.373
 31
0.0
  0
LINE
  8
0
 62
     5
 10
335.257
 20
107.373
 30
0.0
 11
334.825
 21
107.593
 31
0.0
  0
LINE
  8
0
 62
     5
 10
334.825
 20
107.593
 30
0.0
 11
334.347
 21
107.669
 31
0.0
  0
LINE
  8
0
 62
     5
 10
334.347
 20
107.669
 30
0.0
 11
333.867
 21
107.593
 31
0.0
  0
LINE
  8
0
 62
     5
 10
251.179
 20
107.593
 30
0.0
 11
250.748
 21
107.373
 31
0.0
  0
LINE
  8
0
 62
     5
 10
250.748
 20
107.373
 30
0.0
 11
250.405
 21
107.031
 31
0.0
  0
LINE
  8
0
 62
     5
 10
250.405
 20
107.031
 30
0.0
 11
250.184
 21
106.597
 31
0.0
  0
LINE
  8
0
 62
     5
 10
250.184
 20
106.597
 30
0.0
 11
250.109
 21
106.119
 31
0.0
  0
LINE
  8
0
 62
     5
 10
250.109
 20
106.119
 30
0.0
 11
250.184
 21
105.64
 31
0.0
  0
LINE
  8
0
 62
     5
 10
250.184
 20
105.64
 30
0.0
 11
250.405
 21
105.208
 31
0.0
  0
LINE
  8
0
 62
     5
 10
250.405
 20
105.208
 30
0.0
 11
250.748
 21
104.866
 31
0.0
  0
LINE
  8
0
 62
     5
 10
250.748
 20
104.866
 30
0.0
 11
251.179
 21
104.644
 31
0.0
  0
LINE
  8
0
 62
     5
 10
251.179
 20
104.644
 30
0.0
 11
251.659
 21
104.568
 31
0.0
  0
LINE
  8
0
 62
     5
 10
251.659
 20
104.568
 30
0.0
 11
252.137
 21
104.644
 31
0.0
  0
LINE
  8
0
 62
     5
 10
252.137
 20
104.644
 30
0.0
 11
252.569
 21
104.866
 31
0.0
  0
LINE
  8
0
 62
     5
 10
252.569
 20
104.866
 30
0.0
 11
252.913
 21
105.208
 31
0.0
  0
LINE
  8
0
 62
     5
 10
252.913
 20
105.208
 30
0.0
 11
253.132
 21
105.64
 31
0.0
  0
LINE
  8
0
 62
     5
 10
253.132
 20
105.64
 30
0.0
 11
253.209
 21
106.119
 31
0.0
  0
LINE
  8
0
 62
     5
 10
253.209
 20
106.119
 30
0.0
 11
253.132
 21
106.597
 31
0.0
  0
LINE
  8
0
 62
     5
 10
253.132
 20
106.597
 30
0.0
 11
252.913
 21
107.031
 31
0.0
  0
LINE
  8
0
 62
     5
 10
252.913
 20
107.031
 30
0.0
 11
252.569
 21
107.373
 31
0.0
  0
LINE
  8
0
 62
     5
 10
252.569
 20
107.373
 30
0.0
 11
252.137
 21
107.593
 31
0.0
  0
LINE
  8
0
 62
     5
 10
252.137
 20
107.593
 30
0.0
 11
251.659
 21
107.669
 31
0.0
  0
LINE
  8
0
 62
     5
 10
251.659
 20
107.669
 30
0.0
 11
251.179
 21
107.593
 31
0.0
  0
LINE
  8
0
 62
     5
 10
168.491
 20
107.593
 30
0.0
 11
168.06
 21
107.373
 31
0.0
  0
LINE
  8
0
 62
     5
 10
168.06
 20
107.373
 30
0.0
 11
167.717
 21
107.031
 31
0.0
  0
LINE
  8
0
 62
     5
 10
167.717
 20
107.031
 30
0.0
 11
167.496
 21
106.597
 31
0.0
  0
LINE
  8
0
 62
     5
 10
167.496
 20
106.597
 30
0.0
 11
167.421
 21
106.119
 31
0.0
  0
LINE
  8
0
 62
     5
 10
167.421
 20
106.119
 30
0.0
 11
167.496
 21
105.64
 31
0.0
  0
LINE
  8
0
 62
     5
 10
167.496
 20
105.64
 30
0.0
 11
167.717
 21
105.208
 31
0.0
  0
LINE
  8
0
 62
     5
 10
167.717
 20
105.208
 30
0.0
 11
168.06
 21
104.866
 31
0.0
  0
LINE
  8
0
 62
     5
 10
168.06
 20
104.866
 30
0.0
 11
168.491
 21
104.644
 31
0.0
  0
LINE
  8
0
 62
     5
 10
168.491
 20
104.644
 30
0.0
 11
168.971
 21
104.568
 31
0.0
  0
LINE
  8
0
 62
     5
 10
168.971
 20
104.568
 30
0.0
 11
169.449
 21
104.644
 31
0.0
  0
LINE
  8
0
 62
     5
 10
169.449
 20
104.644
 30
0.0
 11
169.882
 21
104.866
 31
0.0
  0
LINE
  8
0
 62
     5
 10
169.882
 20
104.866
 30
0.0
 11
170.225
 21
105.208
 31
0.0
  0
LINE
  8
0
 62
     5
 10
170.225
 20
105.208
 30
0.0
 11
170.444
 21
105.64
 31
0.0
  0
LINE
  8
0
 62
     5
 10
170.444
 20
105.64
 30
0.0
 11
170.52
 21
106.119
 31
0.0
  0
LINE
  8
0
 62
     5
 10
170.52
 20
106.119
 30
0.0
 11
170.444
 21
106.597
 31
0.0
  0
LINE
  8
0
 62
     5
 10
170.444
 20
106.597
 30
0.0
 11
170.225
 21
107.031
 31
0.0
  0
LINE
  8
0
 62
     5
 10
170.225
 20
107.031
 30
0.0
 11
169.882
 21
107.373
 31
0.0
  0
LINE
  8
0
 62
     5
 10
169.882
 20
107.373
 30
0.0
 11
169.449
 21
107.593
 31
0.0
  0
LINE
  8
0
 62
     5
 10
169.449
 20
107.593
 30
0.0
 11
168.971
 21
107.669
 31
0.0
  0
LINE
  8
0
 62
     5
 10
168.971
 20
107.669
 30
0.0
 11
168.491
 21
107.593
 31
0.0
  0
LINE
  8
0
 62
     5
 10
85.8037
 20
107.593
 30
0.0
 11
85.3708
 21
107.373
 31
0.0
  0
LINE
  8
0
 62
     5
 10
85.3708
 20
107.373
 30
0.0
 11
85.029
 21
107.031
 31
0.0
  0
LINE
  8
0
 62
     5
 10
85.029
 20
107.031
 30
0.0
 11
84.8085
 21
106.597
 31
0.0
  0
LINE
  8
0
 62
     5
 10
84.8085
 20
106.597
 30
0.0
 11
84.733
 21
106.119
 31
0.0
  0
LINE
  8
0
 62
     5
 10
84.733
 20
106.119
 30
0.0
 11
84.8085
 21
105.64
 31
0.0
  0
LINE
  8
0
 62
     5
 10
84.8085
 20
105.64
 30
0.0
 11
85.029
 21
105.208
 31
0.0
  0
LINE
  8
0
 62
     5
 10
85.029
 20
105.208
 30
0.0
 11
85.3708
 21
104.866
 31
0.0
  0
LINE
  8
0
 62
     5
 10
85.3708
 20
104.866
 30
0.0
 11
85.8037
 21
104.644
 31
0.0
  0
LINE
  8
0
 62
     5
 10
85.8037
 20
104.644
 30
0.0
 11
86.2831
 21
104.568
 31
0.0
  0
LINE
  8
0
 62
     5
 10
86.2831
 20
104.568
 30
0.0
 11
86.7615
 21
104.644
 31
0.0
  0
LINE
  8
0
 62
     5
 10
86.7615
 20
104.644
 30
0.0
 11
87.194
 21
104.866
 31
0.0
  0
LINE
  8
0
 62
     5
 10
87.194
 20
104.866
 30
0.0
 11
87.5372
 21
105.208
 31
0.0
  0
LINE
  8
0
 62
     5
 10
87.5372
 20
105.208
 30
0.0
 11
87.7563
 21
105.64
 31
0.0
  0
LINE
  8
0
 62
     5
 10
87.7563
 20
105.64
 30
0.0
 11
87.8321
 21
106.119
 31
0.0
  0
LINE
  8
0
 62
     5
 10
87.8321
 20
106.119
 30
0.0
 11
87.7563
 21
106.597
 31
0.0
  0
LINE
  8
0
 62
     5
 10
87.7563
 20
106.597
 30
0.0
 11
87.5372
 21
107.031
 31
0.0
  0
LINE
  8
0
 62
     5
 10
87.5372
 20
107.031
 30
0.0
 11
87.194
 21
107.373
 31
0.0
  0
LINE
  8
0
 62
     5
 10
87.194
 20
107.373
 30
0.0
 11
86.7615
 21
107.593
 31
0.0
  0
LINE
  8
0
 62
     5
 10
86.7615
 20
107.593
 30
0.0
 11
86.2831
 21
107.669
 31
0.0
  0
LINE
  8
0
 62
     5
 10
86.2831
 20
107.669
 30
0.0
 11
85.8037
 21
107.593
 31
0.0
  0
ENDSEC
  0
EOF
