<?xml version="1.0"?>
<!-- Generated by SVGo -->
<svg width="347.752mm" height="119.252mm"
     viewBox="0.000 0.000 347.752 119.252"
     xmlns="http://www.w3.org/2000/svg" 
     xmlns:xlink="http://www.w3.org/1999/xlink">
<polygon points="341.752,5.001 341.830,5.004 341.908,5.013 341.985,5.028 342.061,5.049 342.134,5.077 342.205,5.109 342.274,5.148 342.339,5.191 342.401,5.240 342.459,5.293 342.512,5.351 342.561,5.413 342.604,5.478 342.643,5.547 342.675,5.618 342.703,5.691 342.724,5.767 342.739,5.844 342.748,5.922 342.752,6.001 342.752,113.251 342.748,113.330 342.739,113.408 342.724,113.485 342.703,113.561 342.675,113.634 342.643,113.705 342.604,113.774 342.561,113.839 342.512,113.901 342.459,113.959 342.401,114.012 342.339,114.061 342.274,114.104 342.205,114.143 342.134,114.175 342.061,114.203 341.985,114.224 341.908,114.239 341.830,114.248 341.752,114.252 6.001,114.251 5.922,114.248 5.844,114.239 5.767,114.224 5.691,114.203 5.618,114.175 5.547,114.143 5.478,114.104 5.413,114.061 5.351,114.012 5.293,113.959 5.240,113.901 5.191,113.839 5.148,113.774 5.109,113.705 5.077,113.634 5.049,113.561 5.028,113.485 5.013,113.408 5.004,113.330 5.000,113.251 5.001,6.001 5.004,5.922 5.013,5.844 5.028,5.767 5.049,5.691 5.077,5.618 5.109,5.547 5.148,5.478 5.191,5.413 5.240,5.351 5.293,5.293 5.351,5.240 5.413,5.191 5.478,5.148 5.547,5.109 5.618,5.077 5.691,5.049 5.767,5.028 5.844,5.013 5.922,5.004 6.001,5.000" style="fill:none;stroke-width:0.050000mm;stroke:blue"/>
<polygon points="8.022,109.277 7.589,109.498 7.247,109.840 7.026,110.273 6.950,110.752 7.026,111.230 7.247,111.663 7.589,112.005 8.022,112.226 8.500,112.302 8.979,112.226 9.412,112.005 9.754,111.663 9.975,111.230 10.050,110.752 9.975,110.273 9.754,109.840 9.412,109.498 8.979,109.277 8.500,109.202" style="fill:none;stroke-width:0.050000mm;stroke:blue"/>
<polygon points="90.709,109.277 90.277,109.498 89.934,109.840 89.714,110.273 89.638,110.752 89.714,111.230 89.934,111.663 90.277,112.005 90.709,112.226 91.188,112.302 91.667,112.226 92.099,112.005 92.442,111.663 92.662,111.230 92.738,110.752 92.662,110.273 92.442,109.840 92.099,109.498 91.667,109.277 91.188,109.202" style="fill:none;stroke-width:0.050000mm;stroke:blue"/>
<polygon points="173.397,109.277 172.965,109.498 172.622,109.840 172.402,110.273 172.326,110.752 172.402,111.230 172.622,111.663 172.965,112.005 173.397,112.226 173.876,112.302 174.355,112.226 174.787,112.005 175.130,111.663 175.350,111.230 175.426,110.752 175.350,110.273 175.130,109.840 174.787,109.498 174.355,109.277 173.876,109.202" style="fill:none;stroke-width:0.050000mm;stroke:blue"/>
<polygon points="256.085,109.277 255.653,109.498 255.310,109.840 255.090,110.273 255.014,110.752 255.090,111.230 255.310,111.663 255.653,112.005 256.085,112.226 256.564,112.302 257.042,112.226 257.475,112.005 257.818,111.663 258.037,111.230 258.114,110.752 258.037,110.273 257.818,109.840 257.475,109.498 257.042,109.277 256.564,109.202" style="fill:none;stroke-width:0.050000mm;stroke:blue"/>
<polygon points="338.773,109.277 338.340,109.498 337.998,109.840 337.777,110.273 337.702,110.752 337.777,111.230 337.998,111.663 338.340,112.005 338.773,112.226 339.252,112.302 339.730,112.226 340.163,112.005 340.505,111.663 340.726,111.230 340.802,110.752 340.726,110.273 340.505,109.840 340.163,109.498 339.730,109.277 339.252,109.202" style="fill:none;stroke-width:0.050000mm;stroke:blue"/>
<polygon points="135.969,90.726 135.969,91.726 135.169,91.726 135.169,94.825 135.969,94.825 135.969,95.426 96.344,95.426 96.344,92.196 94.619,92.196 94.619,91.275 91.319,91.275 91.319,92.196 89.594,92.196 89.594,95.426 88.769,95.426 88.769,98.226 89.594,98.226 89.594,104.495 91.319,104.495 91.319,105.476 94.619,105.476 94.619,104.495 96.344,104.495 96.344,100.025 135.969,100.025 135.969,100.626 135.169,100.626 135.169,103.726 135.969,103.726 135.969,104.726 149.969,104.726 149.969,103.726 150.769,103.726 150.769,100.626 149.969,100.626 149.969,100.025 189.594,100.025 189.594,104.495 191.319,104.495 191.319,105.476 194.619,105.476 194.619,104.495 196.344,104.495 196.344,98.226 197.169,98.226 197.169,95.426 196.344,95.426 196.344,92.196 194.619,92.196 194.619,91.275 191.319,91.275 191.319,92.196 189.594,92.196 189.594,95.426 149.969,95.426 149.969,94.825 150.769,94.825 150.769,91.726 149.969,91.726 149.969,90.726" style="fill:none;stroke-width:0.050000mm;stroke:blue"/>
<polygon points="281.226,90.726 281.226,91.726 280.426,91.726 280.426,94.825 281.226,94.825 281.226,100.626 280.426,100.626 280.426,103.726 281.226,103.726 281.226,104.726 295.226,104.726 295.226,103.726 296.026,103.726 296.026,100.626 295.226,100.626 295.226,94.825 296.026,94.825 296.026,91.726 295.226,91.726 295.226,90.726" style="fill:none;stroke-width:0.050000mm;stroke:blue"/>
<polygon points="262.176,90.726 262.176,91.726 261.376,91.726 261.376,94.825 262.176,94.825 262.176,100.626 261.376,100.626 261.376,103.726 262.176,103.726 262.176,104.726 276.176,104.726 276.176,103.726 276.976,103.726 276.976,100.626 276.176,100.626 276.176,94.825 276.976,94.825 276.976,91.726 276.176,91.726 276.176,90.726" style="fill:none;stroke-width:0.050000mm;stroke:blue"/>
<polygon points="243.126,90.726 243.126,91.726 242.326,91.726 242.326,94.825 243.126,94.825 243.126,100.626 242.326,100.626 242.326,103.726 243.126,103.726 243.126,104.726 257.126,104.726 257.126,103.726 257.926,103.726 257.926,100.626 257.126,100.626 257.126,94.825 257.926,94.825 257.926,91.726 257.126,91.726 257.126,90.726" style="fill:none;stroke-width:0.050000mm;stroke:blue"/>
<polygon points="224.076,90.726 224.076,91.726 223.276,91.726 223.276,94.825 224.076,94.825 224.076,100.626 223.276,100.626 223.276,103.726 224.076,103.726 224.076,104.726 238.076,104.726 238.076,103.726 238.876,103.726 238.876,100.626 238.076,100.626 238.076,94.825 238.876,94.825 238.876,91.726 238.076,91.726 238.076,90.726" style="fill:none;stroke-width:0.050000mm;stroke:blue"/>
<polygon points="205.026,90.726 205.026,91.726 204.226,91.726 204.226,94.825 205.026,94.825 205.026,100.626 204.226,100.626 204.226,103.726 205.026,103.726 205.026,104.726 219.026,104.726 219.026,103.726 219.826,103.726 219.826,100.626 219.026,100.626 219.026,94.825 219.826,94.825 219.826,91.726 219.026,91.726 219.026,90.726" style="fill:none;stroke-width:0.050000mm;stroke:blue"/>
<polygon points="64.532,90.726 64.532,91.726 63.732,91.726 63.732,94.825 64.532,94.825 64.532,100.626 63.732,100.626 63.732,103.726 64.532,103.726 64.532,104.726 78.532,104.726 78.532,103.726 79.332,103.726 79.332,100.626 78.532,100.626 78.532,94.825 79.332,94.825 79.332,91.726 78.532,91.726 78.532,90.726" style="fill:none;stroke-width:0.050000mm;stroke:blue"/>
<polygon points="40.719,90.726 40.719,91.726 39.919,91.726 39.919,94.825 40.719,94.825 40.719,100.626 39.919,100.626 39.919,103.726 40.719,103.726 40.719,104.726 54.719,104.726 54.719,103.726 55.519,103.726 55.519,100.626 54.719,100.626 54.719,94.825 55.519,94.825 55.519,91.726 54.719,91.726 54.719,90.726" style="fill:none;stroke-width:0.050000mm;stroke:blue"/>
<polygon points="16.907,90.726 16.907,91.726 16.107,91.726 16.107,94.825 16.907,94.825 16.907,100.626 16.107,100.626 16.107,103.726 16.907,103.726 16.907,104.726 30.907,104.726 30.907,103.726 31.707,103.726 31.707,100.626 30.907,100.626 30.907,94.825 31.707,94.825 31.707,91.726 30.907,91.726 30.907,90.726" style="fill:none;stroke-width:0.050000mm;stroke:blue"/>
<polygon points="24.051,71.676 24.051,72.676 23.251,72.676 23.251,75.775 24.051,75.775 24.051,76.376 22.526,76.376 22.526,73.146 20.801,73.146 20.801,72.226 17.501,72.226 17.501,73.146 15.776,73.146 15.776,76.376 14.951,76.376 14.951,79.176 15.776,79.176 15.776,85.446 17.501,85.446 17.501,86.426 20.801,86.426 20.801,85.446 22.526,85.446 22.526,80.976 24.051,80.976 24.051,81.576 23.251,81.576 23.251,84.676 24.051,84.676 24.051,85.676 38.051,85.676 38.051,84.676 38.851,84.676 38.851,81.576 38.051,81.576 38.051,80.976 39.576,80.976 39.576,85.446 41.301,85.446 41.301,86.426 44.601,86.426 44.601,85.446 46.326,85.446 46.326,79.176 47.151,79.176 47.151,76.376 46.326,76.376 46.326,73.146 44.601,73.146 44.601,72.226 41.301,72.226 41.301,73.146 39.576,73.146 39.576,76.376 38.051,76.376 38.051,75.775 38.851,75.775 38.851,72.676 38.051,72.676 38.051,71.676" style="fill:none;stroke-width:0.050000mm;stroke:blue"/>
<polygon points="281.226,71.676 281.226,72.676 280.426,72.676 280.426,75.775 281.226,75.775 281.226,81.576 280.426,81.576 280.426,84.676 281.226,84.676 281.226,85.676 295.226,85.676 295.226,84.676 296.026,84.676 296.026,81.576 295.226,81.576 295.226,75.775 296.026,75.775 296.026,72.676 295.226,72.676 295.226,71.676" style="fill:none;stroke-width:0.050000mm;stroke:blue"/>
<polygon points="262.176,71.676 262.176,72.676 261.376,72.676 261.376,75.775 262.176,75.775 262.176,81.576 261.376,81.576 261.376,84.676 262.176,84.676 262.176,85.676 276.176,85.676 276.176,84.676 276.976,84.676 276.976,81.576 276.176,81.576 276.176,75.775 276.976,75.775 276.976,72.676 276.176,72.676 276.176,71.676" style="fill:none;stroke-width:0.050000mm;stroke:blue"/>
<polygon points="243.126,71.676 243.126,72.676 242.326,72.676 242.326,75.775 243.126,75.775 243.126,81.576 242.326,81.576 242.326,84.676 243.126,84.676 243.126,85.676 257.126,85.676 257.126,84.676 257.926,84.676 257.926,81.576 257.126,81.576 257.126,75.775 257.926,75.775 257.926,72.676 257.126,72.676 257.126,71.676" style="fill:none;stroke-width:0.050000mm;stroke:blue"/>
<polygon points="224.076,71.676 224.076,72.676 223.276,72.676 223.276,75.775 224.076,75.775 224.076,81.576 223.276,81.576 223.276,84.676 224.076,84.676 224.076,85.676 238.076,85.676 238.076,84.676 238.876,84.676 238.876,81.576 238.076,81.576 238.076,75.775 238.876,75.775 238.876,72.676 238.076,72.676 238.076,71.676" style="fill:none;stroke-width:0.050000mm;stroke:blue"/>
<polygon points="205.026,71.676 205.026,72.676 204.226,72.676 204.226,75.775 205.026,75.775 205.026,81.576 204.226,81.576 204.226,84.676 205.026,84.676 205.026,85.676 219.026,85.676 219.026,84.676 219.826,84.676 219.826,81.576 219.026,81.576 219.026,75.775 219.826,75.775 219.826,72.676 219.026,72.676 219.026,71.676" style="fill:none;stroke-width:0.050000mm;stroke:blue"/>
<polygon points="185.976,71.676 185.976,72.676 185.176,72.676 185.176,75.775 185.976,75.775 185.976,81.576 185.176,81.576 185.176,84.676 185.976,84.676 185.976,85.676 199.976,85.676 199.976,84.676 200.776,84.676 200.776,81.576 199.976,81.576 199.976,75.775 200.776,75.775 200.776,72.676 199.976,72.676 199.976,71.676" style="fill:none;stroke-width:0.050000mm;stroke:blue"/>
<polygon points="166.926,71.676 166.926,72.676 166.126,72.676 166.126,75.775 166.926,75.775 166.926,81.576 166.126,81.576 166.126,84.676 166.926,84.676 166.926,85.676 180.926,85.676 180.926,84.676 181.726,84.676 181.726,81.576 180.926,81.576 180.926,75.775 181.726,75.775 181.726,72.676 180.926,72.676 180.926,71.676" style="fill:none;stroke-width:0.050000mm;stroke:blue"/>
<polygon points="147.876,71.676 147.876,72.676 147.076,72.676 147.076,75.775 147.876,75.775 147.876,81.576 147.076,81.576 147.076,84.676 147.876,84.676 147.876,85.676 161.876,85.676 161.876,84.676 162.676,84.676 162.676,81.576 161.876,81.576 161.876,75.775 162.676,75.775 162.676,72.676 161.876,72.676 161.876,71.676" style="fill:none;stroke-width:0.050000mm;stroke:blue"/>
<polygon points="128.825,71.676 128.825,72.676 128.025,72.676 128.025,75.775 128.825,75.775 128.825,81.576 128.025,81.576 128.025,84.676 128.825,84.676 128.825,85.676 142.826,85.676 142.826,84.676 143.626,84.676 143.626,81.576 142.826,81.576 142.826,75.775 143.626,75.775 143.626,72.676 142.826,72.676 142.826,71.676" style="fill:none;stroke-width:0.050000mm;stroke:blue"/>
<polygon points="109.775,71.676 109.775,72.676 108.976,72.676 108.976,75.775 109.775,75.775 109.775,81.576 108.976,81.576 108.976,84.676 109.775,84.676 109.775,85.676 123.775,85.676 123.775,84.676 124.575,84.676 124.575,81.576 123.775,81.576 123.775,75.775 124.575,75.775 124.575,72.676 123.775,72.676 123.775,71.676" style="fill:none;stroke-width:0.050000mm;stroke:blue"/>
<polygon points="90.726,71.676 90.726,72.676 89.926,72.676 89.926,75.775 90.726,75.775 90.726,81.576 89.926,81.576 89.926,84.676 90.726,84.676 90.726,85.676 104.726,85.676 104.726,84.676 105.525,84.676 105.525,81.576 104.726,81.576 104.726,75.775 105.525,75.775 105.525,72.676 104.726,72.676 104.726,71.676" style="fill:none;stroke-width:0.050000mm;stroke:blue"/>
<polygon points="71.676,71.676 71.676,72.676 70.876,72.676 70.876,75.775 71.676,75.775 71.676,81.576 70.876,81.576 70.876,84.676 71.676,84.676 71.676,85.676 85.676,85.676 85.676,84.676 86.476,84.676 86.476,81.576 85.676,81.576 85.676,75.775 86.476,75.775 86.476,72.676 85.676,72.676 85.676,71.676" style="fill:none;stroke-width:0.050000mm;stroke:blue"/>
<polygon points="52.626,71.676 52.626,72.676 51.826,72.676 51.826,75.775 52.626,75.775 52.626,81.576 51.826,81.576 51.826,84.676 52.626,84.676 52.626,85.676 66.626,85.676 66.626,84.676 67.426,84.676 67.426,81.576 66.626,81.576 66.626,75.775 67.426,75.775 67.426,72.676 66.626,72.676 66.626,71.676" style="fill:none;stroke-width:0.050000mm;stroke:blue"/>
<polygon points="269.319,52.626 269.319,53.626 268.519,53.626 268.519,56.726 269.319,56.726 269.319,57.326 267.794,57.326 267.794,54.096 266.069,54.096 266.069,53.176 262.769,53.176 262.769,54.096 261.044,54.096 261.044,57.326 260.219,57.326 260.219,60.126 261.044,60.126 261.044,66.396 262.769,66.396 262.769,67.376 266.069,67.376 266.069,66.396 267.794,66.396 267.794,61.926 269.319,61.926 269.319,62.526 268.519,62.526 268.519,65.626 269.319,65.626 269.319,66.626 283.319,66.626 283.319,65.626 284.119,65.626 284.119,62.526 283.319,62.526 283.319,61.926 284.844,61.926 284.844,66.396 286.569,66.396 286.569,67.376 289.869,67.376 289.869,66.396 291.594,66.396 291.594,60.126 292.419,60.126 292.419,57.326 291.594,57.326 291.594,54.096 289.869,54.096 289.869,53.176 286.569,53.176 286.569,54.096 284.844,54.096 284.844,57.326 283.319,57.326 283.319,56.726 284.119,56.726 284.119,53.626 283.319,53.626 283.319,52.626" style="fill:none;stroke-width:0.050000mm;stroke:blue"/>
<polygon points="238.363,52.626 238.363,53.626 237.563,53.626 237.563,56.726 238.363,56.726 238.363,62.526 237.563,62.526 237.563,65.626 238.363,65.626 238.363,66.626 252.363,66.626 252.363,65.626 253.163,65.626 253.163,62.526 252.363,62.526 252.363,56.726 253.163,56.726 253.163,53.626 252.363,53.626 252.363,52.626" style="fill:none;stroke-width:0.050000mm;stroke:blue"/>
<polygon points="219.313,52.626 219.313,53.626 218.513,53.626 218.513,56.726 219.313,56.726 219.313,62.526 218.513,62.526 218.513,65.626 219.313,65.626 219.313,66.626 233.313,66.626 233.313,65.626 234.113,65.626 234.113,62.526 233.313,62.526 233.313,56.726 234.113,56.726 234.113,53.626 233.313,53.626 233.313,52.626" style="fill:none;stroke-width:0.050000mm;stroke:blue"/>
<polygon points="200.263,52.626 200.263,53.626 199.463,53.626 199.463,56.726 200.263,56.726 200.263,62.526 199.463,62.526 199.463,65.626 200.263,65.626 200.263,66.626 214.263,66.626 214.263,65.626 215.063,65.626 215.063,62.526 214.263,62.526 214.263,56.726 215.063,56.726 215.063,53.626 214.263,53.626 214.263,52.626" style="fill:none;stroke-width:0.050000mm;stroke:blue"/>
<polygon points="181.213,52.626 181.213,53.626 180.413,53.626 180.413,56.726 181.213,56.726 181.213,62.526 180.413,62.526 180.413,65.626 181.213,65.626 181.213,66.626 195.213,66.626 195.213,65.626 196.013,65.626 196.013,62.526 195.213,62.526 195.213,56.726 196.013,56.726 196.013,53.626 195.213,53.626 195.213,52.626" style="fill:none;stroke-width:0.050000mm;stroke:blue"/>
<polygon points="162.163,52.626 162.163,53.626 161.363,53.626 161.363,56.726 162.163,56.726 162.163,62.526 161.363,62.526 161.363,65.626 162.163,65.626 162.163,66.626 176.163,66.626 176.163,65.626 176.963,65.626 176.963,62.526 176.163,62.526 176.163,56.726 176.963,56.726 176.963,53.626 176.163,53.626 176.163,52.626" style="fill:none;stroke-width:0.050000mm;stroke:blue"/>
<polygon points="143.113,52.626 143.113,53.626 142.313,53.626 142.313,56.726 143.113,56.726 143.113,62.526 142.313,62.526 142.313,65.626 143.113,65.626 143.113,66.626 157.113,66.626 157.113,65.626 157.913,65.626 157.913,62.526 157.113,62.526 157.113,56.726 157.913,56.726 157.913,53.626 157.113,53.626 157.113,52.626" style="fill:none;stroke-width:0.050000mm;stroke:blue"/>
<polygon points="124.063,52.626 124.063,53.626 123.263,53.626 123.263,56.726 124.063,56.726 124.063,62.526 123.263,62.526 123.263,65.626 124.063,65.626 124.063,66.626 138.063,66.626 138.063,65.626 138.863,65.626 138.863,62.526 138.063,62.526 138.063,56.726 138.863,56.726 138.863,53.626 138.063,53.626 138.063,52.626" style="fill:none;stroke-width:0.050000mm;stroke:blue"/>
<polygon points="105.013,52.626 105.013,53.626 104.213,53.626 104.213,56.726 105.013,56.726 105.013,62.526 104.213,62.526 104.213,65.626 105.013,65.626 105.013,66.626 119.013,66.626 119.013,65.626 119.813,65.626 119.813,62.526 119.013,62.526 119.013,56.726 119.813,56.726 119.813,53.626 119.013,53.626 119.013,52.626" style="fill:none;stroke-width:0.050000mm;stroke:blue"/>
<polygon points="85.963,52.626 85.963,53.626 85.163,53.626 85.163,56.726 85.963,56.726 85.963,62.526 85.163,62.526 85.163,65.626 85.963,65.626 85.963,66.626 99.963,66.626 99.963,65.626 100.763,65.626 100.763,62.526 99.963,62.526 99.963,56.726 100.763,56.726 100.763,53.626 99.963,53.626 99.963,52.626" style="fill:none;stroke-width:0.050000mm;stroke:blue"/>
<polygon points="66.913,52.626 66.913,53.626 66.113,53.626 66.113,56.726 66.913,56.726 66.913,62.526 66.113,62.526 66.113,65.626 66.913,65.626 66.913,66.626 80.913,66.626 80.913,65.626 81.713,65.626 81.713,62.526 80.913,62.526 80.913,56.726 81.713,56.726 81.713,53.626 80.913,53.626 80.913,52.626" style="fill:none;stroke-width:0.050000mm;stroke:blue"/>
<polygon points="47.863,52.626 47.863,53.626 47.063,53.626 47.063,56.726 47.863,56.726 47.863,62.526 47.063,62.526 47.063,65.626 47.863,65.626 47.863,66.626 61.863,66.626 61.863,65.626 62.663,65.626 62.663,62.526 61.863,62.526 61.863,56.726 62.663,56.726 62.663,53.626 61.863,53.626 61.863,52.626" style="fill:none;stroke-width:0.050000mm;stroke:blue"/>
<polygon points="21.669,52.626 21.669,53.626 20.869,53.626 20.869,56.726 21.669,56.726 21.669,62.526 20.869,62.526 20.869,65.626 21.669,65.626 21.669,66.626 35.669,66.626 35.669,65.626 36.469,65.626 36.469,62.526 35.669,62.526 35.669,56.726 36.469,56.726 36.469,53.626 35.669,53.626 35.669,52.626" style="fill:none;stroke-width:0.050000mm;stroke:blue"/>
<polygon points="276.463,33.576 276.463,34.576 275.663,34.576 275.663,37.676 276.463,37.676 276.463,43.476 275.663,43.476 275.663,46.576 276.463,46.576 276.463,47.576 290.463,47.576 290.463,46.576 291.263,46.576 291.263,43.476 290.463,43.476 290.463,37.676 291.263,37.676 291.263,34.576 290.463,34.576 290.463,33.576" style="fill:none;stroke-width:0.050000mm;stroke:blue"/>
<polygon points="252.651,33.576 252.651,34.576 251.851,34.576 251.851,37.676 252.651,37.676 252.651,43.476 251.851,43.476 251.851,46.576 252.651,46.576 252.651,47.576 266.651,47.576 266.651,46.576 267.451,46.576 267.451,43.476 266.651,43.476 266.651,37.676 267.451,37.676 267.451,34.576 266.651,34.576 266.651,33.576" style="fill:none;stroke-width:0.050000mm;stroke:blue"/>
<polygon points="233.601,33.576 233.601,34.576 232.801,34.576 232.801,37.676 233.601,37.676 233.601,43.476 232.801,43.476 232.801,46.576 233.601,46.576 233.601,47.576 247.601,47.576 247.601,46.576 248.401,46.576 248.401,43.476 247.601,43.476 247.601,37.676 248.401,37.676 248.401,34.576 247.601,34.576 247.601,33.576" style="fill:none;stroke-width:0.050000mm;stroke:blue"/>
<polygon points="214.551,33.576 214.551,34.576 213.751,34.576 213.751,37.676 214.551,37.676 214.551,43.476 213.751,43.476 213.751,46.576 214.551,46.576 214.551,47.576 228.551,47.576 228.551,46.576 229.351,46.576 229.351,43.476 228.551,43.476 228.551,37.676 229.351,37.676 229.351,34.576 228.551,34.576 228.551,33.576" style="fill:none;stroke-width:0.050000mm;stroke:blue"/>
<polygon points="195.501,33.576 195.501,34.576 194.701,34.576 194.701,37.676 195.501,37.676 195.501,43.476 194.701,43.476 194.701,46.576 195.501,46.576 195.501,47.576 209.501,47.576 209.501,46.576 210.301,46.576 210.301,43.476 209.501,43.476 209.501,37.676 210.301,37.676 210.301,34.576 209.501,34.576 209.501,33.576" style="fill:none;stroke-width:0.050000mm;stroke:blue"/>
<polygon points="176.451,33.576 176.451,34.576 175.651,34.576 175.651,37.676 176.451,37.676 176.451,43.476 175.651,43.476 175.651,46.576 176.451,46.576 176.451,47.576 190.451,47.576 190.451,46.576 191.251,46.576 191.251,43.476 190.451,43.476 190.451,37.676 191.251,37.676 191.251,34.576 190.451,34.576 190.451,33.576" style="fill:none;stroke-width:0.050000mm;stroke:blue"/>
<polygon points="157.401,33.576 157.401,34.576 156.601,34.576 156.601,37.676 157.401,37.676 157.401,43.476 156.601,43.476 156.601,46.576 157.401,46.576 157.401,47.576 171.401,47.576 171.401,46.576 172.201,46.576 172.201,43.476 171.401,43.476 171.401,37.676 172.201,37.676 172.201,34.576 171.401,34.576 171.401,33.576" style="fill:none;stroke-width:0.050000mm;stroke:blue"/>
<polygon points="138.351,33.576 138.351,34.576 137.550,34.576 137.550,37.676 138.351,37.676 138.351,43.476 137.550,43.476 137.550,46.576 138.351,46.576 138.351,47.576 152.351,47.576 152.351,46.576 153.151,46.576 153.151,43.476 152.351,43.476 152.351,37.676 153.151,37.676 153.151,34.576 152.351,34.576 152.351,33.576" style="fill:none;stroke-width:0.050000mm;stroke:blue"/>
<polygon points="119.301,33.576 119.301,34.576 118.501,34.576 118.501,37.676 119.301,37.676 119.301,43.476 118.501,43.476 118.501,46.576 119.301,46.576 119.301,47.576 133.301,47.576 133.301,46.576 134.101,46.576 134.101,43.476 133.301,43.476 133.301,37.676 134.101,37.676 134.101,34.576 133.301,34.576 133.301,33.576" style="fill:none;stroke-width:0.050000mm;stroke:blue"/>
<polygon points="100.251,33.576 100.251,34.576 99.451,34.576 99.451,37.676 100.251,37.676 100.251,43.476 99.451,43.476 99.451,46.576 100.251,46.576 100.251,47.576 114.251,47.576 114.251,46.576 115.051,46.576 115.051,43.476 114.251,43.476 114.251,37.676 115.051,37.676 115.051,34.576 114.251,34.576 114.251,33.576" style="fill:none;stroke-width:0.050000mm;stroke:blue"/>
<polygon points="81.201,33.576 81.201,34.576 80.401,34.576 80.401,37.676 81.201,37.676 81.201,43.476 80.401,43.476 80.401,46.576 81.201,46.576 81.201,47.576 95.201,47.576 95.201,46.576 96.001,46.576 96.001,43.476 95.201,43.476 95.201,37.676 96.001,37.676 96.001,34.576 95.201,34.576 95.201,33.576" style="fill:none;stroke-width:0.050000mm;stroke:blue"/>
<polygon points="62.151,33.576 62.151,34.576 61.351,34.576 61.351,37.676 62.151,37.676 62.151,43.476 61.351,43.476 61.351,46.576 62.151,46.576 62.151,47.576 76.151,47.576 76.151,46.576 76.951,46.576 76.951,43.476 76.151,43.476 76.151,37.676 76.951,37.676 76.951,34.576 76.151,34.576 76.151,33.576" style="fill:none;stroke-width:0.050000mm;stroke:blue"/>
<polygon points="43.101,33.576 43.101,34.576 42.301,34.576 42.301,37.676 43.101,37.676 43.101,43.476 42.301,43.476 42.301,46.576 43.101,46.576 43.101,47.576 57.101,47.576 57.101,46.576 57.901,46.576 57.901,43.476 57.101,43.476 57.101,37.676 57.901,37.676 57.901,34.576 57.101,34.576 57.101,33.576" style="fill:none;stroke-width:0.050000mm;stroke:blue"/>
<polygon points="19.288,33.576 19.288,34.576 18.488,34.576 18.488,37.676 19.288,37.676 19.288,43.476 18.488,43.476 18.488,46.576 19.288,46.576 19.288,47.576 33.288,47.576 33.288,46.576 34.088,46.576 34.088,43.476 33.288,43.476 33.288,37.676 34.088,37.676 34.088,34.576 33.288,34.576 33.288,33.576" style="fill:none;stroke-width:0.050000mm;stroke:blue"/>
<polygon points="271.701,14.525 271.701,15.525 270.901,15.525 270.901,18.626 271.701,18.626 271.701,19.225 270.176,19.225 270.176,15.995 268.451,15.995 268.451,15.076 265.151,15.076 265.151,15.995 263.426,15.995 263.426,19.225 262.601,19.225 262.601,22.026 263.426,22.026 263.426,28.295 265.151,28.295 265.151,29.276 268.451,29.276 268.451,28.295 270.176,28.295 270.176,23.826 271.701,23.826 271.701,24.425 270.901,24.425 270.901,27.526 271.701,27.526 271.701,28.526 285.701,28.526 285.701,27.526 286.501,27.526 286.501,24.425 285.701,24.425 285.701,23.826 287.226,23.826 287.226,28.295 288.951,28.295 288.951,29.276 292.251,29.276 292.251,28.295 293.976,28.295 293.976,22.026 294.801,22.026 294.801,19.225 293.976,19.225 293.976,15.995 292.251,15.995 292.251,15.076 288.951,15.076 288.951,15.995 287.226,15.995 287.226,19.225 285.701,19.225 285.701,18.626 286.501,18.626 286.501,15.525 285.701,15.525 285.701,14.525" style="fill:none;stroke-width:0.050000mm;stroke:blue"/>
<polygon points="243.126,14.525 243.126,15.525 242.326,15.525 242.326,18.626 243.126,18.626 243.126,24.425 242.326,24.425 242.326,27.526 243.126,27.526 243.126,28.526 257.126,28.526 257.126,27.526 257.926,27.526 257.926,24.425 257.126,24.425 257.126,18.626 257.926,18.626 257.926,15.525 257.126,15.525 257.126,14.525" style="fill:none;stroke-width:0.050000mm;stroke:blue"/>
<polygon points="224.076,14.525 224.076,15.525 223.276,15.525 223.276,18.626 224.076,18.626 224.076,24.425 223.276,24.425 223.276,27.526 224.076,27.526 224.076,28.526 238.076,28.526 238.076,27.526 238.876,27.526 238.876,24.425 238.076,24.425 238.076,18.626 238.876,18.626 238.876,15.525 238.076,15.525 238.076,14.525" style="fill:none;stroke-width:0.050000mm;stroke:blue"/>
<polygon points="205.026,14.525 205.026,15.525 204.226,15.525 204.226,18.626 205.026,18.626 205.026,24.425 204.226,24.425 204.226,27.526 205.026,27.526 205.026,28.526 219.026,28.526 219.026,27.526 219.826,27.526 219.826,24.425 219.026,24.425 219.026,18.626 219.826,18.626 219.826,15.525 219.026,15.525 219.026,14.525" style="fill:none;stroke-width:0.050000mm;stroke:blue"/>
<polygon points="185.976,14.525 185.976,15.525 185.176,15.525 185.176,18.626 185.976,18.626 185.976,24.425 185.176,24.425 185.176,27.526 185.976,27.526 185.976,28.526 199.976,28.526 199.976,27.526 200.776,27.526 200.776,24.425 199.976,24.425 199.976,18.626 200.776,18.626 200.776,15.525 199.976,15.525 199.976,14.525" style="fill:none;stroke-width:0.050000mm;stroke:blue"/>
<polygon points="166.926,14.525 166.926,15.525 166.126,15.525 166.126,18.626 166.926,18.626 166.926,24.425 166.126,24.425 166.126,27.526 166.926,27.526 166.926,28.526 180.926,28.526 180.926,27.526 181.726,27.526 181.726,24.425 180.926,24.425 180.926,18.626 181.726,18.626 181.726,15.525 180.926,15.525 180.926,14.525" style="fill:none;stroke-width:0.050000mm;stroke:blue"/>
<polygon points="147.876,14.525 147.876,15.525 147.076,15.525 147.076,18.626 147.876,18.626 147.876,24.425 147.076,24.425 147.076,27.526 147.876,27.526 147.876,28.526 161.876,28.526 161.876,27.526 162.676,27.526 162.676,24.425 161.876,24.425 161.876,18.626 162.676,18.626 162.676,15.525 161.876,15.525 161.876,14.525" style="fill:none;stroke-width:0.050000mm;stroke:blue"/>
<polygon points="128.825,14.525 128.825,15.525 128.025,15.525 128.025,18.626 128.825,18.626 128.825,24.425 128.025,24.425 128.025,27.526 128.825,27.526 128.825,28.526 142.826,28.526 142.826,27.526 143.626,27.526 143.626,24.425 142.826,24.425 142.826,18.626 143.626,18.626 143.626,15.525 142.826,15.525 142.826,14.525" style="fill:none;stroke-width:0.050000mm;stroke:blue"/>
<polygon points="109.775,14.525 109.775,15.525 108.976,15.525 108.976,18.626 109.775,18.626 109.775,24.425 108.976,24.425 108.976,27.526 109.775,27.526 109.775,28.526 123.775,28.526 123.775,27.526 124.575,27.526 124.575,24.425 123.775,24.425 123.775,18.626 124.575,18.626 124.575,15.525 123.775,15.525 123.775,14.525" style="fill:none;stroke-width:0.050000mm;stroke:blue"/>
<polygon points="90.726,14.525 90.726,15.525 89.926,15.525 89.926,18.626 90.726,18.626 90.726,24.425 89.926,24.425 89.926,27.526 90.726,27.526 90.726,28.526 104.726,28.526 104.726,27.526 105.525,27.526 105.525,24.425 104.726,24.425 104.726,18.626 105.525,18.626 105.525,15.525 104.726,15.525 104.726,14.525" style="fill:none;stroke-width:0.050000mm;stroke:blue"/>
<polygon points="71.676,14.525 71.676,15.525 70.876,15.525 70.876,18.626 71.676,18.626 71.676,24.425 70.876,24.425 70.876,27.526 71.676,27.526 71.676,28.526 85.676,28.526 85.676,27.526 86.476,27.526 86.476,24.425 85.676,24.425 85.676,18.626 86.476,18.626 86.476,15.525 85.676,15.525 85.676,14.525" style="fill:none;stroke-width:0.050000mm;stroke:blue"/>
<polygon points="52.626,14.525 52.626,15.525 51.826,15.525 51.826,18.626 52.626,18.626 52.626,24.425 51.826,24.425 51.826,27.526 52.626,27.526 52.626,28.526 66.626,28.526 66.626,27.526 67.426,27.526 67.426,24.425 66.626,24.425 66.626,18.626 67.426,18.626 67.426,15.525 66.626,15.525 66.626,14.525" style="fill:none;stroke-width:0.050000mm;stroke:blue"/>
<polygon points="33.576,14.525 33.576,15.525 32.776,15.525 32.776,18.626 33.576,18.626 33.576,24.425 32.776,24.425 32.776,27.526 33.576,27.526 33.576,28.526 47.576,28.526 47.576,27.526 48.376,27.526 48.376,24.425 47.576,24.425 47.576,18.626 48.376,18.626 48.376,15.525 47.576,15.525 47.576,14.525" style="fill:none;stroke-width:0.050000mm;stroke:blue"/>
<polygon points="14.525,14.525 14.525,15.525 13.725,15.525 13.725,18.626 14.525,18.626 14.525,24.425 13.725,24.425 13.725,27.526 14.525,27.526 14.525,28.526 28.526,28.526 28.526,27.526 29.326,27.526 29.326,24.425 28.526,24.425 28.526,18.626 29.326,18.626 29.326,15.525 28.526,15.525 28.526,14.525" style="fill:none;stroke-width:0.050000mm;stroke:blue"/>
<polygon points="8.022,7.026 7.589,7.247 7.247,7.589 7.026,8.022 6.950,8.501 7.026,8.979 7.247,9.412 7.589,9.754 8.022,9.975 8.500,10.051 8.979,9.975 9.412,9.754 9.754,9.412 9.975,8.979 10.050,8.501 9.975,8.022 9.754,7.589 9.412,7.247 8.979,7.026 8.500,6.951" style="fill:none;stroke-width:0.050000mm;stroke:blue"/>
<polygon points="338.773,7.026 338.340,7.247 337.998,7.589 337.777,8.022 337.702,8.501 337.777,8.979 337.998,9.412 338.340,9.754 338.773,9.975 339.252,10.051 339.730,9.975 340.163,9.754 340.505,9.412 340.726,8.979 340.802,8.501 340.726,8.022 340.505,7.589 340.163,7.247 339.730,7.026 339.252,6.951" style="fill:none;stroke-width:0.050000mm;stroke:blue"/>
<polygon points="256.085,7.026 255.653,7.247 255.310,7.589 255.090,8.022 255.014,8.501 255.090,8.979 255.310,9.412 255.653,9.754 256.085,9.975 256.564,10.051 257.042,9.975 257.475,9.754 257.818,9.412 258.037,8.979 258.114,8.501 258.037,8.022 257.818,7.589 257.475,7.247 257.042,7.026 256.564,6.951" style="fill:none;stroke-width:0.050000mm;stroke:blue"/>
<polygon points="173.397,7.026 172.965,7.247 172.622,7.589 172.402,8.022 172.326,8.501 172.402,8.979 172.622,9.412 172.965,9.754 173.397,9.975 173.876,10.051 174.355,9.975 174.787,9.754 175.130,9.412 175.350,8.979 175.426,8.501 175.350,8.022 175.130,7.589 174.787,7.247 174.355,7.026 173.876,6.951" style="fill:none;stroke-width:0.050000mm;stroke:blue"/>
<polygon points="90.709,7.026 90.277,7.247 89.934,7.589 89.714,8.022 89.638,8.501 89.714,8.979 89.934,9.412 90.277,9.754 90.709,9.975 91.188,10.051 91.667,9.975 92.099,9.754 92.442,9.412 92.662,8.979 92.738,8.501 92.662,8.022 92.442,7.589 92.099,7.247 91.667,7.026 91.188,6.951" style="fill:none;stroke-width:0.050000mm;stroke:blue"/>
</svg>
