<?xml version="1.0"?>
<!-- Generated by SVGo -->
<svg width="347.752mm" height="119.252mm"
     viewBox="0.000 0.000 347.752 119.252"
     xmlns="http://www.w3.org/2000/svg" 
     xmlns:xlink="http://www.w3.org/1999/xlink">
<polygon points="341.752,5.001 341.830,5.004 341.908,5.013 341.985,5.028 342.061,5.049 342.134,5.077 342.205,5.109 342.274,5.148 342.339,5.191 342.401,5.240 342.459,5.293 342.512,5.351 342.561,5.413 342.604,5.478 342.643,5.547 342.675,5.618 342.703,5.691 342.724,5.767 342.739,5.844 342.748,5.922 342.752,6.001 342.752,113.251 342.748,113.330 342.739,113.408 342.724,113.485 342.703,113.561 342.675,113.634 342.643,113.705 342.604,113.774 342.561,113.839 342.512,113.901 342.459,113.959 342.401,114.012 342.339,114.061 342.274,114.104 342.205,114.143 342.134,114.175 342.061,114.203 341.985,114.224 341.908,114.239 341.830,114.248 341.752,114.252 6.001,114.251 5.922,114.248 5.844,114.239 5.767,114.224 5.691,114.203 5.618,114.175 5.547,114.143 5.478,114.104 5.413,114.061 5.351,114.012 5.293,113.959 5.240,113.901 5.191,113.839 5.148,113.774 5.109,113.705 5.077,113.634 5.049,113.561 5.028,113.485 5.013,113.408 5.004,113.330 5.000,113.251 5.001,6.001 5.004,5.922 5.013,5.844 5.028,5.767 5.049,5.691 5.077,5.618 5.109,5.547 5.148,5.478 5.191,5.413 5.240,5.351 5.293,5.293 5.351,5.240 5.413,5.191 5.478,5.148 5.547,5.109 5.618,5.077 5.691,5.049 5.767,5.028 5.844,5.013 5.922,5.004 6.001,5.000" style="fill:none;stroke-width:0.050000mm;stroke:blue"/>
<polygon points="8.022,109.277 7.589,109.498 7.247,109.840 7.026,110.273 6.950,110.752 7.026,111.230 7.247,111.663 7.589,112.005 8.022,112.226 8.500,112.302 8.979,112.226 9.412,112.005 9.754,111.663 9.975,111.230 10.050,110.752 9.975,110.273 9.754,109.840 9.412,109.498 8.979,109.277 8.500,109.202" style="fill:none;stroke-width:0.050000mm;stroke:blue"/>
<polygon points="90.709,109.277 90.277,109.498 89.934,109.840 89.714,110.273 89.638,110.752 89.714,111.230 89.934,111.663 90.277,112.005 90.709,112.226 91.188,112.302 91.667,112.226 92.099,112.005 92.442,111.663 92.662,111.230 92.738,110.752 92.662,110.273 92.442,109.840 92.099,109.498 91.667,109.277 91.188,109.202" style="fill:none;stroke-width:0.050000mm;stroke:blue"/>
<polygon points="173.397,109.277 172.965,109.498 172.622,109.840 172.402,110.273 172.326,110.752 172.402,111.230 172.622,111.663 172.965,112.005 173.397,112.226 173.876,112.302 174.355,112.226 174.787,112.005 175.130,111.663 175.350,111.230 175.426,110.752 175.350,110.273 175.130,109.840 174.787,109.498 174.355,109.277 173.876,109.202" style="fill:none;stroke-width:0.050000mm;stroke:blue"/>
<polygon points="256.085,109.277 255.653,109.498 255.310,109.840 255.090,110.273 255.014,110.752 255.090,111.230 255.310,111.663 255.653,112.005 256.085,112.226 256.564,112.302 257.042,112.226 257.475,112.005 257.818,111.663 258.037,111.230 258.114,110.752 258.037,110.273 257.818,109.840 257.475,109.498 257.042,109.277 256.564,109.202" style="fill:none;stroke-width:0.050000mm;stroke:blue"/>
<polygon points="338.773,109.277 338.340,109.498 337.998,109.840 337.777,110.273 337.702,110.752 337.777,111.230 337.998,111.663 338.340,112.005 338.773,112.226 339.252,112.302 339.730,112.226 340.163,112.005 340.505,111.663 340.726,111.230 340.802,110.752 340.726,110.273 340.505,109.840 340.163,109.498 339.730,109.277 339.252,109.202" style="fill:none;stroke-width:0.050000mm;stroke:blue"/>
<polygon points="8.022,7.026 7.589,7.247 7.247,7.589 7.026,8.022 6.950,8.501 7.026,8.979 7.247,9.412 7.589,9.754 8.022,9.975 8.500,10.051 8.979,9.975 9.412,9.754 9.754,9.412 9.975,8.979 10.050,8.501 9.975,8.022 9.754,7.589 9.412,7.247 8.979,7.026 8.500,6.951" style="fill:none;stroke-width:0.050000mm;stroke:blue"/>
<polygon points="338.773,7.026 338.340,7.247 337.998,7.589 337.777,8.022 337.702,8.501 337.777,8.979 337.998,9.412 338.340,9.754 338.773,9.975 339.252,10.051 339.730,9.975 340.163,9.754 340.505,9.412 340.726,8.979 340.802,8.501 340.726,8.022 340.505,7.589 340.163,7.247 339.730,7.026 339.252,6.951" style="fill:none;stroke-width:0.050000mm;stroke:blue"/>
<polygon points="256.085,7.026 255.653,7.247 255.310,7.589 255.090,8.022 255.014,8.501 255.090,8.979 255.310,9.412 255.653,9.754 256.085,9.975 256.564,10.051 257.042,9.975 257.475,9.754 257.818,9.412 258.037,8.979 258.114,8.501 258.037,8.022 257.818,7.589 257.475,7.247 257.042,7.026 256.564,6.951" style="fill:none;stroke-width:0.050000mm;stroke:blue"/>
<polygon points="173.397,7.026 172.965,7.247 172.622,7.589 172.402,8.022 172.326,8.501 172.402,8.979 172.622,9.412 172.965,9.754 173.397,9.975 173.876,10.051 174.355,9.975 174.787,9.754 175.130,9.412 175.350,8.979 175.426,8.501 175.350,8.022 175.130,7.589 174.787,7.247 174.355,7.026 173.876,6.951" style="fill:none;stroke-width:0.050000mm;stroke:blue"/>
<polygon points="90.709,7.026 90.277,7.247 89.934,7.589 89.714,8.022 89.638,8.501 89.714,8.979 89.934,9.412 90.277,9.754 90.709,9.975 91.188,10.051 91.667,9.975 92.099,9.754 92.442,9.412 92.662,8.979 92.738,8.501 92.662,8.022 92.442,7.589 92.099,7.247 91.667,7.026 91.188,6.951" style="fill:none;stroke-width:0.050000mm;stroke:blue"/>
</svg>
