<?xml version="1.0"?>
<!-- Generated by SVGo -->
<svg width="347.902mm" height="119.402mm"
     viewBox="0.000 0.000 347.902 119.402"
     xmlns="http://www.w3.org/2000/svg" 
     xmlns:xlink="http://www.w3.org/1999/xlink">
<polygon points="341.902,5.001 341.980,5.004 342.058,5.013 342.135,5.028 342.211,5.049 342.284,5.077 342.355,5.109 342.424,5.148 342.489,5.191 342.551,5.240 342.609,5.293 342.662,5.351 342.711,5.413 342.754,5.478 342.793,5.547 342.825,5.618 342.853,5.691 342.874,5.767 342.889,5.844 342.898,5.922 342.902,6.001 342.902,113.402 342.898,113.480 342.889,113.558 342.874,113.635 342.853,113.711 342.825,113.784 342.793,113.855 342.754,113.924 342.711,113.989 342.662,114.051 342.609,114.109 342.551,114.162 342.489,114.211 342.424,114.254 342.355,114.293 342.284,114.325 342.211,114.353 342.135,114.374 342.058,114.389 341.980,114.398 341.902,114.402 6.001,114.402 5.922,114.398 5.844,114.389 5.767,114.374 5.691,114.353 5.618,114.325 5.547,114.293 5.478,114.254 5.413,114.211 5.351,114.162 5.293,114.109 5.240,114.051 5.191,113.989 5.148,113.924 5.109,113.855 5.077,113.784 5.049,113.711 5.028,113.635 5.013,113.558 5.004,113.480 5.000,113.401 5.001,6.001 5.004,5.922 5.013,5.844 5.028,5.767 5.049,5.691 5.077,5.618 5.109,5.547 5.148,5.478 5.191,5.413 5.240,5.351 5.293,5.293 5.351,5.240 5.413,5.191 5.478,5.148 5.547,5.109 5.618,5.077 5.691,5.049 5.767,5.028 5.844,5.013 5.922,5.004 6.001,5.000" style="fill:none;stroke-width:0.050000mm;stroke:black"/>
<polygon points="8.120,109.424 7.709,109.633 7.382,109.960 7.173,110.371 7.101,110.827 7.173,111.282 7.382,111.693 7.709,112.020 8.120,112.229 8.576,112.301 9.031,112.229 9.442,112.020 9.769,111.693 9.978,111.282 10.051,110.827 9.978,110.371 9.769,109.960 9.442,109.633 9.031,109.424 8.576,109.352" style="fill:none;stroke-width:0.050000mm;stroke:black"/>
<polygon points="90.807,109.424 90.396,109.633 90.070,109.960 89.860,110.371 89.788,110.827 89.860,111.282 90.070,111.693 90.396,112.020 90.807,112.229 91.263,112.301 91.719,112.229 92.130,112.020 92.457,111.693 92.666,111.282 92.738,110.827 92.666,110.371 92.457,109.960 92.130,109.633 91.719,109.424 91.263,109.352" style="fill:none;stroke-width:0.050000mm;stroke:black"/>
<polygon points="173.495,109.424 173.084,109.633 172.758,109.960 172.548,110.371 172.476,110.827 172.548,111.282 172.758,111.693 173.084,112.020 173.495,112.229 173.951,112.301 174.407,112.229 174.818,112.020 175.144,111.693 175.354,111.282 175.426,110.827 175.354,110.371 175.144,109.960 174.818,109.633 174.407,109.424 173.951,109.352" style="fill:none;stroke-width:0.050000mm;stroke:black"/>
<polygon points="256.183,109.424 255.772,109.633 255.445,109.960 255.236,110.371 255.164,110.827 255.236,111.282 255.445,111.693 255.772,112.020 256.183,112.229 256.638,112.301 257.095,112.229 257.506,112.020 257.832,111.693 258.042,111.282 258.114,110.827 258.042,110.371 257.832,109.960 257.506,109.633 257.095,109.424 256.638,109.352" style="fill:none;stroke-width:0.050000mm;stroke:black"/>
<polygon points="338.871,109.424 338.460,109.633 338.133,109.960 337.924,110.371 337.852,110.827 337.924,111.282 338.133,111.693 338.460,112.020 338.871,112.229 339.327,112.301 339.782,112.229 340.193,112.020 340.520,111.693 340.729,111.282 340.802,110.827 340.729,110.371 340.520,109.960 340.193,109.633 339.782,109.424 339.327,109.352" style="fill:none;stroke-width:0.050000mm;stroke:black"/>
<polygon points="8.120,7.173 7.709,7.382 7.382,7.709 7.173,8.120 7.101,8.576 7.173,9.031 7.382,9.442 7.709,9.769 8.120,9.978 8.576,10.051 9.031,9.978 9.442,9.769 9.769,9.442 9.978,9.031 10.051,8.576 9.978,8.120 9.769,7.709 9.442,7.382 9.031,7.173 8.576,7.101" style="fill:none;stroke-width:0.050000mm;stroke:black"/>
<polygon points="338.871,7.173 338.460,7.382 338.133,7.709 337.924,8.120 337.852,8.576 337.924,9.031 338.133,9.442 338.460,9.769 338.871,9.978 339.327,10.051 339.782,9.978 340.193,9.769 340.520,9.442 340.729,9.031 340.802,8.576 340.729,8.120 340.520,7.709 340.193,7.382 339.782,7.173 339.327,7.101" style="fill:none;stroke-width:0.050000mm;stroke:black"/>
<polygon points="256.183,7.173 255.772,7.382 255.445,7.709 255.236,8.120 255.164,8.576 255.236,9.031 255.445,9.442 255.772,9.769 256.183,9.978 256.638,10.051 257.095,9.978 257.506,9.769 257.832,9.442 258.042,9.031 258.114,8.576 258.042,8.120 257.832,7.709 257.506,7.382 257.095,7.173 256.638,7.101" style="fill:none;stroke-width:0.050000mm;stroke:black"/>
<polygon points="173.495,7.173 173.084,7.382 172.758,7.709 172.548,8.120 172.476,8.576 172.548,9.031 172.758,9.442 173.084,9.769 173.495,9.978 173.951,10.051 174.407,9.978 174.818,9.769 175.144,9.442 175.354,9.031 175.426,8.576 175.354,8.120 175.144,7.709 174.818,7.382 174.407,7.173 173.951,7.101" style="fill:none;stroke-width:0.050000mm;stroke:black"/>
<polygon points="90.807,7.173 90.396,7.382 90.070,7.709 89.860,8.120 89.788,8.576 89.860,9.031 90.070,9.442 90.396,9.769 90.807,9.978 91.263,10.051 91.719,9.978 92.130,9.769 92.457,9.442 92.666,9.031 92.738,8.576 92.666,8.120 92.457,7.709 92.130,7.382 91.719,7.173 91.263,7.101" style="fill:none;stroke-width:0.050000mm;stroke:black"/>
</svg>
