<?xml version="1.0"?>
<!-- Generated by SVGo -->
<svg width="347.902mm" height="119.402mm"
     viewBox="0.000 0.000 347.902 119.402"
     xmlns="http://www.w3.org/2000/svg" 
     xmlns:xlink="http://www.w3.org/1999/xlink">
<polygon points="341.902,5.001 341.980,5.004 342.058,5.013 342.135,5.028 342.211,5.049 342.284,5.077 342.355,5.109 342.424,5.148 342.489,5.191 342.551,5.240 342.609,5.293 342.662,5.351 342.711,5.413 342.754,5.478 342.793,5.547 342.825,5.618 342.853,5.691 342.874,5.767 342.889,5.844 342.898,5.922 342.902,6.001 342.902,113.402 342.898,113.480 342.889,113.558 342.874,113.635 342.853,113.711 342.825,113.784 342.793,113.855 342.754,113.924 342.711,113.989 342.662,114.051 342.609,114.109 342.551,114.162 342.489,114.211 342.424,114.254 342.355,114.293 342.284,114.325 342.211,114.353 342.135,114.374 342.058,114.389 341.980,114.398 341.902,114.402 6.001,114.402 5.922,114.398 5.844,114.389 5.767,114.374 5.691,114.353 5.618,114.325 5.547,114.293 5.478,114.254 5.413,114.211 5.351,114.162 5.293,114.109 5.240,114.051 5.191,113.989 5.148,113.924 5.109,113.855 5.077,113.784 5.049,113.711 5.028,113.635 5.013,113.558 5.004,113.480 5.000,113.401 5.001,6.001 5.004,5.922 5.013,5.844 5.028,5.767 5.049,5.691 5.077,5.618 5.109,5.547 5.148,5.478 5.191,5.413 5.240,5.351 5.293,5.293 5.351,5.240 5.413,5.191 5.478,5.148 5.547,5.109 5.618,5.077 5.691,5.049 5.767,5.028 5.844,5.013 5.922,5.004 6.001,5.000" style="fill:none;stroke-width:0.050000mm;stroke:black"/>
<polygon points="8.120,109.424 7.709,109.633 7.382,109.960 7.173,110.371 7.101,110.827 7.173,111.282 7.382,111.693 7.709,112.020 8.120,112.229 8.576,112.301 9.031,112.229 9.442,112.020 9.769,111.693 9.978,111.282 10.051,110.827 9.978,110.371 9.769,109.960 9.442,109.633 9.031,109.424 8.576,109.352" style="fill:none;stroke-width:0.050000mm;stroke:black"/>
<polygon points="90.807,109.424 90.396,109.633 90.070,109.960 89.860,110.371 89.788,110.827 89.860,111.282 90.070,111.693 90.396,112.020 90.807,112.229 91.263,112.301 91.719,112.229 92.130,112.020 92.457,111.693 92.666,111.282 92.738,110.827 92.666,110.371 92.457,109.960 92.130,109.633 91.719,109.424 91.263,109.352" style="fill:none;stroke-width:0.050000mm;stroke:black"/>
<polygon points="173.495,109.424 173.084,109.633 172.758,109.960 172.548,110.371 172.476,110.827 172.548,111.282 172.758,111.693 173.084,112.020 173.495,112.229 173.951,112.301 174.407,112.229 174.818,112.020 175.144,111.693 175.354,111.282 175.426,110.827 175.354,110.371 175.144,109.960 174.818,109.633 174.407,109.424 173.951,109.352" style="fill:none;stroke-width:0.050000mm;stroke:black"/>
<polygon points="256.183,109.424 255.772,109.633 255.445,109.960 255.236,110.371 255.164,110.827 255.236,111.282 255.445,111.693 255.772,112.020 256.183,112.229 256.638,112.301 257.095,112.229 257.506,112.020 257.832,111.693 258.042,111.282 258.114,110.827 258.042,110.371 257.832,109.960 257.506,109.633 257.095,109.424 256.638,109.352" style="fill:none;stroke-width:0.050000mm;stroke:black"/>
<polygon points="338.871,109.424 338.460,109.633 338.133,109.960 337.924,110.371 337.852,110.827 337.924,111.282 338.133,111.693 338.460,112.020 338.871,112.229 339.327,112.301 339.782,112.229 340.193,112.020 340.520,111.693 340.729,111.282 340.802,110.827 340.729,110.371 340.520,109.960 340.193,109.633 339.782,109.424 339.327,109.352" style="fill:none;stroke-width:0.050000mm;stroke:black"/>
<polygon points="136.119,90.876 136.119,91.876 135.319,91.876 135.319,94.826 136.119,94.826 136.119,95.576 96.344,95.576 96.344,92.346 94.619,92.346 94.619,91.426 91.469,91.426 91.469,92.346 89.744,92.346 89.744,95.576 88.919,95.576 88.919,98.226 89.744,98.226 89.744,104.495 91.469,104.495 91.469,105.476 94.619,105.476 94.619,104.495 96.344,104.495 96.344,100.025 136.119,100.025 136.119,100.775 135.319,100.775 135.319,103.726 136.119,103.726 136.119,104.726 149.969,104.726 149.969,103.726 150.769,103.726 150.769,100.775 149.969,100.775 149.969,100.025 189.744,100.025 189.744,104.495 191.469,104.495 191.469,105.476 194.619,105.476 194.619,104.495 196.344,104.495 196.344,98.226 197.169,98.226 197.169,95.576 196.344,95.576 196.344,92.346 194.619,92.346 194.619,91.426 191.469,91.426 191.469,92.346 189.744,92.346 189.744,95.576 149.969,95.576 149.969,94.826 150.769,94.826 150.769,91.876 149.969,91.876 149.969,90.876" style="fill:none;stroke-width:0.050000mm;stroke:black"/>
<polygon points="281.376,90.876 281.376,91.876 280.576,91.876 280.576,94.826 281.376,94.826 281.376,100.775 280.576,100.775 280.576,103.726 281.376,103.726 281.376,104.726 295.226,104.726 295.226,103.726 296.026,103.726 296.026,100.775 295.226,100.775 295.226,94.826 296.026,94.826 296.026,91.876 295.226,91.876 295.226,90.876" style="fill:none;stroke-width:0.050000mm;stroke:black"/>
<polygon points="262.326,90.876 262.326,91.876 261.525,91.876 261.525,94.826 262.326,94.826 262.326,100.775 261.525,100.775 261.525,103.726 262.326,103.726 262.326,104.726 276.176,104.726 276.176,103.726 276.976,103.726 276.976,100.775 276.176,100.775 276.176,94.826 276.976,94.826 276.976,91.876 276.176,91.876 276.176,90.876" style="fill:none;stroke-width:0.050000mm;stroke:black"/>
<polygon points="243.276,90.876 243.276,91.876 242.476,91.876 242.476,94.826 243.276,94.826 243.276,100.775 242.476,100.775 242.476,103.726 243.276,103.726 243.276,104.726 257.126,104.726 257.126,103.726 257.926,103.726 257.926,100.775 257.126,100.775 257.126,94.826 257.926,94.826 257.926,91.876 257.126,91.876 257.126,90.876" style="fill:none;stroke-width:0.050000mm;stroke:black"/>
<polygon points="224.226,90.876 224.226,91.876 223.426,91.876 223.426,94.826 224.226,94.826 224.226,100.775 223.426,100.775 223.426,103.726 224.226,103.726 224.226,104.726 238.076,104.726 238.076,103.726 238.876,103.726 238.876,100.775 238.076,100.775 238.076,94.826 238.876,94.826 238.876,91.876 238.076,91.876 238.076,90.876" style="fill:none;stroke-width:0.050000mm;stroke:black"/>
<polygon points="205.175,90.876 205.175,91.876 204.376,91.876 204.376,94.826 205.175,94.826 205.175,100.775 204.376,100.775 204.376,103.726 205.175,103.726 205.175,104.726 219.026,104.726 219.026,103.726 219.826,103.726 219.826,100.775 219.026,100.775 219.026,94.826 219.826,94.826 219.826,91.876 219.026,91.876 219.026,90.876" style="fill:none;stroke-width:0.050000mm;stroke:black"/>
<polygon points="64.682,90.876 64.682,91.876 63.882,91.876 63.882,94.826 64.682,94.826 64.682,100.775 63.882,100.775 63.882,103.726 64.682,103.726 64.682,104.726 78.532,104.726 78.532,103.726 79.332,103.726 79.332,100.775 78.532,100.775 78.532,94.826 79.332,94.826 79.332,91.876 78.532,91.876 78.532,90.876" style="fill:none;stroke-width:0.050000mm;stroke:black"/>
<polygon points="40.869,90.876 40.869,91.876 40.069,91.876 40.069,94.826 40.869,94.826 40.869,100.775 40.069,100.775 40.069,103.726 40.869,103.726 40.869,104.726 54.719,104.726 54.719,103.726 55.519,103.726 55.519,100.775 54.719,100.775 54.719,94.826 55.519,94.826 55.519,91.876 54.719,91.876 54.719,90.876" style="fill:none;stroke-width:0.050000mm;stroke:black"/>
<polygon points="17.057,90.876 17.057,91.876 16.257,91.876 16.257,94.826 17.057,94.826 17.057,100.775 16.257,100.775 16.257,103.726 17.057,103.726 17.057,104.726 30.907,104.726 30.907,103.726 31.707,103.726 31.707,100.775 30.907,100.775 30.907,94.826 31.707,94.826 31.707,91.876 30.907,91.876 30.907,90.876" style="fill:none;stroke-width:0.050000mm;stroke:black"/>
<polygon points="24.201,71.826 24.201,72.826 23.401,72.826 23.401,75.776 24.201,75.776 24.201,76.526 22.526,76.526 22.526,73.296 20.801,73.296 20.801,72.376 17.651,72.376 17.651,73.296 15.925,73.296 15.925,76.526 15.100,76.526 15.100,79.176 15.925,79.176 15.925,85.446 17.651,85.446 17.651,86.426 20.801,86.426 20.801,85.446 22.526,85.446 22.526,80.976 24.201,80.976 24.201,81.726 23.401,81.726 23.401,84.676 24.201,84.676 24.201,85.676 38.051,85.676 38.051,84.676 38.851,84.676 38.851,81.726 38.051,81.726 38.051,80.976 39.726,80.976 39.726,85.446 41.451,85.446 41.451,86.426 44.601,86.426 44.601,85.446 46.326,85.446 46.326,79.176 47.151,79.176 47.151,76.526 46.326,76.526 46.326,73.296 44.601,73.296 44.601,72.376 41.451,72.376 41.451,73.296 39.726,73.296 39.726,76.526 38.051,76.526 38.051,75.776 38.851,75.776 38.851,72.826 38.051,72.826 38.051,71.826" style="fill:none;stroke-width:0.050000mm;stroke:black"/>
<polygon points="281.376,71.826 281.376,72.826 280.576,72.826 280.576,75.776 281.376,75.776 281.376,81.726 280.576,81.726 280.576,84.676 281.376,84.676 281.376,85.676 295.226,85.676 295.226,84.676 296.026,84.676 296.026,81.726 295.226,81.726 295.226,75.776 296.026,75.776 296.026,72.826 295.226,72.826 295.226,71.826" style="fill:none;stroke-width:0.050000mm;stroke:black"/>
<polygon points="262.326,71.826 262.326,72.826 261.525,72.826 261.525,75.776 262.326,75.776 262.326,81.726 261.525,81.726 261.525,84.676 262.326,84.676 262.326,85.676 276.176,85.676 276.176,84.676 276.976,84.676 276.976,81.726 276.176,81.726 276.176,75.776 276.976,75.776 276.976,72.826 276.176,72.826 276.176,71.826" style="fill:none;stroke-width:0.050000mm;stroke:black"/>
<polygon points="243.276,71.826 243.276,72.826 242.476,72.826 242.476,75.776 243.276,75.776 243.276,81.726 242.476,81.726 242.476,84.676 243.276,84.676 243.276,85.676 257.126,85.676 257.126,84.676 257.926,84.676 257.926,81.726 257.126,81.726 257.126,75.776 257.926,75.776 257.926,72.826 257.126,72.826 257.126,71.826" style="fill:none;stroke-width:0.050000mm;stroke:black"/>
<polygon points="224.226,71.826 224.226,72.826 223.426,72.826 223.426,75.776 224.226,75.776 224.226,81.726 223.426,81.726 223.426,84.676 224.226,84.676 224.226,85.676 238.076,85.676 238.076,84.676 238.876,84.676 238.876,81.726 238.076,81.726 238.076,75.776 238.876,75.776 238.876,72.826 238.076,72.826 238.076,71.826" style="fill:none;stroke-width:0.050000mm;stroke:black"/>
<polygon points="205.176,71.826 205.176,72.826 204.376,72.826 204.376,75.776 205.176,75.776 205.176,81.726 204.376,81.726 204.376,84.676 205.176,84.676 205.176,85.676 219.026,85.676 219.026,84.676 219.826,84.676 219.826,81.726 219.026,81.726 219.026,75.776 219.826,75.776 219.826,72.826 219.026,72.826 219.026,71.826" style="fill:none;stroke-width:0.050000mm;stroke:black"/>
<polygon points="186.126,71.826 186.126,72.826 185.326,72.826 185.326,75.776 186.126,75.776 186.126,81.726 185.326,81.726 185.326,84.676 186.126,84.676 186.126,85.676 199.976,85.676 199.976,84.676 200.776,84.676 200.776,81.726 199.976,81.726 199.976,75.776 200.776,75.776 200.776,72.826 199.976,72.826 199.976,71.826" style="fill:none;stroke-width:0.050000mm;stroke:black"/>
<polygon points="167.076,71.826 167.076,72.826 166.276,72.826 166.276,75.776 167.076,75.776 167.076,81.726 166.276,81.726 166.276,84.676 167.076,84.676 167.076,85.676 180.926,85.676 180.926,84.676 181.726,84.676 181.726,81.726 180.926,81.726 180.926,75.776 181.726,75.776 181.726,72.826 180.926,72.826 180.926,71.826" style="fill:none;stroke-width:0.050000mm;stroke:black"/>
<polygon points="148.026,71.826 148.026,72.826 147.226,72.826 147.226,75.776 148.026,75.776 148.026,81.726 147.226,81.726 147.226,84.676 148.026,84.676 148.026,85.676 161.876,85.676 161.876,84.676 162.676,84.676 162.676,81.726 161.876,81.726 161.876,75.776 162.676,75.776 162.676,72.826 161.876,72.826 161.876,71.826" style="fill:none;stroke-width:0.050000mm;stroke:black"/>
<polygon points="128.976,71.826 128.976,72.826 128.176,72.826 128.176,75.776 128.976,75.776 128.976,81.726 128.176,81.726 128.176,84.676 128.976,84.676 128.976,85.676 142.826,85.676 142.826,84.676 143.626,84.676 143.626,81.726 142.826,81.726 142.826,75.776 143.626,75.776 143.626,72.826 142.826,72.826 142.826,71.826" style="fill:none;stroke-width:0.050000mm;stroke:black"/>
<polygon points="109.926,71.826 109.926,72.826 109.126,72.826 109.126,75.776 109.926,75.776 109.926,81.726 109.126,81.726 109.126,84.676 109.926,84.676 109.926,85.676 123.775,85.676 123.775,84.676 124.575,84.676 124.575,81.726 123.775,81.726 123.775,75.776 124.575,75.776 124.575,72.826 123.775,72.826 123.775,71.826" style="fill:none;stroke-width:0.050000mm;stroke:black"/>
<polygon points="90.876,71.826 90.876,72.826 90.076,72.826 90.076,75.776 90.876,75.776 90.876,81.726 90.076,81.726 90.076,84.676 90.876,84.676 90.876,85.676 104.726,85.676 104.726,84.676 105.525,84.676 105.525,81.726 104.726,81.726 104.726,75.776 105.525,75.776 105.525,72.826 104.726,72.826 104.726,71.826" style="fill:none;stroke-width:0.050000mm;stroke:black"/>
<polygon points="71.826,71.826 71.826,72.826 71.026,72.826 71.026,75.776 71.826,75.776 71.826,81.726 71.026,81.726 71.026,84.676 71.826,84.676 71.826,85.676 85.676,85.676 85.676,84.676 86.476,84.676 86.476,81.726 85.676,81.726 85.676,75.776 86.476,75.776 86.476,72.826 85.676,72.826 85.676,71.826" style="fill:none;stroke-width:0.050000mm;stroke:black"/>
<polygon points="52.776,71.826 52.776,72.826 51.976,72.826 51.976,75.776 52.776,75.776 52.776,81.726 51.976,81.726 51.976,84.676 52.776,84.676 52.776,85.676 66.626,85.676 66.626,84.676 67.426,84.676 67.426,81.726 66.626,81.726 66.626,75.776 67.426,75.776 67.426,72.826 66.626,72.826 66.626,71.826" style="fill:none;stroke-width:0.050000mm;stroke:black"/>
<polygon points="269.469,52.776 269.469,53.776 268.669,53.776 268.669,56.726 269.469,56.726 269.469,57.476 267.794,57.476 267.794,54.246 266.069,54.246 266.069,53.326 262.919,53.326 262.919,54.246 261.193,54.246 261.193,57.476 260.369,57.476 260.369,60.126 261.193,60.126 261.193,66.396 262.919,66.396 262.919,67.376 266.069,67.376 266.069,66.396 267.794,66.396 267.794,61.926 269.469,61.926 269.469,62.676 268.669,62.676 268.669,65.626 269.469,65.626 269.469,66.626 283.319,66.626 283.319,65.626 284.119,65.626 284.119,62.676 283.319,62.676 283.319,61.926 284.994,61.926 284.994,66.396 286.719,66.396 286.719,67.376 289.869,67.376 289.869,66.396 291.594,66.396 291.594,60.126 292.419,60.126 292.419,57.476 291.594,57.476 291.594,54.246 289.869,54.246 289.869,53.326 286.719,53.326 286.719,54.246 284.994,54.246 284.994,57.476 283.319,57.476 283.319,56.726 284.119,56.726 284.119,53.776 283.319,53.776 283.319,52.776" style="fill:none;stroke-width:0.050000mm;stroke:black"/>
<polygon points="238.513,52.776 238.513,53.776 237.713,53.776 237.713,56.726 238.513,56.726 238.513,62.676 237.713,62.676 237.713,65.626 238.513,65.626 238.513,66.626 252.363,66.626 252.363,65.626 253.163,65.626 253.163,62.676 252.363,62.676 252.363,56.726 253.163,56.726 253.163,53.776 252.363,53.776 252.363,52.776" style="fill:none;stroke-width:0.050000mm;stroke:black"/>
<polygon points="219.463,52.776 219.463,53.776 218.663,53.776 218.663,56.726 219.463,56.726 219.463,62.676 218.663,62.676 218.663,65.626 219.463,65.626 219.463,66.626 233.313,66.626 233.313,65.626 234.113,65.626 234.113,62.676 233.313,62.676 233.313,56.726 234.113,56.726 234.113,53.776 233.313,53.776 233.313,52.776" style="fill:none;stroke-width:0.050000mm;stroke:black"/>
<polygon points="200.413,52.776 200.413,53.776 199.613,53.776 199.613,56.726 200.413,56.726 200.413,62.676 199.613,62.676 199.613,65.626 200.413,65.626 200.413,66.626 214.263,66.626 214.263,65.626 215.063,65.626 215.063,62.676 214.263,62.676 214.263,56.726 215.063,56.726 215.063,53.776 214.263,53.776 214.263,52.776" style="fill:none;stroke-width:0.050000mm;stroke:black"/>
<polygon points="181.363,52.776 181.363,53.776 180.563,53.776 180.563,56.726 181.363,56.726 181.363,62.676 180.563,62.676 180.563,65.626 181.363,65.626 181.363,66.626 195.213,66.626 195.213,65.626 196.013,65.626 196.013,62.676 195.213,62.676 195.213,56.726 196.013,56.726 196.013,53.776 195.213,53.776 195.213,52.776" style="fill:none;stroke-width:0.050000mm;stroke:black"/>
<polygon points="162.313,52.776 162.313,53.776 161.513,53.776 161.513,56.726 162.313,56.726 162.313,62.676 161.513,62.676 161.513,65.626 162.313,65.626 162.313,66.626 176.163,66.626 176.163,65.626 176.963,65.626 176.963,62.676 176.163,62.676 176.163,56.726 176.963,56.726 176.963,53.776 176.163,53.776 176.163,52.776" style="fill:none;stroke-width:0.050000mm;stroke:black"/>
<polygon points="143.263,52.776 143.263,53.776 142.463,53.776 142.463,56.726 143.263,56.726 143.263,62.676 142.463,62.676 142.463,65.626 143.263,65.626 143.263,66.626 157.113,66.626 157.113,65.626 157.913,65.626 157.913,62.676 157.113,62.676 157.113,56.726 157.913,56.726 157.913,53.776 157.113,53.776 157.113,52.776" style="fill:none;stroke-width:0.050000mm;stroke:black"/>
<polygon points="124.213,52.776 124.213,53.776 123.413,53.776 123.413,56.726 124.213,56.726 124.213,62.676 123.413,62.676 123.413,65.626 124.213,65.626 124.213,66.626 138.063,66.626 138.063,65.626 138.863,65.626 138.863,62.676 138.063,62.676 138.063,56.726 138.863,56.726 138.863,53.776 138.063,53.776 138.063,52.776" style="fill:none;stroke-width:0.050000mm;stroke:black"/>
<polygon points="105.163,52.776 105.163,53.776 104.363,53.776 104.363,56.726 105.163,56.726 105.163,62.676 104.363,62.676 104.363,65.626 105.163,65.626 105.163,66.626 119.013,66.626 119.013,65.626 119.813,65.626 119.813,62.676 119.013,62.676 119.013,56.726 119.813,56.726 119.813,53.776 119.013,53.776 119.013,52.776" style="fill:none;stroke-width:0.050000mm;stroke:black"/>
<polygon points="86.113,52.776 86.113,53.776 85.313,53.776 85.313,56.726 86.113,56.726 86.113,62.676 85.313,62.676 85.313,65.626 86.113,65.626 86.113,66.626 99.963,66.626 99.963,65.626 100.763,65.626 100.763,62.676 99.963,62.676 99.963,56.726 100.763,56.726 100.763,53.776 99.963,53.776 99.963,52.776" style="fill:none;stroke-width:0.050000mm;stroke:black"/>
<polygon points="67.063,52.776 67.063,53.776 66.263,53.776 66.263,56.726 67.063,56.726 67.063,62.676 66.263,62.676 66.263,65.626 67.063,65.626 67.063,66.626 80.913,66.626 80.913,65.626 81.713,65.626 81.713,62.676 80.913,62.676 80.913,56.726 81.713,56.726 81.713,53.776 80.913,53.776 80.913,52.776" style="fill:none;stroke-width:0.050000mm;stroke:black"/>
<polygon points="48.013,52.776 48.013,53.776 47.213,53.776 47.213,56.726 48.013,56.726 48.013,62.676 47.213,62.676 47.213,65.626 48.013,65.626 48.013,66.626 61.863,66.626 61.863,65.626 62.663,65.626 62.663,62.676 61.863,62.676 61.863,56.726 62.663,56.726 62.663,53.776 61.863,53.776 61.863,52.776" style="fill:none;stroke-width:0.050000mm;stroke:black"/>
<polygon points="21.819,52.776 21.819,53.776 21.019,53.776 21.019,56.726 21.819,56.726 21.819,62.676 21.019,62.676 21.019,65.626 21.819,65.626 21.819,66.626 35.669,66.626 35.669,65.626 36.469,65.626 36.469,62.676 35.669,62.676 35.669,56.726 36.469,56.726 36.469,53.776 35.669,53.776 35.669,52.776" style="fill:none;stroke-width:0.050000mm;stroke:black"/>
<polygon points="276.613,33.726 276.613,34.726 275.813,34.726 275.813,37.676 276.613,37.676 276.613,43.626 275.813,43.626 275.813,46.576 276.613,46.576 276.613,47.576 290.463,47.576 290.463,46.576 291.263,46.576 291.263,43.626 290.463,43.626 290.463,37.676 291.263,37.676 291.263,34.726 290.463,34.726 290.463,33.726" style="fill:none;stroke-width:0.050000mm;stroke:black"/>
<polygon points="252.801,33.726 252.801,34.726 252.001,34.726 252.001,37.676 252.801,37.676 252.801,43.626 252.001,43.626 252.001,46.576 252.801,46.576 252.801,47.576 266.651,47.576 266.651,46.576 267.451,46.576 267.451,43.626 266.651,43.626 266.651,37.676 267.451,37.676 267.451,34.726 266.651,34.726 266.651,33.726" style="fill:none;stroke-width:0.050000mm;stroke:black"/>
<polygon points="233.751,33.726 233.751,34.726 232.951,34.726 232.951,37.676 233.751,37.676 233.751,43.626 232.951,43.626 232.951,46.576 233.751,46.576 233.751,47.576 247.601,47.576 247.601,46.576 248.401,46.576 248.401,43.626 247.601,43.626 247.601,37.676 248.401,37.676 248.401,34.726 247.601,34.726 247.601,33.726" style="fill:none;stroke-width:0.050000mm;stroke:black"/>
<polygon points="214.701,33.726 214.701,34.726 213.901,34.726 213.901,37.676 214.701,37.676 214.701,43.626 213.901,43.626 213.901,46.576 214.701,46.576 214.701,47.576 228.551,47.576 228.551,46.576 229.351,46.576 229.351,43.626 228.551,43.626 228.551,37.676 229.351,37.676 229.351,34.726 228.551,34.726 228.551,33.726" style="fill:none;stroke-width:0.050000mm;stroke:black"/>
<polygon points="195.651,33.726 195.651,34.726 194.851,34.726 194.851,37.676 195.651,37.676 195.651,43.626 194.851,43.626 194.851,46.576 195.651,46.576 195.651,47.576 209.501,47.576 209.501,46.576 210.301,46.576 210.301,43.626 209.501,43.626 209.501,37.676 210.301,37.676 210.301,34.726 209.501,34.726 209.501,33.726" style="fill:none;stroke-width:0.050000mm;stroke:black"/>
<polygon points="176.601,33.726 176.601,34.726 175.801,34.726 175.801,37.676 176.601,37.676 176.601,43.626 175.801,43.626 175.801,46.576 176.601,46.576 176.601,47.576 190.451,47.576 190.451,46.576 191.251,46.576 191.251,43.626 190.451,43.626 190.451,37.676 191.251,37.676 191.251,34.726 190.451,34.726 190.451,33.726" style="fill:none;stroke-width:0.050000mm;stroke:black"/>
<polygon points="157.550,33.726 157.550,34.726 156.751,34.726 156.751,37.676 157.550,37.676 157.550,43.626 156.751,43.626 156.751,46.576 157.550,46.576 157.550,47.576 171.401,47.576 171.401,46.576 172.201,46.576 172.201,43.626 171.401,43.626 171.401,37.676 172.201,37.676 172.201,34.726 171.401,34.726 171.401,33.726" style="fill:none;stroke-width:0.050000mm;stroke:black"/>
<polygon points="138.500,33.726 138.500,34.726 137.701,34.726 137.701,37.676 138.500,37.676 138.500,43.626 137.701,43.626 137.701,46.576 138.500,46.576 138.500,47.576 152.351,47.576 152.351,46.576 153.150,46.576 153.150,43.626 152.351,43.626 152.351,37.676 153.150,37.676 153.150,34.726 152.351,34.726 152.351,33.726" style="fill:none;stroke-width:0.050000mm;stroke:black"/>
<polygon points="119.450,33.726 119.450,34.726 118.650,34.726 118.650,37.676 119.450,37.676 119.450,43.626 118.650,43.626 118.650,46.576 119.450,46.576 119.450,47.576 133.300,47.576 133.300,46.576 134.101,46.576 134.101,43.626 133.300,43.626 133.300,37.676 134.101,37.676 134.101,34.726 133.300,34.726 133.300,33.726" style="fill:none;stroke-width:0.050000mm;stroke:black"/>
<polygon points="100.400,33.726 100.400,34.726 99.601,34.726 99.601,37.676 100.400,37.676 100.400,43.626 99.601,43.626 99.601,46.576 100.400,46.576 100.400,47.576 114.250,47.576 114.250,46.576 115.050,46.576 115.050,43.626 114.250,43.626 114.250,37.676 115.050,37.676 115.050,34.726 114.250,34.726 114.250,33.726" style="fill:none;stroke-width:0.050000mm;stroke:black"/>
<polygon points="81.351,33.726 81.351,34.726 80.551,34.726 80.551,37.676 81.351,37.676 81.351,43.626 80.551,43.626 80.551,46.576 81.351,46.576 81.351,47.576 95.200,47.576 95.200,46.576 96.000,46.576 96.000,43.626 95.200,43.626 95.200,37.676 96.000,37.676 96.000,34.726 95.200,34.726 95.200,33.726" style="fill:none;stroke-width:0.050000mm;stroke:black"/>
<polygon points="62.301,33.726 62.301,34.726 61.500,34.726 61.500,37.676 62.301,37.676 62.301,43.626 61.500,43.626 61.500,46.576 62.301,46.576 62.301,47.576 76.150,47.576 76.150,46.576 76.950,46.576 76.950,43.626 76.150,43.626 76.150,37.676 76.950,37.676 76.950,34.726 76.150,34.726 76.150,33.726" style="fill:none;stroke-width:0.050000mm;stroke:black"/>
<polygon points="43.251,33.726 43.251,34.726 42.450,34.726 42.450,37.676 43.251,37.676 43.251,43.626 42.450,43.626 42.450,46.576 43.251,46.576 43.251,47.576 57.100,47.576 57.100,46.576 57.901,46.576 57.901,43.626 57.100,43.626 57.100,37.676 57.901,37.676 57.901,34.726 57.100,34.726 57.100,33.726" style="fill:none;stroke-width:0.050000mm;stroke:black"/>
<polygon points="19.438,33.726 19.438,34.726 18.638,34.726 18.638,37.676 19.438,37.676 19.438,43.626 18.638,43.626 18.638,46.576 19.438,46.576 19.438,47.576 33.288,47.576 33.288,46.576 34.088,46.576 34.088,43.626 33.288,43.626 33.288,37.676 34.088,37.676 34.088,34.726 33.288,34.726 33.288,33.726" style="fill:none;stroke-width:0.050000mm;stroke:black"/>
<polygon points="271.851,14.676 271.851,15.676 271.051,15.676 271.051,18.626 271.851,18.626 271.851,19.376 270.176,19.376 270.176,16.146 268.451,16.146 268.451,15.226 265.301,15.226 265.301,16.146 263.576,16.146 263.576,19.376 262.751,19.376 262.751,22.026 263.576,22.026 263.576,28.296 265.301,28.296 265.301,29.276 268.451,29.276 268.451,28.296 270.176,28.296 270.176,23.826 271.851,23.826 271.851,24.576 271.051,24.576 271.051,27.526 271.851,27.526 271.851,28.526 285.701,28.526 285.701,27.526 286.501,27.526 286.501,24.576 285.701,24.576 285.701,23.826 287.376,23.826 287.376,28.296 289.101,28.296 289.101,29.276 292.251,29.276 292.251,28.296 293.976,28.296 293.976,22.026 294.801,22.026 294.801,19.376 293.976,19.376 293.976,16.146 292.251,16.146 292.251,15.226 289.101,15.226 289.101,16.146 287.376,16.146 287.376,19.376 285.701,19.376 285.701,18.626 286.501,18.626 286.501,15.676 285.701,15.676 285.701,14.676" style="fill:none;stroke-width:0.050000mm;stroke:black"/>
<polygon points="243.276,14.676 243.276,15.676 242.476,15.676 242.476,18.626 243.276,18.626 243.276,24.576 242.476,24.576 242.476,27.526 243.276,27.526 243.276,28.526 257.126,28.526 257.126,27.526 257.926,27.526 257.926,24.576 257.126,24.576 257.126,18.626 257.926,18.626 257.926,15.676 257.126,15.676 257.126,14.676" style="fill:none;stroke-width:0.050000mm;stroke:black"/>
<polygon points="224.226,14.676 224.226,15.676 223.426,15.676 223.426,18.626 224.226,18.626 224.226,24.576 223.426,24.576 223.426,27.526 224.226,27.526 224.226,28.526 238.076,28.526 238.076,27.526 238.876,27.526 238.876,24.576 238.076,24.576 238.076,18.626 238.876,18.626 238.876,15.676 238.076,15.676 238.076,14.676" style="fill:none;stroke-width:0.050000mm;stroke:black"/>
<polygon points="205.176,14.676 205.176,15.676 204.376,15.676 204.376,18.626 205.176,18.626 205.176,24.576 204.376,24.576 204.376,27.526 205.176,27.526 205.176,28.526 219.026,28.526 219.026,27.526 219.826,27.526 219.826,24.576 219.026,24.576 219.026,18.626 219.826,18.626 219.826,15.676 219.026,15.676 219.026,14.676" style="fill:none;stroke-width:0.050000mm;stroke:black"/>
<polygon points="186.126,14.676 186.126,15.676 185.326,15.676 185.326,18.626 186.126,18.626 186.126,24.576 185.326,24.576 185.326,27.526 186.126,27.526 186.126,28.526 199.976,28.526 199.976,27.526 200.776,27.526 200.776,24.576 199.976,24.576 199.976,18.626 200.776,18.626 200.776,15.676 199.976,15.676 199.976,14.676" style="fill:none;stroke-width:0.050000mm;stroke:black"/>
<polygon points="167.076,14.676 167.076,15.676 166.276,15.676 166.276,18.626 167.076,18.626 167.076,24.576 166.276,24.576 166.276,27.526 167.076,27.526 167.076,28.526 180.926,28.526 180.926,27.526 181.726,27.526 181.726,24.576 180.926,24.576 180.926,18.626 181.726,18.626 181.726,15.676 180.926,15.676 180.926,14.676" style="fill:none;stroke-width:0.050000mm;stroke:black"/>
<polygon points="148.026,14.676 148.026,15.676 147.226,15.676 147.226,18.626 148.026,18.626 148.026,24.576 147.226,24.576 147.226,27.526 148.026,27.526 148.026,28.526 161.876,28.526 161.876,27.526 162.676,27.526 162.676,24.576 161.876,24.576 161.876,18.626 162.676,18.626 162.676,15.676 161.876,15.676 161.876,14.676" style="fill:none;stroke-width:0.050000mm;stroke:black"/>
<polygon points="128.976,14.676 128.976,15.676 128.176,15.676 128.176,18.626 128.976,18.626 128.976,24.576 128.176,24.576 128.176,27.526 128.976,27.526 128.976,28.526 142.826,28.526 142.826,27.526 143.626,27.526 143.626,24.576 142.826,24.576 142.826,18.626 143.626,18.626 143.626,15.676 142.826,15.676 142.826,14.676" style="fill:none;stroke-width:0.050000mm;stroke:black"/>
<polygon points="109.926,14.676 109.926,15.676 109.126,15.676 109.126,18.626 109.926,18.626 109.926,24.576 109.126,24.576 109.126,27.526 109.926,27.526 109.926,28.526 123.775,28.526 123.775,27.526 124.575,27.526 124.575,24.576 123.775,24.576 123.775,18.626 124.575,18.626 124.575,15.676 123.775,15.676 123.775,14.676" style="fill:none;stroke-width:0.050000mm;stroke:black"/>
<polygon points="90.876,14.676 90.876,15.676 90.076,15.676 90.076,18.626 90.876,18.626 90.876,24.576 90.076,24.576 90.076,27.526 90.876,27.526 90.876,28.526 104.726,28.526 104.726,27.526 105.525,27.526 105.525,24.576 104.726,24.576 104.726,18.626 105.525,18.626 105.525,15.676 104.726,15.676 104.726,14.676" style="fill:none;stroke-width:0.050000mm;stroke:black"/>
<polygon points="71.826,14.676 71.826,15.676 71.026,15.676 71.026,18.626 71.826,18.626 71.826,24.576 71.026,24.576 71.026,27.526 71.826,27.526 71.826,28.526 85.676,28.526 85.676,27.526 86.476,27.526 86.476,24.576 85.676,24.576 85.676,18.626 86.476,18.626 86.476,15.676 85.676,15.676 85.676,14.676" style="fill:none;stroke-width:0.050000mm;stroke:black"/>
<polygon points="52.776,14.676 52.776,15.676 51.976,15.676 51.976,18.626 52.776,18.626 52.776,24.576 51.976,24.576 51.976,27.526 52.776,27.526 52.776,28.526 66.626,28.526 66.626,27.526 67.426,27.526 67.426,24.576 66.626,24.576 66.626,18.626 67.426,18.626 67.426,15.676 66.626,15.676 66.626,14.676" style="fill:none;stroke-width:0.050000mm;stroke:black"/>
<polygon points="33.726,14.676 33.726,15.676 32.926,15.676 32.926,18.626 33.726,18.626 33.726,24.576 32.926,24.576 32.926,27.526 33.726,27.526 33.726,28.526 47.576,28.526 47.576,27.526 48.376,27.526 48.376,24.576 47.576,24.576 47.576,18.626 48.376,18.626 48.376,15.676 47.576,15.676 47.576,14.676" style="fill:none;stroke-width:0.050000mm;stroke:black"/>
<polygon points="14.676,14.676 14.676,15.676 13.876,15.676 13.876,18.626 14.676,18.626 14.676,24.576 13.876,24.576 13.876,27.526 14.676,27.526 14.676,28.526 28.526,28.526 28.526,27.526 29.326,27.526 29.326,24.576 28.526,24.576 28.526,18.626 29.326,18.626 29.326,15.676 28.526,15.676 28.526,14.676" style="fill:none;stroke-width:0.050000mm;stroke:black"/>
<polygon points="8.120,7.173 7.709,7.382 7.382,7.709 7.173,8.120 7.101,8.576 7.173,9.031 7.382,9.442 7.709,9.769 8.120,9.978 8.576,10.051 9.031,9.978 9.442,9.769 9.769,9.442 9.978,9.031 10.051,8.576 9.978,8.120 9.769,7.709 9.442,7.382 9.031,7.173 8.576,7.101" style="fill:none;stroke-width:0.050000mm;stroke:black"/>
<polygon points="338.871,7.173 338.460,7.382 338.133,7.709 337.924,8.120 337.852,8.576 337.924,9.031 338.133,9.442 338.460,9.769 338.871,9.978 339.327,10.051 339.782,9.978 340.193,9.769 340.520,9.442 340.729,9.031 340.802,8.576 340.729,8.120 340.520,7.709 340.193,7.382 339.782,7.173 339.327,7.101" style="fill:none;stroke-width:0.050000mm;stroke:black"/>
<polygon points="256.183,7.173 255.772,7.382 255.445,7.709 255.236,8.120 255.164,8.576 255.236,9.031 255.445,9.442 255.772,9.769 256.183,9.978 256.638,10.051 257.095,9.978 257.506,9.769 257.832,9.442 258.042,9.031 258.114,8.576 258.042,8.120 257.832,7.709 257.506,7.382 257.095,7.173 256.638,7.101" style="fill:none;stroke-width:0.050000mm;stroke:black"/>
<polygon points="173.495,7.173 173.084,7.382 172.758,7.709 172.548,8.120 172.476,8.576 172.548,9.031 172.758,9.442 173.084,9.769 173.495,9.978 173.951,10.051 174.407,9.978 174.818,9.769 175.144,9.442 175.354,9.031 175.426,8.576 175.354,8.120 175.144,7.709 174.818,7.382 174.407,7.173 173.951,7.101" style="fill:none;stroke-width:0.050000mm;stroke:black"/>
<polygon points="90.807,7.173 90.396,7.382 90.070,7.709 89.860,8.120 89.788,8.576 89.860,9.031 90.070,9.442 90.396,9.769 90.807,9.978 91.263,10.051 91.719,9.978 92.130,9.769 92.457,9.442 92.666,9.031 92.738,8.576 92.666,8.120 92.457,7.709 92.130,7.382 91.719,7.173 91.263,7.101" style="fill:none;stroke-width:0.050000mm;stroke:black"/>
</svg>
