  0
SECTION
  2
HEADER
  9
$ACADVER
  1
AC1009
  9
$EXTMIN
 10
0.0
 20
0.0
 30
0.0
  9
$EXTMAX
 10
1000.0
 20
1000.0
 30
0.0
  9
$FILLMODE
 70
 0
  9
$SPLFRAME
 70
 1
  0
ENDSEC
  0
SECTION
  2
TABLES
  0
TABLE
  2
LAYER
 70
1
  0
LAYER
  2
0
 70
     0
 62
     7
  6
CONTINUOUS
  0
ENDTAB
  0
ENDSEC
  0
SECTION
  2
ENTITIES
  0
LINE
  8
0
 62
     0
 10
336.846
 20
109.619
 30
0.0
 11
336.925
 21
109.616
 31
0.0
  0
LINE
  8
0
 62
     0
 10
336.925
 20
109.616
 30
0.0
 11
337.002
 21
109.606
 31
0.0
  0
LINE
  8
0
 62
     0
 10
337.002
 20
109.606
 30
0.0
 11
337.079
 21
109.591
 31
0.0
  0
LINE
  8
0
 62
     0
 10
337.079
 20
109.591
 30
0.0
 11
337.155
 21
109.571
 31
0.0
  0
LINE
  8
0
 62
     0
 10
337.155
 20
109.571
 30
0.0
 11
337.228
 21
109.543
 31
0.0
  0
LINE
  8
0
 62
     0
 10
337.228
 20
109.543
 30
0.0
 11
337.3
 21
109.51
 31
0.0
  0
LINE
  8
0
 62
     0
 10
337.3
 20
109.51
 30
0.0
 11
337.368
 21
109.472
 31
0.0
  0
LINE
  8
0
 62
     0
 10
337.368
 20
109.472
 30
0.0
 11
337.433
 21
109.428
 31
0.0
  0
LINE
  8
0
 62
     0
 10
337.433
 20
109.428
 30
0.0
 11
337.495
 21
109.379
 31
0.0
  0
LINE
  8
0
 62
     0
 10
337.495
 20
109.379
 30
0.0
 11
337.553
 21
109.327
 31
0.0
  0
LINE
  8
0
 62
     0
 10
337.553
 20
109.327
 30
0.0
 11
337.607
 21
109.269
 31
0.0
  0
LINE
  8
0
 62
     0
 10
337.607
 20
109.269
 30
0.0
 11
337.655
 21
109.207
 31
0.0
  0
LINE
  8
0
 62
     0
 10
337.655
 20
109.207
 30
0.0
 11
337.698
 21
109.142
 31
0.0
  0
LINE
  8
0
 62
     0
 10
337.698
 20
109.142
 30
0.0
 11
337.738
 21
109.072
 31
0.0
  0
LINE
  8
0
 62
     0
 10
337.738
 20
109.072
 30
0.0
 11
337.77
 21
109.001
 31
0.0
  0
LINE
  8
0
 62
     0
 10
337.77
 20
109.001
 30
0.0
 11
337.797
 21
108.928
 31
0.0
  0
LINE
  8
0
 62
     0
 10
337.797
 20
108.928
 30
0.0
 11
337.819
 21
108.853
 31
0.0
  0
LINE
  8
0
 62
     0
 10
337.819
 20
108.853
 30
0.0
 11
337.833
 21
108.775
 31
0.0
  0
LINE
  8
0
 62
     0
 10
337.833
 20
108.775
 30
0.0
 11
337.843
 21
108.697
 31
0.0
  0
LINE
  8
0
 62
     0
 10
337.843
 20
108.697
 30
0.0
 11
337.847
 21
108.619
 31
0.0
  0
LINE
  8
0
 62
     0
 10
337.847
 20
108.619
 30
0.0
 11
337.847
 21
1.36839
 31
0.0
  0
LINE
  8
0
 62
     0
 10
337.847
 20
1.36839
 30
0.0
 11
337.843
 21
1.28984
 31
0.0
  0
LINE
  8
0
 62
     0
 10
337.843
 20
1.28984
 30
0.0
 11
337.833
 21
1.21129
 31
0.0
  0
LINE
  8
0
 62
     0
 10
337.833
 20
1.21129
 30
0.0
 11
337.819
 21
1.13412
 31
0.0
  0
LINE
  8
0
 62
     0
 10
337.819
 20
1.13412
 30
0.0
 11
337.797
 21
1.05833
 31
0.0
  0
LINE
  8
0
 62
     0
 10
337.797
 20
1.05833
 30
0.0
 11
337.77
 21
0.985298
 31
0.0
  0
LINE
  8
0
 62
     0
 10
337.77
 20
0.985298
 30
0.0
 11
337.738
 21
0.915017
 31
0.0
  0
LINE
  8
0
 62
     0
 10
337.738
 20
0.915017
 30
0.0
 11
337.698
 21
0.844737
 31
0.0
  0
LINE
  8
0
 62
     0
 10
337.698
 20
0.844737
 30
0.0
 11
337.655
 21
0.77997
 31
0.0
  0
LINE
  8
0
 62
     0
 10
337.655
 20
0.77997
 30
0.0
 11
337.607
 21
0.717959
 31
0.0
  0
LINE
  8
0
 62
     0
 10
337.607
 20
0.717959
 30
0.0
 11
337.553
 21
0.660079
 31
0.0
  0
LINE
  8
0
 62
     0
 10
337.553
 20
0.660079
 30
0.0
 11
337.495
 21
0.607716
 31
0.0
  0
LINE
  8
0
 62
     0
 10
337.495
 20
0.607716
 30
0.0
 11
337.433
 21
0.558105
 31
0.0
  0
LINE
  8
0
 62
     0
 10
337.433
 20
0.558105
 30
0.0
 11
337.368
 21
0.515387
 31
0.0
  0
LINE
  8
0
 62
     0
 10
337.368
 20
0.515387
 30
0.0
 11
337.3
 21
0.4768
 31
0.0
  0
LINE
  8
0
 62
     0
 10
337.3
 20
0.4768
 30
0.0
 11
337.228
 21
0.443727
 31
0.0
  0
LINE
  8
0
 62
     0
 10
337.228
 20
0.443727
 30
0.0
 11
337.155
 21
0.416168
 31
0.0
  0
LINE
  8
0
 62
     0
 10
337.155
 20
0.416168
 30
0.0
 11
337.079
 21
0.395496
 31
0.0
  0
LINE
  8
0
 62
     0
 10
337.079
 20
0.395496
 30
0.0
 11
337.002
 21
0.38034
 31
0.0
  0
LINE
  8
0
 62
     0
 10
337.002
 20
0.38034
 30
0.0
 11
336.925
 21
0.372071
 31
0.0
  0
LINE
  8
0
 62
     0
 10
336.925
 20
0.372071
 30
0.0
 11
336.846
 21
0.367937
 31
0.0
  0
LINE
  8
0
 62
     0
 10
336.846
 20
0.367937
 30
0.0
 11
1.09554
 21
0.367937
 31
0.0
  0
LINE
  8
0
 62
     0
 10
1.09554
 20
0.367937
 30
0.0
 11
1.01699
 21
0.372071
 31
0.0
  0
LINE
  8
0
 62
     0
 10
1.01699
 20
0.372071
 30
0.0
 11
0.938445
 21
0.38034
 31
0.0
  0
LINE
  8
0
 62
     0
 10
0.938445
 20
0.38034
 30
0.0
 11
0.861275
 21
0.395496
 31
0.0
  0
LINE
  8
0
 62
     0
 10
0.861275
 20
0.395496
 30
0.0
 11
0.785481
 21
0.416168
 31
0.0
  0
LINE
  8
0
 62
     0
 10
0.785481
 20
0.416168
 30
0.0
 11
0.712445
 21
0.443727
 31
0.0
  0
LINE
  8
0
 62
     0
 10
0.712445
 20
0.443727
 30
0.0
 11
0.642165
 21
0.4768
 31
0.0
  0
LINE
  8
0
 62
     0
 10
0.642165
 20
0.4768
 30
0.0
 11
0.571885
 21
0.515387
 31
0.0
  0
LINE
  8
0
 62
     0
 10
0.571885
 20
0.515387
 30
0.0
 11
0.507118
 21
0.558105
 31
0.0
  0
LINE
  8
0
 62
     0
 10
0.507118
 20
0.558105
 30
0.0
 11
0.445107
 21
0.607716
 31
0.0
  0
LINE
  8
0
 62
     0
 10
0.445107
 20
0.607716
 30
0.0
 11
0.38723
 21
0.660079
 31
0.0
  0
LINE
  8
0
 62
     0
 10
0.38723
 20
0.660079
 30
0.0
 11
0.334863
 21
0.717959
 31
0.0
  0
LINE
  8
0
 62
     0
 10
0.334863
 20
0.717959
 30
0.0
 11
0.285254
 21
0.77997
 31
0.0
  0
LINE
  8
0
 62
     0
 10
0.285254
 20
0.77997
 30
0.0
 11
0.242535
 21
0.844737
 31
0.0
  0
LINE
  8
0
 62
     0
 10
0.242535
 20
0.844737
 30
0.0
 11
0.20395
 21
0.915017
 31
0.0
  0
LINE
  8
0
 62
     0
 10
0.20395
 20
0.915017
 30
0.0
 11
0.170877
 21
0.985298
 31
0.0
  0
LINE
  8
0
 62
     0
 10
0.170877
 20
0.985298
 30
0.0
 11
0.143316
 21
1.05833
 31
0.0
  0
LINE
  8
0
 62
     0
 10
0.143316
 20
1.05833
 30
0.0
 11
0.122645
 21
1.13412
 31
0.0
  0
LINE
  8
0
 62
     0
 10
0.122645
 20
1.13412
 30
0.0
 11
0.107487
 21
1.21129
 31
0.0
  0
LINE
  8
0
 62
     0
 10
0.107487
 20
1.21129
 30
0.0
 11
0.0978408
 21
1.28984
 31
0.0
  0
LINE
  8
0
 62
     0
 10
0.0978408
 20
1.28984
 30
0.0
 11
0.0950846
 21
1.36839
 31
0.0
  0
LINE
  8
0
 62
     0
 10
0.0950846
 20
1.36839
 30
0.0
 11
0.0950846
 21
108.619
 31
0.0
  0
LINE
  8
0
 62
     0
 10
0.0950846
 20
108.619
 30
0.0
 11
0.0978408
 21
108.697
 31
0.0
  0
LINE
  8
0
 62
     0
 10
0.0978408
 20
108.697
 30
0.0
 11
0.107487
 21
108.775
 31
0.0
  0
LINE
  8
0
 62
     0
 10
0.107487
 20
108.775
 30
0.0
 11
0.122645
 21
108.853
 31
0.0
  0
LINE
  8
0
 62
     0
 10
0.122645
 20
108.853
 30
0.0
 11
0.143316
 21
108.928
 31
0.0
  0
LINE
  8
0
 62
     0
 10
0.143316
 20
108.928
 30
0.0
 11
0.170877
 21
109.001
 31
0.0
  0
LINE
  8
0
 62
     0
 10
0.170877
 20
109.001
 30
0.0
 11
0.20395
 21
109.072
 31
0.0
  0
LINE
  8
0
 62
     0
 10
0.20395
 20
109.072
 30
0.0
 11
0.242535
 21
109.142
 31
0.0
  0
LINE
  8
0
 62
     0
 10
0.242535
 20
109.142
 30
0.0
 11
0.285254
 21
109.207
 31
0.0
  0
LINE
  8
0
 62
     0
 10
0.285254
 20
109.207
 30
0.0
 11
0.334863
 21
109.269
 31
0.0
  0
LINE
  8
0
 62
     0
 10
0.334863
 20
109.269
 30
0.0
 11
0.38723
 21
109.327
 31
0.0
  0
LINE
  8
0
 62
     0
 10
0.38723
 20
109.327
 30
0.0
 11
0.445107
 21
109.379
 31
0.0
  0
LINE
  8
0
 62
     0
 10
0.445107
 20
109.379
 30
0.0
 11
0.507118
 21
109.428
 31
0.0
  0
LINE
  8
0
 62
     0
 10
0.507118
 20
109.428
 30
0.0
 11
0.571885
 21
109.472
 31
0.0
  0
LINE
  8
0
 62
     0
 10
0.571885
 20
109.472
 30
0.0
 11
0.642165
 21
109.51
 31
0.0
  0
LINE
  8
0
 62
     0
 10
0.642165
 20
109.51
 30
0.0
 11
0.712445
 21
109.543
 31
0.0
  0
LINE
  8
0
 62
     0
 10
0.712445
 20
109.543
 30
0.0
 11
0.785481
 21
109.571
 31
0.0
  0
LINE
  8
0
 62
     0
 10
0.785481
 20
109.571
 30
0.0
 11
0.861275
 21
109.591
 31
0.0
  0
LINE
  8
0
 62
     0
 10
0.861275
 20
109.591
 30
0.0
 11
0.938445
 21
109.606
 31
0.0
  0
LINE
  8
0
 62
     0
 10
0.938445
 20
109.606
 30
0.0
 11
1.01699
 21
109.616
 31
0.0
  0
LINE
  8
0
 62
     0
 10
1.01699
 20
109.616
 30
0.0
 11
1.09554
 21
109.619
 31
0.0
  0
LINE
  8
0
 62
     0
 10
1.09554
 20
109.619
 30
0.0
 11
336.846
 21
109.619
 31
0.0
  0
LINE
  8
0
 62
     0
 10
3.11712
 20
5.34264
 30
0.0
 11
2.68304
 21
5.12078
 31
0.0
  0
LINE
  8
0
 62
     0
 10
2.68304
 20
5.12078
 30
0.0
 11
2.34129
 21
4.77905
 31
0.0
  0
LINE
  8
0
 62
     0
 10
2.34129
 20
4.77905
 30
0.0
 11
2.1208
 21
4.34633
 31
0.0
  0
LINE
  8
0
 62
     0
 10
2.1208
 20
4.34633
 30
0.0
 11
2.04501
 21
3.86676
 31
0.0
  0
LINE
  8
0
 62
     0
 10
2.04501
 20
3.86676
 30
0.0
 11
2.1208
 21
3.38998
 31
0.0
  0
LINE
  8
0
 62
     0
 10
2.1208
 20
3.38998
 30
0.0
 11
2.34129
 21
2.95589
 31
0.0
  0
LINE
  8
0
 62
     0
 10
2.34129
 20
2.95589
 30
0.0
 11
2.68304
 21
2.61414
 31
0.0
  0
LINE
  8
0
 62
     0
 10
2.68304
 20
2.61414
 30
0.0
 11
3.11712
 21
2.39365
 31
0.0
  0
LINE
  8
0
 62
     0
 10
3.11712
 20
2.39365
 30
0.0
 11
3.59392
 21
2.31786
 31
0.0
  0
LINE
  8
0
 62
     0
 10
3.59392
 20
2.31786
 30
0.0
 11
4.07349
 21
2.39365
 31
0.0
  0
LINE
  8
0
 62
     0
 10
4.07349
 20
2.39365
 30
0.0
 11
4.50617
 21
2.61414
 31
0.0
  0
LINE
  8
0
 62
     0
 10
4.50617
 20
2.61414
 30
0.0
 11
4.84794
 21
2.95589
 31
0.0
  0
LINE
  8
0
 62
     0
 10
4.84794
 20
2.95589
 30
0.0
 11
5.0698
 21
3.38998
 31
0.0
  0
LINE
  8
0
 62
     0
 10
5.0698
 20
3.38998
 30
0.0
 11
5.14421
 21
3.86676
 31
0.0
  0
LINE
  8
0
 62
     0
 10
5.14421
 20
3.86676
 30
0.0
 11
5.0698
 21
4.34633
 31
0.0
  0
LINE
  8
0
 62
     0
 10
5.0698
 20
4.34633
 30
0.0
 11
4.84794
 21
4.77905
 31
0.0
  0
LINE
  8
0
 62
     0
 10
4.84794
 20
4.77905
 30
0.0
 11
4.50617
 21
5.12078
 31
0.0
  0
LINE
  8
0
 62
     0
 10
4.50617
 20
5.12078
 30
0.0
 11
4.07349
 21
5.34264
 31
0.0
  0
LINE
  8
0
 62
     0
 10
4.07349
 20
5.34264
 30
0.0
 11
3.59392
 21
5.41708
 31
0.0
  0
LINE
  8
0
 62
     0
 10
3.59392
 20
5.41708
 30
0.0
 11
3.11712
 21
5.34264
 31
0.0
  0
LINE
  8
0
 62
     0
 10
85.8037
 20
5.34264
 30
0.0
 11
85.3708
 21
5.12078
 31
0.0
  0
LINE
  8
0
 62
     0
 10
85.3708
 20
5.12078
 30
0.0
 11
85.029
 21
4.77905
 31
0.0
  0
LINE
  8
0
 62
     0
 10
85.029
 20
4.77905
 30
0.0
 11
84.8085
 21
4.34633
 31
0.0
  0
LINE
  8
0
 62
     0
 10
84.8085
 20
4.34633
 30
0.0
 11
84.733
 21
3.86676
 31
0.0
  0
LINE
  8
0
 62
     0
 10
84.733
 20
3.86676
 30
0.0
 11
84.8085
 21
3.38998
 31
0.0
  0
LINE
  8
0
 62
     0
 10
84.8085
 20
3.38998
 30
0.0
 11
85.029
 21
2.95589
 31
0.0
  0
LINE
  8
0
 62
     0
 10
85.029
 20
2.95589
 30
0.0
 11
85.3708
 21
2.61414
 31
0.0
  0
LINE
  8
0
 62
     0
 10
85.3708
 20
2.61414
 30
0.0
 11
85.8037
 21
2.39365
 31
0.0
  0
LINE
  8
0
 62
     0
 10
85.8037
 20
2.39365
 30
0.0
 11
86.2831
 21
2.31786
 31
0.0
  0
LINE
  8
0
 62
     0
 10
86.2831
 20
2.31786
 30
0.0
 11
86.7615
 21
2.39365
 31
0.0
  0
LINE
  8
0
 62
     0
 10
86.7615
 20
2.39365
 30
0.0
 11
87.194
 21
2.61414
 31
0.0
  0
LINE
  8
0
 62
     0
 10
87.194
 20
2.61414
 30
0.0
 11
87.5372
 21
2.95589
 31
0.0
  0
LINE
  8
0
 62
     0
 10
87.5372
 20
2.95589
 30
0.0
 11
87.7563
 21
3.38998
 31
0.0
  0
LINE
  8
0
 62
     0
 10
87.7563
 20
3.38998
 30
0.0
 11
87.8321
 21
3.86676
 31
0.0
  0
LINE
  8
0
 62
     0
 10
87.8321
 20
3.86676
 30
0.0
 11
87.7563
 21
4.34633
 31
0.0
  0
LINE
  8
0
 62
     0
 10
87.7563
 20
4.34633
 30
0.0
 11
87.5372
 21
4.77905
 31
0.0
  0
LINE
  8
0
 62
     0
 10
87.5372
 20
4.77905
 30
0.0
 11
87.194
 21
5.12078
 31
0.0
  0
LINE
  8
0
 62
     0
 10
87.194
 20
5.12078
 30
0.0
 11
86.7615
 21
5.34264
 31
0.0
  0
LINE
  8
0
 62
     0
 10
86.7615
 20
5.34264
 30
0.0
 11
86.2831
 21
5.41708
 31
0.0
  0
LINE
  8
0
 62
     0
 10
86.2831
 20
5.41708
 30
0.0
 11
85.8037
 21
5.34264
 31
0.0
  0
LINE
  8
0
 62
     0
 10
168.491
 20
5.34264
 30
0.0
 11
168.06
 21
5.12078
 31
0.0
  0
LINE
  8
0
 62
     0
 10
168.06
 20
5.12078
 30
0.0
 11
167.717
 21
4.77905
 31
0.0
  0
LINE
  8
0
 62
     0
 10
167.717
 20
4.77905
 30
0.0
 11
167.496
 21
4.34633
 31
0.0
  0
LINE
  8
0
 62
     0
 10
167.496
 20
4.34633
 30
0.0
 11
167.421
 21
3.86676
 31
0.0
  0
LINE
  8
0
 62
     0
 10
167.421
 20
3.86676
 30
0.0
 11
167.496
 21
3.38998
 31
0.0
  0
LINE
  8
0
 62
     0
 10
167.496
 20
3.38998
 30
0.0
 11
167.717
 21
2.95589
 31
0.0
  0
LINE
  8
0
 62
     0
 10
167.717
 20
2.95589
 30
0.0
 11
168.06
 21
2.61414
 31
0.0
  0
LINE
  8
0
 62
     0
 10
168.06
 20
2.61414
 30
0.0
 11
168.491
 21
2.39365
 31
0.0
  0
LINE
  8
0
 62
     0
 10
168.491
 20
2.39365
 30
0.0
 11
168.971
 21
2.31786
 31
0.0
  0
LINE
  8
0
 62
     0
 10
168.971
 20
2.31786
 30
0.0
 11
169.449
 21
2.39365
 31
0.0
  0
LINE
  8
0
 62
     0
 10
169.449
 20
2.39365
 30
0.0
 11
169.882
 21
2.61414
 31
0.0
  0
LINE
  8
0
 62
     0
 10
169.882
 20
2.61414
 30
0.0
 11
170.225
 21
2.95589
 31
0.0
  0
LINE
  8
0
 62
     0
 10
170.225
 20
2.95589
 30
0.0
 11
170.444
 21
3.38998
 31
0.0
  0
LINE
  8
0
 62
     0
 10
170.444
 20
3.38998
 30
0.0
 11
170.52
 21
3.86676
 31
0.0
  0
LINE
  8
0
 62
     0
 10
170.52
 20
3.86676
 30
0.0
 11
170.444
 21
4.34633
 31
0.0
  0
LINE
  8
0
 62
     0
 10
170.444
 20
4.34633
 30
0.0
 11
170.225
 21
4.77905
 31
0.0
  0
LINE
  8
0
 62
     0
 10
170.225
 20
4.77905
 30
0.0
 11
169.882
 21
5.12078
 31
0.0
  0
LINE
  8
0
 62
     0
 10
169.882
 20
5.12078
 30
0.0
 11
169.449
 21
5.34264
 31
0.0
  0
LINE
  8
0
 62
     0
 10
169.449
 20
5.34264
 30
0.0
 11
168.971
 21
5.41708
 31
0.0
  0
LINE
  8
0
 62
     0
 10
168.971
 20
5.41708
 30
0.0
 11
168.491
 21
5.34264
 31
0.0
  0
LINE
  8
0
 62
     0
 10
251.179
 20
5.34264
 30
0.0
 11
250.748
 21
5.12078
 31
0.0
  0
LINE
  8
0
 62
     0
 10
250.748
 20
5.12078
 30
0.0
 11
250.405
 21
4.77905
 31
0.0
  0
LINE
  8
0
 62
     0
 10
250.405
 20
4.77905
 30
0.0
 11
250.184
 21
4.34633
 31
0.0
  0
LINE
  8
0
 62
     0
 10
250.184
 20
4.34633
 30
0.0
 11
250.109
 21
3.86676
 31
0.0
  0
LINE
  8
0
 62
     0
 10
250.109
 20
3.86676
 30
0.0
 11
250.184
 21
3.38998
 31
0.0
  0
LINE
  8
0
 62
     0
 10
250.184
 20
3.38998
 30
0.0
 11
250.405
 21
2.95589
 31
0.0
  0
LINE
  8
0
 62
     0
 10
250.405
 20
2.95589
 30
0.0
 11
250.748
 21
2.61414
 31
0.0
  0
LINE
  8
0
 62
     0
 10
250.748
 20
2.61414
 30
0.0
 11
251.179
 21
2.39365
 31
0.0
  0
LINE
  8
0
 62
     0
 10
251.179
 20
2.39365
 30
0.0
 11
251.659
 21
2.31786
 31
0.0
  0
LINE
  8
0
 62
     0
 10
251.659
 20
2.31786
 30
0.0
 11
252.137
 21
2.39365
 31
0.0
  0
LINE
  8
0
 62
     0
 10
252.137
 20
2.39365
 30
0.0
 11
252.569
 21
2.61414
 31
0.0
  0
LINE
  8
0
 62
     0
 10
252.569
 20
2.61414
 30
0.0
 11
252.913
 21
2.95589
 31
0.0
  0
LINE
  8
0
 62
     0
 10
252.913
 20
2.95589
 30
0.0
 11
253.132
 21
3.38998
 31
0.0
  0
LINE
  8
0
 62
     0
 10
253.132
 20
3.38998
 30
0.0
 11
253.209
 21
3.86676
 31
0.0
  0
LINE
  8
0
 62
     0
 10
253.209
 20
3.86676
 30
0.0
 11
253.132
 21
4.34633
 31
0.0
  0
LINE
  8
0
 62
     0
 10
253.132
 20
4.34633
 30
0.0
 11
252.913
 21
4.77905
 31
0.0
  0
LINE
  8
0
 62
     0
 10
252.913
 20
4.77905
 30
0.0
 11
252.569
 21
5.12078
 31
0.0
  0
LINE
  8
0
 62
     0
 10
252.569
 20
5.12078
 30
0.0
 11
252.137
 21
5.34264
 31
0.0
  0
LINE
  8
0
 62
     0
 10
252.137
 20
5.34264
 30
0.0
 11
251.659
 21
5.41708
 31
0.0
  0
LINE
  8
0
 62
     0
 10
251.659
 20
5.41708
 30
0.0
 11
251.179
 21
5.34264
 31
0.0
  0
LINE
  8
0
 62
     0
 10
333.867
 20
5.34264
 30
0.0
 11
333.434
 21
5.12078
 31
0.0
  0
LINE
  8
0
 62
     0
 10
333.434
 20
5.12078
 30
0.0
 11
333.092
 21
4.77905
 31
0.0
  0
LINE
  8
0
 62
     0
 10
333.092
 20
4.77905
 30
0.0
 11
332.872
 21
4.34633
 31
0.0
  0
LINE
  8
0
 62
     0
 10
332.872
 20
4.34633
 30
0.0
 11
332.796
 21
3.86676
 31
0.0
  0
LINE
  8
0
 62
     0
 10
332.796
 20
3.86676
 30
0.0
 11
332.872
 21
3.38998
 31
0.0
  0
LINE
  8
0
 62
     0
 10
332.872
 20
3.38998
 30
0.0
 11
333.092
 21
2.95589
 31
0.0
  0
LINE
  8
0
 62
     0
 10
333.092
 20
2.95589
 30
0.0
 11
333.434
 21
2.61414
 31
0.0
  0
LINE
  8
0
 62
     0
 10
333.434
 20
2.61414
 30
0.0
 11
333.867
 21
2.39365
 31
0.0
  0
LINE
  8
0
 62
     0
 10
333.867
 20
2.39365
 30
0.0
 11
334.347
 21
2.31786
 31
0.0
  0
LINE
  8
0
 62
     0
 10
334.347
 20
2.31786
 30
0.0
 11
334.825
 21
2.39365
 31
0.0
  0
LINE
  8
0
 62
     0
 10
334.825
 20
2.39365
 30
0.0
 11
335.257
 21
2.61414
 31
0.0
  0
LINE
  8
0
 62
     0
 10
335.257
 20
2.61414
 30
0.0
 11
335.599
 21
2.95589
 31
0.0
  0
LINE
  8
0
 62
     0
 10
335.599
 20
2.95589
 30
0.0
 11
335.821
 21
3.38998
 31
0.0
  0
LINE
  8
0
 62
     0
 10
335.821
 20
3.38998
 30
0.0
 11
335.897
 21
3.86676
 31
0.0
  0
LINE
  8
0
 62
     0
 10
335.897
 20
3.86676
 30
0.0
 11
335.821
 21
4.34633
 31
0.0
  0
LINE
  8
0
 62
     0
 10
335.821
 20
4.34633
 30
0.0
 11
335.599
 21
4.77905
 31
0.0
  0
LINE
  8
0
 62
     0
 10
335.599
 20
4.77905
 30
0.0
 11
335.257
 21
5.12078
 31
0.0
  0
LINE
  8
0
 62
     0
 10
335.257
 20
5.12078
 30
0.0
 11
334.825
 21
5.34264
 31
0.0
  0
LINE
  8
0
 62
     0
 10
334.825
 20
5.34264
 30
0.0
 11
334.347
 21
5.41708
 31
0.0
  0
LINE
  8
0
 62
     0
 10
334.347
 20
5.41708
 30
0.0
 11
333.867
 21
5.34264
 31
0.0
  0
LINE
  8
0
 62
     0
 10
131.064
 20
23.8938
 30
0.0
 11
131.064
 21
22.8933
 31
0.0
  0
LINE
  8
0
 62
     0
 10
131.064
 20
22.8933
 30
0.0
 11
130.263
 21
22.8933
 31
0.0
  0
LINE
  8
0
 62
     0
 10
130.263
 20
22.8933
 30
0.0
 11
130.263
 21
19.7942
 31
0.0
  0
LINE
  8
0
 62
     0
 10
130.263
 20
19.7942
 30
0.0
 11
131.064
 21
19.7942
 31
0.0
  0
LINE
  8
0
 62
     0
 10
131.064
 20
19.7942
 30
0.0
 11
131.064
 21
19.1933
 31
0.0
  0
LINE
  8
0
 62
     0
 10
131.064
 20
19.1933
 30
0.0
 11
91.4382
 21
19.1933
 31
0.0
  0
LINE
  8
0
 62
     0
 10
91.4382
 20
19.1933
 30
0.0
 11
91.4382
 21
22.4234
 31
0.0
  0
LINE
  8
0
 62
     0
 10
91.4382
 20
22.4234
 30
0.0
 11
89.7132
 21
22.4234
 31
0.0
  0
LINE
  8
0
 62
     0
 10
89.7132
 20
22.4234
 30
0.0
 11
89.7132
 21
23.344
 31
0.0
  0
LINE
  8
0
 62
     0
 10
89.7132
 20
23.344
 30
0.0
 11
86.414
 21
23.344
 31
0.0
  0
LINE
  8
0
 62
     0
 10
86.414
 20
23.344
 30
0.0
 11
86.414
 21
22.4234
 31
0.0
  0
LINE
  8
0
 62
     0
 10
86.414
 20
22.4234
 30
0.0
 11
84.6889
 21
22.4234
 31
0.0
  0
LINE
  8
0
 62
     0
 10
84.6889
 20
22.4234
 30
0.0
 11
84.6889
 21
19.1933
 31
0.0
  0
LINE
  8
0
 62
     0
 10
84.6889
 20
19.1933
 30
0.0
 11
83.8634
 21
19.1933
 31
0.0
  0
LINE
  8
0
 62
     0
 10
83.8634
 20
19.1933
 30
0.0
 11
83.8634
 21
16.3932
 31
0.0
  0
LINE
  8
0
 62
     0
 10
83.8634
 20
16.3932
 30
0.0
 11
84.6889
 21
16.3932
 31
0.0
  0
LINE
  8
0
 62
     0
 10
84.6889
 20
16.3932
 30
0.0
 11
84.6889
 21
10.1244
 31
0.0
  0
LINE
  8
0
 62
     0
 10
84.6889
 20
10.1244
 30
0.0
 11
86.414
 21
10.1244
 31
0.0
  0
LINE
  8
0
 62
     0
 10
86.414
 20
10.1244
 30
0.0
 11
86.414
 21
9.14329
 31
0.0
  0
LINE
  8
0
 62
     0
 10
86.414
 20
9.14329
 30
0.0
 11
89.7132
 21
9.14329
 31
0.0
  0
LINE
  8
0
 62
     0
 10
89.7132
 20
9.14329
 30
0.0
 11
89.7132
 21
10.1244
 31
0.0
  0
LINE
  8
0
 62
     0
 10
89.7132
 20
10.1244
 30
0.0
 11
91.4382
 21
10.1244
 31
0.0
  0
LINE
  8
0
 62
     0
 10
91.4382
 20
10.1244
 30
0.0
 11
91.4382
 21
14.5948
 31
0.0
  0
LINE
  8
0
 62
     0
 10
91.4382
 20
14.5948
 30
0.0
 11
131.064
 21
14.5948
 31
0.0
  0
LINE
  8
0
 62
     0
 10
131.064
 20
14.5948
 30
0.0
 11
131.064
 21
13.994
 31
0.0
  0
LINE
  8
0
 62
     0
 10
131.064
 20
13.994
 30
0.0
 11
130.263
 21
13.994
 31
0.0
  0
LINE
  8
0
 62
     0
 10
130.263
 20
13.994
 30
0.0
 11
130.263
 21
10.8934
 31
0.0
  0
LINE
  8
0
 62
     0
 10
130.263
 20
10.8934
 30
0.0
 11
131.064
 21
10.8934
 31
0.0
  0
LINE
  8
0
 62
     0
 10
131.064
 20
10.8934
 30
0.0
 11
131.064
 21
9.89295
 31
0.0
  0
LINE
  8
0
 62
     0
 10
131.064
 20
9.89295
 30
0.0
 11
145.063
 21
9.89295
 31
0.0
  0
LINE
  8
0
 62
     0
 10
145.063
 20
9.89295
 30
0.0
 11
145.063
 21
10.8934
 31
0.0
  0
LINE
  8
0
 62
     0
 10
145.063
 20
10.8934
 30
0.0
 11
145.864
 21
10.8934
 31
0.0
  0
LINE
  8
0
 62
     0
 10
145.864
 20
10.8934
 30
0.0
 11
145.864
 21
13.994
 31
0.0
  0
LINE
  8
0
 62
     0
 10
145.864
 20
13.994
 30
0.0
 11
145.063
 21
13.994
 31
0.0
  0
LINE
  8
0
 62
     0
 10
145.063
 20
13.994
 30
0.0
 11
145.063
 21
14.5948
 31
0.0
  0
LINE
  8
0
 62
     0
 10
145.063
 20
14.5948
 30
0.0
 11
184.689
 21
14.5948
 31
0.0
  0
LINE
  8
0
 62
     0
 10
184.689
 20
14.5948
 30
0.0
 11
184.689
 21
10.1244
 31
0.0
  0
LINE
  8
0
 62
     0
 10
184.689
 20
10.1244
 30
0.0
 11
186.414
 21
10.1244
 31
0.0
  0
LINE
  8
0
 62
     0
 10
186.414
 20
10.1244
 30
0.0
 11
186.414
 21
9.14329
 31
0.0
  0
LINE
  8
0
 62
     0
 10
186.414
 20
9.14329
 30
0.0
 11
189.713
 21
9.14329
 31
0.0
  0
LINE
  8
0
 62
     0
 10
189.713
 20
9.14329
 30
0.0
 11
189.713
 21
10.1244
 31
0.0
  0
LINE
  8
0
 62
     0
 10
189.713
 20
10.1244
 30
0.0
 11
191.438
 21
10.1244
 31
0.0
  0
LINE
  8
0
 62
     0
 10
191.438
 20
10.1244
 30
0.0
 11
191.438
 21
16.3932
 31
0.0
  0
LINE
  8
0
 62
     0
 10
191.438
 20
16.3932
 30
0.0
 11
192.264
 21
16.3932
 31
0.0
  0
LINE
  8
0
 62
     0
 10
192.264
 20
16.3932
 30
0.0
 11
192.264
 21
19.1933
 31
0.0
  0
LINE
  8
0
 62
     0
 10
192.264
 20
19.1933
 30
0.0
 11
191.438
 21
19.1933
 31
0.0
  0
LINE
  8
0
 62
     0
 10
191.438
 20
19.1933
 30
0.0
 11
191.438
 21
22.4234
 31
0.0
  0
LINE
  8
0
 62
     0
 10
191.438
 20
22.4234
 30
0.0
 11
189.713
 21
22.4234
 31
0.0
  0
LINE
  8
0
 62
     0
 10
189.713
 20
22.4234
 30
0.0
 11
189.713
 21
23.344
 31
0.0
  0
LINE
  8
0
 62
     0
 10
189.713
 20
23.344
 30
0.0
 11
186.414
 21
23.344
 31
0.0
  0
LINE
  8
0
 62
     0
 10
186.414
 20
23.344
 30
0.0
 11
186.414
 21
22.4234
 31
0.0
  0
LINE
  8
0
 62
     0
 10
186.414
 20
22.4234
 30
0.0
 11
184.689
 21
22.4234
 31
0.0
  0
LINE
  8
0
 62
     0
 10
184.689
 20
22.4234
 30
0.0
 11
184.689
 21
19.1933
 31
0.0
  0
LINE
  8
0
 62
     0
 10
184.689
 20
19.1933
 30
0.0
 11
145.063
 21
19.1933
 31
0.0
  0
LINE
  8
0
 62
     0
 10
145.063
 20
19.1933
 30
0.0
 11
145.063
 21
19.7942
 31
0.0
  0
LINE
  8
0
 62
     0
 10
145.063
 20
19.7942
 30
0.0
 11
145.864
 21
19.7942
 31
0.0
  0
LINE
  8
0
 62
     0
 10
145.864
 20
19.7942
 30
0.0
 11
145.864
 21
22.8933
 31
0.0
  0
LINE
  8
0
 62
     0
 10
145.864
 20
22.8933
 30
0.0
 11
145.063
 21
22.8933
 31
0.0
  0
LINE
  8
0
 62
     0
 10
145.063
 20
22.8933
 30
0.0
 11
145.063
 21
23.8938
 31
0.0
  0
LINE
  8
0
 62
     0
 10
145.063
 20
23.8938
 30
0.0
 11
131.064
 21
23.8938
 31
0.0
  0
LINE
  8
0
 62
     0
 10
276.32
 20
23.8938
 30
0.0
 11
276.32
 21
22.8933
 31
0.0
  0
LINE
  8
0
 62
     0
 10
276.32
 20
22.8933
 30
0.0
 11
275.521
 21
22.8933
 31
0.0
  0
LINE
  8
0
 62
     0
 10
275.521
 20
22.8933
 30
0.0
 11
275.521
 21
19.7942
 31
0.0
  0
LINE
  8
0
 62
     0
 10
275.521
 20
19.7942
 30
0.0
 11
276.32
 21
19.7942
 31
0.0
  0
LINE
  8
0
 62
     0
 10
276.32
 20
19.7942
 30
0.0
 11
276.32
 21
13.994
 31
0.0
  0
LINE
  8
0
 62
     0
 10
276.32
 20
13.994
 30
0.0
 11
275.521
 21
13.994
 31
0.0
  0
LINE
  8
0
 62
     0
 10
275.521
 20
13.994
 30
0.0
 11
275.521
 21
10.8934
 31
0.0
  0
LINE
  8
0
 62
     0
 10
275.521
 20
10.8934
 30
0.0
 11
276.32
 21
10.8934
 31
0.0
  0
LINE
  8
0
 62
     0
 10
276.32
 20
10.8934
 30
0.0
 11
276.32
 21
9.89295
 31
0.0
  0
LINE
  8
0
 62
     0
 10
276.32
 20
9.89295
 30
0.0
 11
290.321
 21
9.89295
 31
0.0
  0
LINE
  8
0
 62
     0
 10
290.321
 20
9.89295
 30
0.0
 11
290.321
 21
10.8934
 31
0.0
  0
LINE
  8
0
 62
     0
 10
290.321
 20
10.8934
 30
0.0
 11
291.12
 21
10.8934
 31
0.0
  0
LINE
  8
0
 62
     0
 10
291.12
 20
10.8934
 30
0.0
 11
291.12
 21
13.994
 31
0.0
  0
LINE
  8
0
 62
     0
 10
291.12
 20
13.994
 30
0.0
 11
290.321
 21
13.994
 31
0.0
  0
LINE
  8
0
 62
     0
 10
290.321
 20
13.994
 30
0.0
 11
290.321
 21
19.7942
 31
0.0
  0
LINE
  8
0
 62
     0
 10
290.321
 20
19.7942
 30
0.0
 11
291.12
 21
19.7942
 31
0.0
  0
LINE
  8
0
 62
     0
 10
291.12
 20
19.7942
 30
0.0
 11
291.12
 21
22.8933
 31
0.0
  0
LINE
  8
0
 62
     0
 10
291.12
 20
22.8933
 30
0.0
 11
290.321
 21
22.8933
 31
0.0
  0
LINE
  8
0
 62
     0
 10
290.321
 20
22.8933
 30
0.0
 11
290.321
 21
23.8938
 31
0.0
  0
LINE
  8
0
 62
     0
 10
290.321
 20
23.8938
 30
0.0
 11
276.32
 21
23.8938
 31
0.0
  0
LINE
  8
0
 62
     0
 10
257.27
 20
23.8938
 30
0.0
 11
257.27
 21
22.8933
 31
0.0
  0
LINE
  8
0
 62
     0
 10
257.27
 20
22.8933
 30
0.0
 11
256.471
 21
22.8933
 31
0.0
  0
LINE
  8
0
 62
     0
 10
256.471
 20
22.8933
 30
0.0
 11
256.471
 21
19.7942
 31
0.0
  0
LINE
  8
0
 62
     0
 10
256.471
 20
19.7942
 30
0.0
 11
257.27
 21
19.7942
 31
0.0
  0
LINE
  8
0
 62
     0
 10
257.27
 20
19.7942
 30
0.0
 11
257.27
 21
13.994
 31
0.0
  0
LINE
  8
0
 62
     0
 10
257.27
 20
13.994
 30
0.0
 11
256.471
 21
13.994
 31
0.0
  0
LINE
  8
0
 62
     0
 10
256.471
 20
13.994
 30
0.0
 11
256.471
 21
10.8934
 31
0.0
  0
LINE
  8
0
 62
     0
 10
256.471
 20
10.8934
 30
0.0
 11
257.27
 21
10.8934
 31
0.0
  0
LINE
  8
0
 62
     0
 10
257.27
 20
10.8934
 30
0.0
 11
257.27
 21
9.89295
 31
0.0
  0
LINE
  8
0
 62
     0
 10
257.27
 20
9.89295
 30
0.0
 11
271.271
 21
9.89295
 31
0.0
  0
LINE
  8
0
 62
     0
 10
271.271
 20
9.89295
 30
0.0
 11
271.271
 21
10.8934
 31
0.0
  0
LINE
  8
0
 62
     0
 10
271.271
 20
10.8934
 30
0.0
 11
272.07
 21
10.8934
 31
0.0
  0
LINE
  8
0
 62
     0
 10
272.07
 20
10.8934
 30
0.0
 11
272.07
 21
13.994
 31
0.0
  0
LINE
  8
0
 62
     0
 10
272.07
 20
13.994
 30
0.0
 11
271.271
 21
13.994
 31
0.0
  0
LINE
  8
0
 62
     0
 10
271.271
 20
13.994
 30
0.0
 11
271.271
 21
19.7942
 31
0.0
  0
LINE
  8
0
 62
     0
 10
271.271
 20
19.7942
 30
0.0
 11
272.07
 21
19.7942
 31
0.0
  0
LINE
  8
0
 62
     0
 10
272.07
 20
19.7942
 30
0.0
 11
272.07
 21
22.8933
 31
0.0
  0
LINE
  8
0
 62
     0
 10
272.07
 20
22.8933
 30
0.0
 11
271.271
 21
22.8933
 31
0.0
  0
LINE
  8
0
 62
     0
 10
271.271
 20
22.8933
 30
0.0
 11
271.271
 21
23.8938
 31
0.0
  0
LINE
  8
0
 62
     0
 10
271.271
 20
23.8938
 30
0.0
 11
257.27
 21
23.8938
 31
0.0
  0
LINE
  8
0
 62
     0
 10
238.22
 20
23.8938
 30
0.0
 11
238.22
 21
22.8933
 31
0.0
  0
LINE
  8
0
 62
     0
 10
238.22
 20
22.8933
 30
0.0
 11
237.421
 21
22.8933
 31
0.0
  0
LINE
  8
0
 62
     0
 10
237.421
 20
22.8933
 30
0.0
 11
237.421
 21
19.7942
 31
0.0
  0
LINE
  8
0
 62
     0
 10
237.421
 20
19.7942
 30
0.0
 11
238.22
 21
19.7942
 31
0.0
  0
LINE
  8
0
 62
     0
 10
238.22
 20
19.7942
 30
0.0
 11
238.22
 21
13.994
 31
0.0
  0
LINE
  8
0
 62
     0
 10
238.22
 20
13.994
 30
0.0
 11
237.421
 21
13.994
 31
0.0
  0
LINE
  8
0
 62
     0
 10
237.421
 20
13.994
 30
0.0
 11
237.421
 21
10.8934
 31
0.0
  0
LINE
  8
0
 62
     0
 10
237.421
 20
10.8934
 30
0.0
 11
238.22
 21
10.8934
 31
0.0
  0
LINE
  8
0
 62
     0
 10
238.22
 20
10.8934
 30
0.0
 11
238.22
 21
9.89295
 31
0.0
  0
LINE
  8
0
 62
     0
 10
238.22
 20
9.89295
 30
0.0
 11
252.221
 21
9.89295
 31
0.0
  0
LINE
  8
0
 62
     0
 10
252.221
 20
9.89295
 30
0.0
 11
252.221
 21
10.8934
 31
0.0
  0
LINE
  8
0
 62
     0
 10
252.221
 20
10.8934
 30
0.0
 11
253.02
 21
10.8934
 31
0.0
  0
LINE
  8
0
 62
     0
 10
253.02
 20
10.8934
 30
0.0
 11
253.02
 21
13.994
 31
0.0
  0
LINE
  8
0
 62
     0
 10
253.02
 20
13.994
 30
0.0
 11
252.221
 21
13.994
 31
0.0
  0
LINE
  8
0
 62
     0
 10
252.221
 20
13.994
 30
0.0
 11
252.221
 21
19.7942
 31
0.0
  0
LINE
  8
0
 62
     0
 10
252.221
 20
19.7942
 30
0.0
 11
253.02
 21
19.7942
 31
0.0
  0
LINE
  8
0
 62
     0
 10
253.02
 20
19.7942
 30
0.0
 11
253.02
 21
22.8933
 31
0.0
  0
LINE
  8
0
 62
     0
 10
253.02
 20
22.8933
 30
0.0
 11
252.221
 21
22.8933
 31
0.0
  0
LINE
  8
0
 62
     0
 10
252.221
 20
22.8933
 30
0.0
 11
252.221
 21
23.8938
 31
0.0
  0
LINE
  8
0
 62
     0
 10
252.221
 20
23.8938
 30
0.0
 11
238.22
 21
23.8938
 31
0.0
  0
LINE
  8
0
 62
     0
 10
219.17
 20
23.8938
 30
0.0
 11
219.17
 21
22.8933
 31
0.0
  0
LINE
  8
0
 62
     0
 10
219.17
 20
22.8933
 30
0.0
 11
218.371
 21
22.8933
 31
0.0
  0
LINE
  8
0
 62
     0
 10
218.371
 20
22.8933
 30
0.0
 11
218.371
 21
19.7942
 31
0.0
  0
LINE
  8
0
 62
     0
 10
218.371
 20
19.7942
 30
0.0
 11
219.17
 21
19.7942
 31
0.0
  0
LINE
  8
0
 62
     0
 10
219.17
 20
19.7942
 30
0.0
 11
219.17
 21
13.994
 31
0.0
  0
LINE
  8
0
 62
     0
 10
219.17
 20
13.994
 30
0.0
 11
218.371
 21
13.994
 31
0.0
  0
LINE
  8
0
 62
     0
 10
218.371
 20
13.994
 30
0.0
 11
218.371
 21
10.8934
 31
0.0
  0
LINE
  8
0
 62
     0
 10
218.371
 20
10.8934
 30
0.0
 11
219.17
 21
10.8934
 31
0.0
  0
LINE
  8
0
 62
     0
 10
219.17
 20
10.8934
 30
0.0
 11
219.17
 21
9.89295
 31
0.0
  0
LINE
  8
0
 62
     0
 10
219.17
 20
9.89295
 30
0.0
 11
233.171
 21
9.89295
 31
0.0
  0
LINE
  8
0
 62
     0
 10
233.171
 20
9.89295
 30
0.0
 11
233.171
 21
10.8934
 31
0.0
  0
LINE
  8
0
 62
     0
 10
233.171
 20
10.8934
 30
0.0
 11
233.97
 21
10.8934
 31
0.0
  0
LINE
  8
0
 62
     0
 10
233.97
 20
10.8934
 30
0.0
 11
233.97
 21
13.994
 31
0.0
  0
LINE
  8
0
 62
     0
 10
233.97
 20
13.994
 30
0.0
 11
233.171
 21
13.994
 31
0.0
  0
LINE
  8
0
 62
     0
 10
233.171
 20
13.994
 30
0.0
 11
233.171
 21
19.7942
 31
0.0
  0
LINE
  8
0
 62
     0
 10
233.171
 20
19.7942
 30
0.0
 11
233.97
 21
19.7942
 31
0.0
  0
LINE
  8
0
 62
     0
 10
233.97
 20
19.7942
 30
0.0
 11
233.97
 21
22.8933
 31
0.0
  0
LINE
  8
0
 62
     0
 10
233.97
 20
22.8933
 30
0.0
 11
233.171
 21
22.8933
 31
0.0
  0
LINE
  8
0
 62
     0
 10
233.171
 20
22.8933
 30
0.0
 11
233.171
 21
23.8938
 31
0.0
  0
LINE
  8
0
 62
     0
 10
233.171
 20
23.8938
 30
0.0
 11
219.17
 21
23.8938
 31
0.0
  0
LINE
  8
0
 62
     0
 10
200.12
 20
23.8938
 30
0.0
 11
200.12
 21
22.8933
 31
0.0
  0
LINE
  8
0
 62
     0
 10
200.12
 20
22.8933
 30
0.0
 11
199.321
 21
22.8933
 31
0.0
  0
LINE
  8
0
 62
     0
 10
199.321
 20
22.8933
 30
0.0
 11
199.321
 21
19.7942
 31
0.0
  0
LINE
  8
0
 62
     0
 10
199.321
 20
19.7942
 30
0.0
 11
200.12
 21
19.7942
 31
0.0
  0
LINE
  8
0
 62
     0
 10
200.12
 20
19.7942
 30
0.0
 11
200.12
 21
13.994
 31
0.0
  0
LINE
  8
0
 62
     0
 10
200.12
 20
13.994
 30
0.0
 11
199.321
 21
13.994
 31
0.0
  0
LINE
  8
0
 62
     0
 10
199.321
 20
13.994
 30
0.0
 11
199.321
 21
10.8934
 31
0.0
  0
LINE
  8
0
 62
     0
 10
199.321
 20
10.8934
 30
0.0
 11
200.12
 21
10.8934
 31
0.0
  0
LINE
  8
0
 62
     0
 10
200.12
 20
10.8934
 30
0.0
 11
200.12
 21
9.89295
 31
0.0
  0
LINE
  8
0
 62
     0
 10
200.12
 20
9.89295
 30
0.0
 11
214.121
 21
9.89295
 31
0.0
  0
LINE
  8
0
 62
     0
 10
214.121
 20
9.89295
 30
0.0
 11
214.121
 21
10.8934
 31
0.0
  0
LINE
  8
0
 62
     0
 10
214.121
 20
10.8934
 30
0.0
 11
214.92
 21
10.8934
 31
0.0
  0
LINE
  8
0
 62
     0
 10
214.92
 20
10.8934
 30
0.0
 11
214.92
 21
13.994
 31
0.0
  0
LINE
  8
0
 62
     0
 10
214.92
 20
13.994
 30
0.0
 11
214.121
 21
13.994
 31
0.0
  0
LINE
  8
0
 62
     0
 10
214.121
 20
13.994
 30
0.0
 11
214.121
 21
19.7942
 31
0.0
  0
LINE
  8
0
 62
     0
 10
214.121
 20
19.7942
 30
0.0
 11
214.92
 21
19.7942
 31
0.0
  0
LINE
  8
0
 62
     0
 10
214.92
 20
19.7942
 30
0.0
 11
214.92
 21
22.8933
 31
0.0
  0
LINE
  8
0
 62
     0
 10
214.92
 20
22.8933
 30
0.0
 11
214.121
 21
22.8933
 31
0.0
  0
LINE
  8
0
 62
     0
 10
214.121
 20
22.8933
 30
0.0
 11
214.121
 21
23.8938
 31
0.0
  0
LINE
  8
0
 62
     0
 10
214.121
 20
23.8938
 30
0.0
 11
200.12
 21
23.8938
 31
0.0
  0
LINE
  8
0
 62
     0
 10
59.6265
 20
23.8938
 30
0.0
 11
59.6265
 21
22.8933
 31
0.0
  0
LINE
  8
0
 62
     0
 10
59.6265
 20
22.8933
 30
0.0
 11
58.8271
 21
22.8933
 31
0.0
  0
LINE
  8
0
 62
     0
 10
58.8271
 20
22.8933
 30
0.0
 11
58.8271
 21
19.7942
 31
0.0
  0
LINE
  8
0
 62
     0
 10
58.8271
 20
19.7942
 30
0.0
 11
59.6265
 21
19.7942
 31
0.0
  0
LINE
  8
0
 62
     0
 10
59.6265
 20
19.7942
 30
0.0
 11
59.6265
 21
13.994
 31
0.0
  0
LINE
  8
0
 62
     0
 10
59.6265
 20
13.994
 30
0.0
 11
58.8271
 21
13.994
 31
0.0
  0
LINE
  8
0
 62
     0
 10
58.8271
 20
13.994
 30
0.0
 11
58.8271
 21
10.8934
 31
0.0
  0
LINE
  8
0
 62
     0
 10
58.8271
 20
10.8934
 30
0.0
 11
59.6265
 21
10.8934
 31
0.0
  0
LINE
  8
0
 62
     0
 10
59.6265
 20
10.8934
 30
0.0
 11
59.6265
 21
9.89295
 31
0.0
  0
LINE
  8
0
 62
     0
 10
59.6265
 20
9.89295
 30
0.0
 11
73.6258
 21
9.89295
 31
0.0
  0
LINE
  8
0
 62
     0
 10
73.6258
 20
9.89295
 30
0.0
 11
73.6258
 21
10.8934
 31
0.0
  0
LINE
  8
0
 62
     0
 10
73.6258
 20
10.8934
 30
0.0
 11
74.4266
 21
10.8934
 31
0.0
  0
LINE
  8
0
 62
     0
 10
74.4266
 20
10.8934
 30
0.0
 11
74.4266
 21
13.994
 31
0.0
  0
LINE
  8
0
 62
     0
 10
74.4266
 20
13.994
 30
0.0
 11
73.6258
 21
13.994
 31
0.0
  0
LINE
  8
0
 62
     0
 10
73.6258
 20
13.994
 30
0.0
 11
73.6258
 21
19.7942
 31
0.0
  0
LINE
  8
0
 62
     0
 10
73.6258
 20
19.7942
 30
0.0
 11
74.4266
 21
19.7942
 31
0.0
  0
LINE
  8
0
 62
     0
 10
74.4266
 20
19.7942
 30
0.0
 11
74.4266
 21
22.8933
 31
0.0
  0
LINE
  8
0
 62
     0
 10
74.4266
 20
22.8933
 30
0.0
 11
73.6258
 21
22.8933
 31
0.0
  0
LINE
  8
0
 62
     0
 10
73.6258
 20
22.8933
 30
0.0
 11
73.6258
 21
23.8938
 31
0.0
  0
LINE
  8
0
 62
     0
 10
73.6258
 20
23.8938
 30
0.0
 11
59.6265
 21
23.8938
 31
0.0
  0
LINE
  8
0
 62
     0
 10
35.814
 20
23.8938
 30
0.0
 11
35.814
 21
22.8933
 31
0.0
  0
LINE
  8
0
 62
     0
 10
35.814
 20
22.8933
 30
0.0
 11
35.0132
 21
22.8933
 31
0.0
  0
LINE
  8
0
 62
     0
 10
35.0132
 20
22.8933
 30
0.0
 11
35.0132
 21
19.7942
 31
0.0
  0
LINE
  8
0
 62
     0
 10
35.0132
 20
19.7942
 30
0.0
 11
35.814
 21
19.7942
 31
0.0
  0
LINE
  8
0
 62
     0
 10
35.814
 20
19.7942
 30
0.0
 11
35.814
 21
13.994
 31
0.0
  0
LINE
  8
0
 62
     0
 10
35.814
 20
13.994
 30
0.0
 11
35.0132
 21
13.994
 31
0.0
  0
LINE
  8
0
 62
     0
 10
35.0132
 20
13.994
 30
0.0
 11
35.0132
 21
10.8934
 31
0.0
  0
LINE
  8
0
 62
     0
 10
35.0132
 20
10.8934
 30
0.0
 11
35.814
 21
10.8934
 31
0.0
  0
LINE
  8
0
 62
     0
 10
35.814
 20
10.8934
 30
0.0
 11
35.814
 21
9.89295
 31
0.0
  0
LINE
  8
0
 62
     0
 10
35.814
 20
9.89295
 30
0.0
 11
49.8133
 21
9.89295
 31
0.0
  0
LINE
  8
0
 62
     0
 10
49.8133
 20
9.89295
 30
0.0
 11
49.8133
 21
10.8934
 31
0.0
  0
LINE
  8
0
 62
     0
 10
49.8133
 20
10.8934
 30
0.0
 11
50.6141
 21
10.8934
 31
0.0
  0
LINE
  8
0
 62
     0
 10
50.6141
 20
10.8934
 30
0.0
 11
50.6141
 21
13.994
 31
0.0
  0
LINE
  8
0
 62
     0
 10
50.6141
 20
13.994
 30
0.0
 11
49.8133
 21
13.994
 31
0.0
  0
LINE
  8
0
 62
     0
 10
49.8133
 20
13.994
 30
0.0
 11
49.8133
 21
19.7942
 31
0.0
  0
LINE
  8
0
 62
     0
 10
49.8133
 20
19.7942
 30
0.0
 11
50.6141
 21
19.7942
 31
0.0
  0
LINE
  8
0
 62
     0
 10
50.6141
 20
19.7942
 30
0.0
 11
50.6141
 21
22.8933
 31
0.0
  0
LINE
  8
0
 62
     0
 10
50.6141
 20
22.8933
 30
0.0
 11
49.8133
 21
22.8933
 31
0.0
  0
LINE
  8
0
 62
     0
 10
49.8133
 20
22.8933
 30
0.0
 11
49.8133
 21
23.8938
 31
0.0
  0
LINE
  8
0
 62
     0
 10
49.8133
 20
23.8938
 30
0.0
 11
35.814
 21
23.8938
 31
0.0
  0
LINE
  8
0
 62
     0
 10
12.0013
 20
23.8938
 30
0.0
 11
12.0013
 21
22.8933
 31
0.0
  0
LINE
  8
0
 62
     0
 10
12.0013
 20
22.8933
 30
0.0
 11
11.2021
 21
22.8933
 31
0.0
  0
LINE
  8
0
 62
     0
 10
11.2021
 20
22.8933
 30
0.0
 11
11.2021
 21
19.7942
 31
0.0
  0
LINE
  8
0
 62
     0
 10
11.2021
 20
19.7942
 30
0.0
 11
12.0013
 21
19.7942
 31
0.0
  0
LINE
  8
0
 62
     0
 10
12.0013
 20
19.7942
 30
0.0
 11
12.0013
 21
13.994
 31
0.0
  0
LINE
  8
0
 62
     0
 10
12.0013
 20
13.994
 30
0.0
 11
11.2021
 21
13.994
 31
0.0
  0
LINE
  8
0
 62
     0
 10
11.2021
 20
13.994
 30
0.0
 11
11.2021
 21
10.8934
 31
0.0
  0
LINE
  8
0
 62
     0
 10
11.2021
 20
10.8934
 30
0.0
 11
12.0013
 21
10.8934
 31
0.0
  0
LINE
  8
0
 62
     0
 10
12.0013
 20
10.8934
 30
0.0
 11
12.0013
 21
9.89295
 31
0.0
  0
LINE
  8
0
 62
     0
 10
12.0013
 20
9.89295
 30
0.0
 11
26.0008
 21
9.89295
 31
0.0
  0
LINE
  8
0
 62
     0
 10
26.0008
 20
9.89295
 30
0.0
 11
26.0008
 21
10.8934
 31
0.0
  0
LINE
  8
0
 62
     0
 10
26.0008
 20
10.8934
 30
0.0
 11
26.8015
 21
10.8934
 31
0.0
  0
LINE
  8
0
 62
     0
 10
26.8015
 20
10.8934
 30
0.0
 11
26.8015
 21
13.994
 31
0.0
  0
LINE
  8
0
 62
     0
 10
26.8015
 20
13.994
 30
0.0
 11
26.0008
 21
13.994
 31
0.0
  0
LINE
  8
0
 62
     0
 10
26.0008
 20
13.994
 30
0.0
 11
26.0008
 21
19.7942
 31
0.0
  0
LINE
  8
0
 62
     0
 10
26.0008
 20
19.7942
 30
0.0
 11
26.8015
 21
19.7942
 31
0.0
  0
LINE
  8
0
 62
     0
 10
26.8015
 20
19.7942
 30
0.0
 11
26.8015
 21
22.8933
 31
0.0
  0
LINE
  8
0
 62
     0
 10
26.8015
 20
22.8933
 30
0.0
 11
26.0008
 21
22.8933
 31
0.0
  0
LINE
  8
0
 62
     0
 10
26.0008
 20
22.8933
 30
0.0
 11
26.0008
 21
23.8938
 31
0.0
  0
LINE
  8
0
 62
     0
 10
26.0008
 20
23.8938
 30
0.0
 11
12.0013
 21
23.8938
 31
0.0
  0
LINE
  8
0
 62
     0
 10
19.1451
 20
42.9436
 30
0.0
 11
19.1451
 21
41.9435
 31
0.0
  0
LINE
  8
0
 62
     0
 10
19.1451
 20
41.9435
 30
0.0
 11
18.3458
 21
41.9435
 31
0.0
  0
LINE
  8
0
 62
     0
 10
18.3458
 20
41.9435
 30
0.0
 11
18.3458
 21
38.844
 31
0.0
  0
LINE
  8
0
 62
     0
 10
18.3458
 20
38.844
 30
0.0
 11
19.1451
 21
38.844
 31
0.0
  0
LINE
  8
0
 62
     0
 10
19.1451
 20
38.844
 30
0.0
 11
19.1451
 21
38.2432
 31
0.0
  0
LINE
  8
0
 62
     0
 10
19.1451
 20
38.2432
 30
0.0
 11
17.621
 21
38.2432
 31
0.0
  0
LINE
  8
0
 62
     0
 10
17.621
 20
38.2432
 30
0.0
 11
17.621
 21
41.4736
 31
0.0
  0
LINE
  8
0
 62
     0
 10
17.621
 20
41.4736
 30
0.0
 11
15.8957
 21
41.4736
 31
0.0
  0
LINE
  8
0
 62
     0
 10
15.8957
 20
41.4736
 30
0.0
 11
15.8957
 21
42.394
 31
0.0
  0
LINE
  8
0
 62
     0
 10
15.8957
 20
42.394
 30
0.0
 11
12.5953
 21
42.394
 31
0.0
  0
LINE
  8
0
 62
     0
 10
12.5953
 20
42.394
 30
0.0
 11
12.5953
 21
41.4736
 31
0.0
  0
LINE
  8
0
 62
     0
 10
12.5953
 20
41.4736
 30
0.0
 11
10.87
 21
41.4736
 31
0.0
  0
LINE
  8
0
 62
     0
 10
10.87
 20
41.4736
 30
0.0
 11
10.87
 21
38.2432
 31
0.0
  0
LINE
  8
0
 62
     0
 10
10.87
 20
38.2432
 30
0.0
 11
10.0459
 21
38.2432
 31
0.0
  0
LINE
  8
0
 62
     0
 10
10.0459
 20
38.2432
 30
0.0
 11
10.0459
 21
35.4432
 31
0.0
  0
LINE
  8
0
 62
     0
 10
10.0459
 20
35.4432
 30
0.0
 11
10.87
 21
35.4432
 31
0.0
  0
LINE
  8
0
 62
     0
 10
10.87
 20
35.4432
 30
0.0
 11
10.87
 21
29.1731
 31
0.0
  0
LINE
  8
0
 62
     0
 10
10.87
 20
29.1731
 30
0.0
 11
12.5953
 21
29.1731
 31
0.0
  0
LINE
  8
0
 62
     0
 10
12.5953
 20
29.1731
 30
0.0
 11
12.5953
 21
28.1933
 31
0.0
  0
LINE
  8
0
 62
     0
 10
12.5953
 20
28.1933
 30
0.0
 11
15.8957
 21
28.1933
 31
0.0
  0
LINE
  8
0
 62
     0
 10
15.8957
 20
28.1933
 30
0.0
 11
15.8957
 21
29.1731
 31
0.0
  0
LINE
  8
0
 62
     0
 10
15.8957
 20
29.1731
 30
0.0
 11
17.621
 21
29.1731
 31
0.0
  0
LINE
  8
0
 62
     0
 10
17.621
 20
29.1731
 30
0.0
 11
17.621
 21
33.6434
 31
0.0
  0
LINE
  8
0
 62
     0
 10
17.621
 20
33.6434
 30
0.0
 11
19.1451
 21
33.6434
 31
0.0
  0
LINE
  8
0
 62
     0
 10
19.1451
 20
33.6434
 30
0.0
 11
19.1451
 21
33.044
 31
0.0
  0
LINE
  8
0
 62
     0
 10
19.1451
 20
33.044
 30
0.0
 11
18.3458
 21
33.044
 31
0.0
  0
LINE
  8
0
 62
     0
 10
18.3458
 20
33.044
 30
0.0
 11
18.3458
 21
29.9434
 31
0.0
  0
LINE
  8
0
 62
     0
 10
18.3458
 20
29.9434
 30
0.0
 11
19.1451
 21
29.9434
 31
0.0
  0
LINE
  8
0
 62
     0
 10
19.1451
 20
29.9434
 30
0.0
 11
19.1451
 21
28.9429
 31
0.0
  0
LINE
  8
0
 62
     0
 10
19.1451
 20
28.9429
 30
0.0
 11
33.1459
 21
28.9429
 31
0.0
  0
LINE
  8
0
 62
     0
 10
33.1459
 20
28.9429
 30
0.0
 11
33.1459
 21
29.9434
 31
0.0
  0
LINE
  8
0
 62
     0
 10
33.1459
 20
29.9434
 30
0.0
 11
33.9452
 21
29.9434
 31
0.0
  0
LINE
  8
0
 62
     0
 10
33.9452
 20
29.9434
 30
0.0
 11
33.9452
 21
33.044
 31
0.0
  0
LINE
  8
0
 62
     0
 10
33.9452
 20
33.044
 30
0.0
 11
33.1459
 21
33.044
 31
0.0
  0
LINE
  8
0
 62
     0
 10
33.1459
 20
33.044
 30
0.0
 11
33.1459
 21
33.6434
 31
0.0
  0
LINE
  8
0
 62
     0
 10
33.1459
 20
33.6434
 30
0.0
 11
34.67
 21
33.6434
 31
0.0
  0
LINE
  8
0
 62
     0
 10
34.67
 20
33.6434
 30
0.0
 11
34.67
 21
29.1731
 31
0.0
  0
LINE
  8
0
 62
     0
 10
34.67
 20
29.1731
 30
0.0
 11
36.3954
 21
29.1731
 31
0.0
  0
LINE
  8
0
 62
     0
 10
36.3954
 20
29.1731
 30
0.0
 11
36.3954
 21
28.1933
 31
0.0
  0
LINE
  8
0
 62
     0
 10
36.3954
 20
28.1933
 30
0.0
 11
39.6956
 21
28.1933
 31
0.0
  0
LINE
  8
0
 62
     0
 10
39.6956
 20
28.1933
 30
0.0
 11
39.6956
 21
29.1731
 31
0.0
  0
LINE
  8
0
 62
     0
 10
39.6956
 20
29.1731
 30
0.0
 11
41.4211
 21
29.1731
 31
0.0
  0
LINE
  8
0
 62
     0
 10
41.4211
 20
29.1731
 30
0.0
 11
41.4211
 21
35.4432
 31
0.0
  0
LINE
  8
0
 62
     0
 10
41.4211
 20
35.4432
 30
0.0
 11
42.2451
 21
35.4432
 31
0.0
  0
LINE
  8
0
 62
     0
 10
42.2451
 20
35.4432
 30
0.0
 11
42.2451
 21
38.2432
 31
0.0
  0
LINE
  8
0
 62
     0
 10
42.2451
 20
38.2432
 30
0.0
 11
41.4211
 21
38.2432
 31
0.0
  0
LINE
  8
0
 62
     0
 10
41.4211
 20
38.2432
 30
0.0
 11
41.4211
 21
41.4736
 31
0.0
  0
LINE
  8
0
 62
     0
 10
41.4211
 20
41.4736
 30
0.0
 11
39.6956
 21
41.4736
 31
0.0
  0
LINE
  8
0
 62
     0
 10
39.6956
 20
41.4736
 30
0.0
 11
39.6956
 21
42.394
 31
0.0
  0
LINE
  8
0
 62
     0
 10
39.6956
 20
42.394
 30
0.0
 11
36.3954
 21
42.394
 31
0.0
  0
LINE
  8
0
 62
     0
 10
36.3954
 20
42.394
 30
0.0
 11
36.3954
 21
41.4736
 31
0.0
  0
LINE
  8
0
 62
     0
 10
36.3954
 20
41.4736
 30
0.0
 11
34.67
 21
41.4736
 31
0.0
  0
LINE
  8
0
 62
     0
 10
34.67
 20
41.4736
 30
0.0
 11
34.67
 21
38.2432
 31
0.0
  0
LINE
  8
0
 62
     0
 10
34.67
 20
38.2432
 30
0.0
 11
33.1459
 21
38.2432
 31
0.0
  0
LINE
  8
0
 62
     0
 10
33.1459
 20
38.2432
 30
0.0
 11
33.1459
 21
38.844
 31
0.0
  0
LINE
  8
0
 62
     0
 10
33.1459
 20
38.844
 30
0.0
 11
33.9452
 21
38.844
 31
0.0
  0
LINE
  8
0
 62
     0
 10
33.9452
 20
38.844
 30
0.0
 11
33.9452
 21
41.9435
 31
0.0
  0
LINE
  8
0
 62
     0
 10
33.9452
 20
41.9435
 30
0.0
 11
33.1459
 21
41.9435
 31
0.0
  0
LINE
  8
0
 62
     0
 10
33.1459
 20
41.9435
 30
0.0
 11
33.1459
 21
42.9436
 31
0.0
  0
LINE
  8
0
 62
     0
 10
33.1459
 20
42.9436
 30
0.0
 11
19.1451
 21
42.9436
 31
0.0
  0
LINE
  8
0
 62
     0
 10
276.32
 20
42.9436
 30
0.0
 11
276.32
 21
41.9435
 31
0.0
  0
LINE
  8
0
 62
     0
 10
276.32
 20
41.9435
 30
0.0
 11
275.521
 21
41.9435
 31
0.0
  0
LINE
  8
0
 62
     0
 10
275.521
 20
41.9435
 30
0.0
 11
275.521
 21
38.844
 31
0.0
  0
LINE
  8
0
 62
     0
 10
275.521
 20
38.844
 30
0.0
 11
276.32
 21
38.844
 31
0.0
  0
LINE
  8
0
 62
     0
 10
276.32
 20
38.844
 30
0.0
 11
276.32
 21
33.044
 31
0.0
  0
LINE
  8
0
 62
     0
 10
276.32
 20
33.044
 30
0.0
 11
275.521
 21
33.044
 31
0.0
  0
LINE
  8
0
 62
     0
 10
275.521
 20
33.044
 30
0.0
 11
275.521
 21
29.9434
 31
0.0
  0
LINE
  8
0
 62
     0
 10
275.521
 20
29.9434
 30
0.0
 11
276.32
 21
29.9434
 31
0.0
  0
LINE
  8
0
 62
     0
 10
276.32
 20
29.9434
 30
0.0
 11
276.32
 21
28.9429
 31
0.0
  0
LINE
  8
0
 62
     0
 10
276.32
 20
28.9429
 30
0.0
 11
290.321
 21
28.9429
 31
0.0
  0
LINE
  8
0
 62
     0
 10
290.321
 20
28.9429
 30
0.0
 11
290.321
 21
29.9434
 31
0.0
  0
LINE
  8
0
 62
     0
 10
290.321
 20
29.9434
 30
0.0
 11
291.12
 21
29.9434
 31
0.0
  0
LINE
  8
0
 62
     0
 10
291.12
 20
29.9434
 30
0.0
 11
291.12
 21
33.044
 31
0.0
  0
LINE
  8
0
 62
     0
 10
291.12
 20
33.044
 30
0.0
 11
290.321
 21
33.044
 31
0.0
  0
LINE
  8
0
 62
     0
 10
290.321
 20
33.044
 30
0.0
 11
290.321
 21
38.844
 31
0.0
  0
LINE
  8
0
 62
     0
 10
290.321
 20
38.844
 30
0.0
 11
291.12
 21
38.844
 31
0.0
  0
LINE
  8
0
 62
     0
 10
291.12
 20
38.844
 30
0.0
 11
291.12
 21
41.9435
 31
0.0
  0
LINE
  8
0
 62
     0
 10
291.12
 20
41.9435
 30
0.0
 11
290.321
 21
41.9435
 31
0.0
  0
LINE
  8
0
 62
     0
 10
290.321
 20
41.9435
 30
0.0
 11
290.321
 21
42.9436
 31
0.0
  0
LINE
  8
0
 62
     0
 10
290.321
 20
42.9436
 30
0.0
 11
276.32
 21
42.9436
 31
0.0
  0
LINE
  8
0
 62
     0
 10
257.27
 20
42.9436
 30
0.0
 11
257.27
 21
41.9435
 31
0.0
  0
LINE
  8
0
 62
     0
 10
257.27
 20
41.9435
 30
0.0
 11
256.471
 21
41.9435
 31
0.0
  0
LINE
  8
0
 62
     0
 10
256.471
 20
41.9435
 30
0.0
 11
256.471
 21
38.844
 31
0.0
  0
LINE
  8
0
 62
     0
 10
256.471
 20
38.844
 30
0.0
 11
257.27
 21
38.844
 31
0.0
  0
LINE
  8
0
 62
     0
 10
257.27
 20
38.844
 30
0.0
 11
257.27
 21
33.044
 31
0.0
  0
LINE
  8
0
 62
     0
 10
257.27
 20
33.044
 30
0.0
 11
256.471
 21
33.044
 31
0.0
  0
LINE
  8
0
 62
     0
 10
256.471
 20
33.044
 30
0.0
 11
256.471
 21
29.9434
 31
0.0
  0
LINE
  8
0
 62
     0
 10
256.471
 20
29.9434
 30
0.0
 11
257.27
 21
29.9434
 31
0.0
  0
LINE
  8
0
 62
     0
 10
257.27
 20
29.9434
 30
0.0
 11
257.27
 21
28.9429
 31
0.0
  0
LINE
  8
0
 62
     0
 10
257.27
 20
28.9429
 30
0.0
 11
271.271
 21
28.9429
 31
0.0
  0
LINE
  8
0
 62
     0
 10
271.271
 20
28.9429
 30
0.0
 11
271.271
 21
29.9434
 31
0.0
  0
LINE
  8
0
 62
     0
 10
271.271
 20
29.9434
 30
0.0
 11
272.07
 21
29.9434
 31
0.0
  0
LINE
  8
0
 62
     0
 10
272.07
 20
29.9434
 30
0.0
 11
272.07
 21
33.044
 31
0.0
  0
LINE
  8
0
 62
     0
 10
272.07
 20
33.044
 30
0.0
 11
271.271
 21
33.044
 31
0.0
  0
LINE
  8
0
 62
     0
 10
271.271
 20
33.044
 30
0.0
 11
271.271
 21
38.844
 31
0.0
  0
LINE
  8
0
 62
     0
 10
271.271
 20
38.844
 30
0.0
 11
272.07
 21
38.844
 31
0.0
  0
LINE
  8
0
 62
     0
 10
272.07
 20
38.844
 30
0.0
 11
272.07
 21
41.9435
 31
0.0
  0
LINE
  8
0
 62
     0
 10
272.07
 20
41.9435
 30
0.0
 11
271.271
 21
41.9435
 31
0.0
  0
LINE
  8
0
 62
     0
 10
271.271
 20
41.9435
 30
0.0
 11
271.271
 21
42.9436
 31
0.0
  0
LINE
  8
0
 62
     0
 10
271.271
 20
42.9436
 30
0.0
 11
257.27
 21
42.9436
 31
0.0
  0
LINE
  8
0
 62
     0
 10
238.22
 20
42.9436
 30
0.0
 11
238.22
 21
41.9435
 31
0.0
  0
LINE
  8
0
 62
     0
 10
238.22
 20
41.9435
 30
0.0
 11
237.421
 21
41.9435
 31
0.0
  0
LINE
  8
0
 62
     0
 10
237.421
 20
41.9435
 30
0.0
 11
237.421
 21
38.844
 31
0.0
  0
LINE
  8
0
 62
     0
 10
237.421
 20
38.844
 30
0.0
 11
238.22
 21
38.844
 31
0.0
  0
LINE
  8
0
 62
     0
 10
238.22
 20
38.844
 30
0.0
 11
238.22
 21
33.044
 31
0.0
  0
LINE
  8
0
 62
     0
 10
238.22
 20
33.044
 30
0.0
 11
237.421
 21
33.044
 31
0.0
  0
LINE
  8
0
 62
     0
 10
237.421
 20
33.044
 30
0.0
 11
237.421
 21
29.9434
 31
0.0
  0
LINE
  8
0
 62
     0
 10
237.421
 20
29.9434
 30
0.0
 11
238.22
 21
29.9434
 31
0.0
  0
LINE
  8
0
 62
     0
 10
238.22
 20
29.9434
 30
0.0
 11
238.22
 21
28.9429
 31
0.0
  0
LINE
  8
0
 62
     0
 10
238.22
 20
28.9429
 30
0.0
 11
252.221
 21
28.9429
 31
0.0
  0
LINE
  8
0
 62
     0
 10
252.221
 20
28.9429
 30
0.0
 11
252.221
 21
29.9434
 31
0.0
  0
LINE
  8
0
 62
     0
 10
252.221
 20
29.9434
 30
0.0
 11
253.02
 21
29.9434
 31
0.0
  0
LINE
  8
0
 62
     0
 10
253.02
 20
29.9434
 30
0.0
 11
253.02
 21
33.044
 31
0.0
  0
LINE
  8
0
 62
     0
 10
253.02
 20
33.044
 30
0.0
 11
252.221
 21
33.044
 31
0.0
  0
LINE
  8
0
 62
     0
 10
252.221
 20
33.044
 30
0.0
 11
252.221
 21
38.844
 31
0.0
  0
LINE
  8
0
 62
     0
 10
252.221
 20
38.844
 30
0.0
 11
253.02
 21
38.844
 31
0.0
  0
LINE
  8
0
 62
     0
 10
253.02
 20
38.844
 30
0.0
 11
253.02
 21
41.9435
 31
0.0
  0
LINE
  8
0
 62
     0
 10
253.02
 20
41.9435
 30
0.0
 11
252.221
 21
41.9435
 31
0.0
  0
LINE
  8
0
 62
     0
 10
252.221
 20
41.9435
 30
0.0
 11
252.221
 21
42.9436
 31
0.0
  0
LINE
  8
0
 62
     0
 10
252.221
 20
42.9436
 30
0.0
 11
238.22
 21
42.9436
 31
0.0
  0
LINE
  8
0
 62
     0
 10
219.17
 20
42.9436
 30
0.0
 11
219.17
 21
41.9435
 31
0.0
  0
LINE
  8
0
 62
     0
 10
219.17
 20
41.9435
 30
0.0
 11
218.371
 21
41.9435
 31
0.0
  0
LINE
  8
0
 62
     0
 10
218.371
 20
41.9435
 30
0.0
 11
218.371
 21
38.844
 31
0.0
  0
LINE
  8
0
 62
     0
 10
218.371
 20
38.844
 30
0.0
 11
219.17
 21
38.844
 31
0.0
  0
LINE
  8
0
 62
     0
 10
219.17
 20
38.844
 30
0.0
 11
219.17
 21
33.044
 31
0.0
  0
LINE
  8
0
 62
     0
 10
219.17
 20
33.044
 30
0.0
 11
218.371
 21
33.044
 31
0.0
  0
LINE
  8
0
 62
     0
 10
218.371
 20
33.044
 30
0.0
 11
218.371
 21
29.9434
 31
0.0
  0
LINE
  8
0
 62
     0
 10
218.371
 20
29.9434
 30
0.0
 11
219.17
 21
29.9434
 31
0.0
  0
LINE
  8
0
 62
     0
 10
219.17
 20
29.9434
 30
0.0
 11
219.17
 21
28.9429
 31
0.0
  0
LINE
  8
0
 62
     0
 10
219.17
 20
28.9429
 30
0.0
 11
233.171
 21
28.9429
 31
0.0
  0
LINE
  8
0
 62
     0
 10
233.171
 20
28.9429
 30
0.0
 11
233.171
 21
29.9434
 31
0.0
  0
LINE
  8
0
 62
     0
 10
233.171
 20
29.9434
 30
0.0
 11
233.97
 21
29.9434
 31
0.0
  0
LINE
  8
0
 62
     0
 10
233.97
 20
29.9434
 30
0.0
 11
233.97
 21
33.044
 31
0.0
  0
LINE
  8
0
 62
     0
 10
233.97
 20
33.044
 30
0.0
 11
233.171
 21
33.044
 31
0.0
  0
LINE
  8
0
 62
     0
 10
233.171
 20
33.044
 30
0.0
 11
233.171
 21
38.844
 31
0.0
  0
LINE
  8
0
 62
     0
 10
233.171
 20
38.844
 30
0.0
 11
233.97
 21
38.844
 31
0.0
  0
LINE
  8
0
 62
     0
 10
233.97
 20
38.844
 30
0.0
 11
233.97
 21
41.9435
 31
0.0
  0
LINE
  8
0
 62
     0
 10
233.97
 20
41.9435
 30
0.0
 11
233.171
 21
41.9435
 31
0.0
  0
LINE
  8
0
 62
     0
 10
233.171
 20
41.9435
 30
0.0
 11
233.171
 21
42.9436
 31
0.0
  0
LINE
  8
0
 62
     0
 10
233.171
 20
42.9436
 30
0.0
 11
219.17
 21
42.9436
 31
0.0
  0
LINE
  8
0
 62
     0
 10
200.12
 20
42.9436
 30
0.0
 11
200.12
 21
41.9435
 31
0.0
  0
LINE
  8
0
 62
     0
 10
200.12
 20
41.9435
 30
0.0
 11
199.321
 21
41.9435
 31
0.0
  0
LINE
  8
0
 62
     0
 10
199.321
 20
41.9435
 30
0.0
 11
199.321
 21
38.844
 31
0.0
  0
LINE
  8
0
 62
     0
 10
199.321
 20
38.844
 30
0.0
 11
200.12
 21
38.844
 31
0.0
  0
LINE
  8
0
 62
     0
 10
200.12
 20
38.844
 30
0.0
 11
200.12
 21
33.044
 31
0.0
  0
LINE
  8
0
 62
     0
 10
200.12
 20
33.044
 30
0.0
 11
199.321
 21
33.044
 31
0.0
  0
LINE
  8
0
 62
     0
 10
199.321
 20
33.044
 30
0.0
 11
199.321
 21
29.9434
 31
0.0
  0
LINE
  8
0
 62
     0
 10
199.321
 20
29.9434
 30
0.0
 11
200.12
 21
29.9434
 31
0.0
  0
LINE
  8
0
 62
     0
 10
200.12
 20
29.9434
 30
0.0
 11
200.12
 21
28.9429
 31
0.0
  0
LINE
  8
0
 62
     0
 10
200.12
 20
28.9429
 30
0.0
 11
214.121
 21
28.9429
 31
0.0
  0
LINE
  8
0
 62
     0
 10
214.121
 20
28.9429
 30
0.0
 11
214.121
 21
29.9434
 31
0.0
  0
LINE
  8
0
 62
     0
 10
214.121
 20
29.9434
 30
0.0
 11
214.92
 21
29.9434
 31
0.0
  0
LINE
  8
0
 62
     0
 10
214.92
 20
29.9434
 30
0.0
 11
214.92
 21
33.044
 31
0.0
  0
LINE
  8
0
 62
     0
 10
214.92
 20
33.044
 30
0.0
 11
214.121
 21
33.044
 31
0.0
  0
LINE
  8
0
 62
     0
 10
214.121
 20
33.044
 30
0.0
 11
214.121
 21
38.844
 31
0.0
  0
LINE
  8
0
 62
     0
 10
214.121
 20
38.844
 30
0.0
 11
214.92
 21
38.844
 31
0.0
  0
LINE
  8
0
 62
     0
 10
214.92
 20
38.844
 30
0.0
 11
214.92
 21
41.9435
 31
0.0
  0
LINE
  8
0
 62
     0
 10
214.92
 20
41.9435
 30
0.0
 11
214.121
 21
41.9435
 31
0.0
  0
LINE
  8
0
 62
     0
 10
214.121
 20
41.9435
 30
0.0
 11
214.121
 21
42.9436
 31
0.0
  0
LINE
  8
0
 62
     0
 10
214.121
 20
42.9436
 30
0.0
 11
200.12
 21
42.9436
 31
0.0
  0
LINE
  8
0
 62
     0
 10
181.07
 20
42.9436
 30
0.0
 11
181.07
 21
41.9435
 31
0.0
  0
LINE
  8
0
 62
     0
 10
181.07
 20
41.9435
 30
0.0
 11
180.271
 21
41.9435
 31
0.0
  0
LINE
  8
0
 62
     0
 10
180.271
 20
41.9435
 30
0.0
 11
180.271
 21
38.844
 31
0.0
  0
LINE
  8
0
 62
     0
 10
180.271
 20
38.844
 30
0.0
 11
181.07
 21
38.844
 31
0.0
  0
LINE
  8
0
 62
     0
 10
181.07
 20
38.844
 30
0.0
 11
181.07
 21
33.044
 31
0.0
  0
LINE
  8
0
 62
     0
 10
181.07
 20
33.044
 30
0.0
 11
180.271
 21
33.044
 31
0.0
  0
LINE
  8
0
 62
     0
 10
180.271
 20
33.044
 30
0.0
 11
180.271
 21
29.9434
 31
0.0
  0
LINE
  8
0
 62
     0
 10
180.271
 20
29.9434
 30
0.0
 11
181.07
 21
29.9434
 31
0.0
  0
LINE
  8
0
 62
     0
 10
181.07
 20
29.9434
 30
0.0
 11
181.07
 21
28.9429
 31
0.0
  0
LINE
  8
0
 62
     0
 10
181.07
 20
28.9429
 30
0.0
 11
195.071
 21
28.9429
 31
0.0
  0
LINE
  8
0
 62
     0
 10
195.071
 20
28.9429
 30
0.0
 11
195.071
 21
29.9434
 31
0.0
  0
LINE
  8
0
 62
     0
 10
195.071
 20
29.9434
 30
0.0
 11
195.87
 21
29.9434
 31
0.0
  0
LINE
  8
0
 62
     0
 10
195.87
 20
29.9434
 30
0.0
 11
195.87
 21
33.044
 31
0.0
  0
LINE
  8
0
 62
     0
 10
195.87
 20
33.044
 30
0.0
 11
195.071
 21
33.044
 31
0.0
  0
LINE
  8
0
 62
     0
 10
195.071
 20
33.044
 30
0.0
 11
195.071
 21
38.844
 31
0.0
  0
LINE
  8
0
 62
     0
 10
195.071
 20
38.844
 30
0.0
 11
195.87
 21
38.844
 31
0.0
  0
LINE
  8
0
 62
     0
 10
195.87
 20
38.844
 30
0.0
 11
195.87
 21
41.9435
 31
0.0
  0
LINE
  8
0
 62
     0
 10
195.87
 20
41.9435
 30
0.0
 11
195.071
 21
41.9435
 31
0.0
  0
LINE
  8
0
 62
     0
 10
195.071
 20
41.9435
 30
0.0
 11
195.071
 21
42.9436
 31
0.0
  0
LINE
  8
0
 62
     0
 10
195.071
 20
42.9436
 30
0.0
 11
181.07
 21
42.9436
 31
0.0
  0
LINE
  8
0
 62
     0
 10
162.02
 20
42.9436
 30
0.0
 11
162.02
 21
41.9435
 31
0.0
  0
LINE
  8
0
 62
     0
 10
162.02
 20
41.9435
 30
0.0
 11
161.221
 21
41.9435
 31
0.0
  0
LINE
  8
0
 62
     0
 10
161.221
 20
41.9435
 30
0.0
 11
161.221
 21
38.844
 31
0.0
  0
LINE
  8
0
 62
     0
 10
161.221
 20
38.844
 30
0.0
 11
162.02
 21
38.844
 31
0.0
  0
LINE
  8
0
 62
     0
 10
162.02
 20
38.844
 30
0.0
 11
162.02
 21
33.044
 31
0.0
  0
LINE
  8
0
 62
     0
 10
162.02
 20
33.044
 30
0.0
 11
161.221
 21
33.044
 31
0.0
  0
LINE
  8
0
 62
     0
 10
161.221
 20
33.044
 30
0.0
 11
161.221
 21
29.9434
 31
0.0
  0
LINE
  8
0
 62
     0
 10
161.221
 20
29.9434
 30
0.0
 11
162.02
 21
29.9434
 31
0.0
  0
LINE
  8
0
 62
     0
 10
162.02
 20
29.9434
 30
0.0
 11
162.02
 21
28.9429
 31
0.0
  0
LINE
  8
0
 62
     0
 10
162.02
 20
28.9429
 30
0.0
 11
176.021
 21
28.9429
 31
0.0
  0
LINE
  8
0
 62
     0
 10
176.021
 20
28.9429
 30
0.0
 11
176.021
 21
29.9434
 31
0.0
  0
LINE
  8
0
 62
     0
 10
176.021
 20
29.9434
 30
0.0
 11
176.82
 21
29.9434
 31
0.0
  0
LINE
  8
0
 62
     0
 10
176.82
 20
29.9434
 30
0.0
 11
176.82
 21
33.044
 31
0.0
  0
LINE
  8
0
 62
     0
 10
176.82
 20
33.044
 30
0.0
 11
176.021
 21
33.044
 31
0.0
  0
LINE
  8
0
 62
     0
 10
176.021
 20
33.044
 30
0.0
 11
176.021
 21
38.844
 31
0.0
  0
LINE
  8
0
 62
     0
 10
176.021
 20
38.844
 30
0.0
 11
176.82
 21
38.844
 31
0.0
  0
LINE
  8
0
 62
     0
 10
176.82
 20
38.844
 30
0.0
 11
176.82
 21
41.9435
 31
0.0
  0
LINE
  8
0
 62
     0
 10
176.82
 20
41.9435
 30
0.0
 11
176.021
 21
41.9435
 31
0.0
  0
LINE
  8
0
 62
     0
 10
176.021
 20
41.9435
 30
0.0
 11
176.021
 21
42.9436
 31
0.0
  0
LINE
  8
0
 62
     0
 10
176.021
 20
42.9436
 30
0.0
 11
162.02
 21
42.9436
 31
0.0
  0
LINE
  8
0
 62
     0
 10
142.97
 20
42.9436
 30
0.0
 11
142.97
 21
41.9435
 31
0.0
  0
LINE
  8
0
 62
     0
 10
142.97
 20
41.9435
 30
0.0
 11
142.171
 21
41.9435
 31
0.0
  0
LINE
  8
0
 62
     0
 10
142.171
 20
41.9435
 30
0.0
 11
142.171
 21
38.844
 31
0.0
  0
LINE
  8
0
 62
     0
 10
142.171
 20
38.844
 30
0.0
 11
142.97
 21
38.844
 31
0.0
  0
LINE
  8
0
 62
     0
 10
142.97
 20
38.844
 30
0.0
 11
142.97
 21
33.044
 31
0.0
  0
LINE
  8
0
 62
     0
 10
142.97
 20
33.044
 30
0.0
 11
142.171
 21
33.044
 31
0.0
  0
LINE
  8
0
 62
     0
 10
142.171
 20
33.044
 30
0.0
 11
142.171
 21
29.9434
 31
0.0
  0
LINE
  8
0
 62
     0
 10
142.171
 20
29.9434
 30
0.0
 11
142.97
 21
29.9434
 31
0.0
  0
LINE
  8
0
 62
     0
 10
142.97
 20
29.9434
 30
0.0
 11
142.97
 21
28.9429
 31
0.0
  0
LINE
  8
0
 62
     0
 10
142.97
 20
28.9429
 30
0.0
 11
156.971
 21
28.9429
 31
0.0
  0
LINE
  8
0
 62
     0
 10
156.971
 20
28.9429
 30
0.0
 11
156.971
 21
29.9434
 31
0.0
  0
LINE
  8
0
 62
     0
 10
156.971
 20
29.9434
 30
0.0
 11
157.77
 21
29.9434
 31
0.0
  0
LINE
  8
0
 62
     0
 10
157.77
 20
29.9434
 30
0.0
 11
157.77
 21
33.044
 31
0.0
  0
LINE
  8
0
 62
     0
 10
157.77
 20
33.044
 30
0.0
 11
156.971
 21
33.044
 31
0.0
  0
LINE
  8
0
 62
     0
 10
156.971
 20
33.044
 30
0.0
 11
156.971
 21
38.844
 31
0.0
  0
LINE
  8
0
 62
     0
 10
156.971
 20
38.844
 30
0.0
 11
157.77
 21
38.844
 31
0.0
  0
LINE
  8
0
 62
     0
 10
157.77
 20
38.844
 30
0.0
 11
157.77
 21
41.9435
 31
0.0
  0
LINE
  8
0
 62
     0
 10
157.77
 20
41.9435
 30
0.0
 11
156.971
 21
41.9435
 31
0.0
  0
LINE
  8
0
 62
     0
 10
156.971
 20
41.9435
 30
0.0
 11
156.971
 21
42.9436
 31
0.0
  0
LINE
  8
0
 62
     0
 10
156.971
 20
42.9436
 30
0.0
 11
142.97
 21
42.9436
 31
0.0
  0
LINE
  8
0
 62
     0
 10
123.92
 20
42.9436
 30
0.0
 11
123.92
 21
41.9435
 31
0.0
  0
LINE
  8
0
 62
     0
 10
123.92
 20
41.9435
 30
0.0
 11
123.119
 21
41.9435
 31
0.0
  0
LINE
  8
0
 62
     0
 10
123.119
 20
41.9435
 30
0.0
 11
123.119
 21
38.844
 31
0.0
  0
LINE
  8
0
 62
     0
 10
123.119
 20
38.844
 30
0.0
 11
123.92
 21
38.844
 31
0.0
  0
LINE
  8
0
 62
     0
 10
123.92
 20
38.844
 30
0.0
 11
123.92
 21
33.044
 31
0.0
  0
LINE
  8
0
 62
     0
 10
123.92
 20
33.044
 30
0.0
 11
123.119
 21
33.044
 31
0.0
  0
LINE
  8
0
 62
     0
 10
123.119
 20
33.044
 30
0.0
 11
123.119
 21
29.9434
 31
0.0
  0
LINE
  8
0
 62
     0
 10
123.119
 20
29.9434
 30
0.0
 11
123.92
 21
29.9434
 31
0.0
  0
LINE
  8
0
 62
     0
 10
123.92
 20
29.9434
 30
0.0
 11
123.92
 21
28.9429
 31
0.0
  0
LINE
  8
0
 62
     0
 10
123.92
 20
28.9429
 30
0.0
 11
137.921
 21
28.9429
 31
0.0
  0
LINE
  8
0
 62
     0
 10
137.921
 20
28.9429
 30
0.0
 11
137.921
 21
29.9434
 31
0.0
  0
LINE
  8
0
 62
     0
 10
137.921
 20
29.9434
 30
0.0
 11
138.72
 21
29.9434
 31
0.0
  0
LINE
  8
0
 62
     0
 10
138.72
 20
29.9434
 30
0.0
 11
138.72
 21
33.044
 31
0.0
  0
LINE
  8
0
 62
     0
 10
138.72
 20
33.044
 30
0.0
 11
137.921
 21
33.044
 31
0.0
  0
LINE
  8
0
 62
     0
 10
137.921
 20
33.044
 30
0.0
 11
137.921
 21
38.844
 31
0.0
  0
LINE
  8
0
 62
     0
 10
137.921
 20
38.844
 30
0.0
 11
138.72
 21
38.844
 31
0.0
  0
LINE
  8
0
 62
     0
 10
138.72
 20
38.844
 30
0.0
 11
138.72
 21
41.9435
 31
0.0
  0
LINE
  8
0
 62
     0
 10
138.72
 20
41.9435
 30
0.0
 11
137.921
 21
41.9435
 31
0.0
  0
LINE
  8
0
 62
     0
 10
137.921
 20
41.9435
 30
0.0
 11
137.921
 21
42.9436
 31
0.0
  0
LINE
  8
0
 62
     0
 10
137.921
 20
42.9436
 30
0.0
 11
123.92
 21
42.9436
 31
0.0
  0
LINE
  8
0
 62
     0
 10
104.87
 20
42.9436
 30
0.0
 11
104.87
 21
41.9435
 31
0.0
  0
LINE
  8
0
 62
     0
 10
104.87
 20
41.9435
 30
0.0
 11
104.071
 21
41.9435
 31
0.0
  0
LINE
  8
0
 62
     0
 10
104.071
 20
41.9435
 30
0.0
 11
104.071
 21
38.844
 31
0.0
  0
LINE
  8
0
 62
     0
 10
104.071
 20
38.844
 30
0.0
 11
104.87
 21
38.844
 31
0.0
  0
LINE
  8
0
 62
     0
 10
104.87
 20
38.844
 30
0.0
 11
104.87
 21
33.044
 31
0.0
  0
LINE
  8
0
 62
     0
 10
104.87
 20
33.044
 30
0.0
 11
104.071
 21
33.044
 31
0.0
  0
LINE
  8
0
 62
     0
 10
104.071
 20
33.044
 30
0.0
 11
104.071
 21
29.9434
 31
0.0
  0
LINE
  8
0
 62
     0
 10
104.071
 20
29.9434
 30
0.0
 11
104.87
 21
29.9434
 31
0.0
  0
LINE
  8
0
 62
     0
 10
104.87
 20
29.9434
 30
0.0
 11
104.87
 21
28.9429
 31
0.0
  0
LINE
  8
0
 62
     0
 10
104.87
 20
28.9429
 30
0.0
 11
118.87
 21
28.9429
 31
0.0
  0
LINE
  8
0
 62
     0
 10
118.87
 20
28.9429
 30
0.0
 11
118.87
 21
29.9434
 31
0.0
  0
LINE
  8
0
 62
     0
 10
118.87
 20
29.9434
 30
0.0
 11
119.669
 21
29.9434
 31
0.0
  0
LINE
  8
0
 62
     0
 10
119.669
 20
29.9434
 30
0.0
 11
119.669
 21
33.044
 31
0.0
  0
LINE
  8
0
 62
     0
 10
119.669
 20
33.044
 30
0.0
 11
118.87
 21
33.044
 31
0.0
  0
LINE
  8
0
 62
     0
 10
118.87
 20
33.044
 30
0.0
 11
118.87
 21
38.844
 31
0.0
  0
LINE
  8
0
 62
     0
 10
118.87
 20
38.844
 30
0.0
 11
119.669
 21
38.844
 31
0.0
  0
LINE
  8
0
 62
     0
 10
119.669
 20
38.844
 30
0.0
 11
119.669
 21
41.9435
 31
0.0
  0
LINE
  8
0
 62
     0
 10
119.669
 20
41.9435
 30
0.0
 11
118.87
 21
41.9435
 31
0.0
  0
LINE
  8
0
 62
     0
 10
118.87
 20
41.9435
 30
0.0
 11
118.87
 21
42.9436
 31
0.0
  0
LINE
  8
0
 62
     0
 10
118.87
 20
42.9436
 30
0.0
 11
104.87
 21
42.9436
 31
0.0
  0
LINE
  8
0
 62
     0
 10
85.8203
 20
42.9436
 30
0.0
 11
85.8203
 21
41.9435
 31
0.0
  0
LINE
  8
0
 62
     0
 10
85.8203
 20
41.9435
 30
0.0
 11
85.0209
 21
41.9435
 31
0.0
  0
LINE
  8
0
 62
     0
 10
85.0209
 20
41.9435
 30
0.0
 11
85.0209
 21
38.844
 31
0.0
  0
LINE
  8
0
 62
     0
 10
85.0209
 20
38.844
 30
0.0
 11
85.8203
 21
38.844
 31
0.0
  0
LINE
  8
0
 62
     0
 10
85.8203
 20
38.844
 30
0.0
 11
85.8203
 21
33.044
 31
0.0
  0
LINE
  8
0
 62
     0
 10
85.8203
 20
33.044
 30
0.0
 11
85.0209
 21
33.044
 31
0.0
  0
LINE
  8
0
 62
     0
 10
85.0209
 20
33.044
 30
0.0
 11
85.0209
 21
29.9434
 31
0.0
  0
LINE
  8
0
 62
     0
 10
85.0209
 20
29.9434
 30
0.0
 11
85.8203
 21
29.9434
 31
0.0
  0
LINE
  8
0
 62
     0
 10
85.8203
 20
29.9434
 30
0.0
 11
85.8203
 21
28.9429
 31
0.0
  0
LINE
  8
0
 62
     0
 10
85.8203
 20
28.9429
 30
0.0
 11
99.8209
 21
28.9429
 31
0.0
  0
LINE
  8
0
 62
     0
 10
99.8209
 20
28.9429
 30
0.0
 11
99.8209
 21
29.9434
 31
0.0
  0
LINE
  8
0
 62
     0
 10
99.8209
 20
29.9434
 30
0.0
 11
100.619
 21
29.9434
 31
0.0
  0
LINE
  8
0
 62
     0
 10
100.619
 20
29.9434
 30
0.0
 11
100.619
 21
33.044
 31
0.0
  0
LINE
  8
0
 62
     0
 10
100.619
 20
33.044
 30
0.0
 11
99.8209
 21
33.044
 31
0.0
  0
LINE
  8
0
 62
     0
 10
99.8209
 20
33.044
 30
0.0
 11
99.8209
 21
38.844
 31
0.0
  0
LINE
  8
0
 62
     0
 10
99.8209
 20
38.844
 30
0.0
 11
100.619
 21
38.844
 31
0.0
  0
LINE
  8
0
 62
     0
 10
100.619
 20
38.844
 30
0.0
 11
100.619
 21
41.9435
 31
0.0
  0
LINE
  8
0
 62
     0
 10
100.619
 20
41.9435
 30
0.0
 11
99.8209
 21
41.9435
 31
0.0
  0
LINE
  8
0
 62
     0
 10
99.8209
 20
41.9435
 30
0.0
 11
99.8209
 21
42.9436
 31
0.0
  0
LINE
  8
0
 62
     0
 10
99.8209
 20
42.9436
 30
0.0
 11
85.8203
 21
42.9436
 31
0.0
  0
LINE
  8
0
 62
     0
 10
66.7703
 20
42.9436
 30
0.0
 11
66.7703
 21
41.9435
 31
0.0
  0
LINE
  8
0
 62
     0
 10
66.7703
 20
41.9435
 30
0.0
 11
65.9709
 21
41.9435
 31
0.0
  0
LINE
  8
0
 62
     0
 10
65.9709
 20
41.9435
 30
0.0
 11
65.9709
 21
38.844
 31
0.0
  0
LINE
  8
0
 62
     0
 10
65.9709
 20
38.844
 30
0.0
 11
66.7703
 21
38.844
 31
0.0
  0
LINE
  8
0
 62
     0
 10
66.7703
 20
38.844
 30
0.0
 11
66.7703
 21
33.044
 31
0.0
  0
LINE
  8
0
 62
     0
 10
66.7703
 20
33.044
 30
0.0
 11
65.9709
 21
33.044
 31
0.0
  0
LINE
  8
0
 62
     0
 10
65.9709
 20
33.044
 30
0.0
 11
65.9709
 21
29.9434
 31
0.0
  0
LINE
  8
0
 62
     0
 10
65.9709
 20
29.9434
 30
0.0
 11
66.7703
 21
29.9434
 31
0.0
  0
LINE
  8
0
 62
     0
 10
66.7703
 20
29.9434
 30
0.0
 11
66.7703
 21
28.9429
 31
0.0
  0
LINE
  8
0
 62
     0
 10
66.7703
 20
28.9429
 30
0.0
 11
80.7709
 21
28.9429
 31
0.0
  0
LINE
  8
0
 62
     0
 10
80.7709
 20
28.9429
 30
0.0
 11
80.7709
 21
29.9434
 31
0.0
  0
LINE
  8
0
 62
     0
 10
80.7709
 20
29.9434
 30
0.0
 11
81.5703
 21
29.9434
 31
0.0
  0
LINE
  8
0
 62
     0
 10
81.5703
 20
29.9434
 30
0.0
 11
81.5703
 21
33.044
 31
0.0
  0
LINE
  8
0
 62
     0
 10
81.5703
 20
33.044
 30
0.0
 11
80.7709
 21
33.044
 31
0.0
  0
LINE
  8
0
 62
     0
 10
80.7709
 20
33.044
 30
0.0
 11
80.7709
 21
38.844
 31
0.0
  0
LINE
  8
0
 62
     0
 10
80.7709
 20
38.844
 30
0.0
 11
81.5703
 21
38.844
 31
0.0
  0
LINE
  8
0
 62
     0
 10
81.5703
 20
38.844
 30
0.0
 11
81.5703
 21
41.9435
 31
0.0
  0
LINE
  8
0
 62
     0
 10
81.5703
 20
41.9435
 30
0.0
 11
80.7709
 21
41.9435
 31
0.0
  0
LINE
  8
0
 62
     0
 10
80.7709
 20
41.9435
 30
0.0
 11
80.7709
 21
42.9436
 31
0.0
  0
LINE
  8
0
 62
     0
 10
80.7709
 20
42.9436
 30
0.0
 11
66.7703
 21
42.9436
 31
0.0
  0
LINE
  8
0
 62
     0
 10
47.7203
 20
42.9436
 30
0.0
 11
47.7203
 21
41.9435
 31
0.0
  0
LINE
  8
0
 62
     0
 10
47.7203
 20
41.9435
 30
0.0
 11
46.9209
 21
41.9435
 31
0.0
  0
LINE
  8
0
 62
     0
 10
46.9209
 20
41.9435
 30
0.0
 11
46.9209
 21
38.844
 31
0.0
  0
LINE
  8
0
 62
     0
 10
46.9209
 20
38.844
 30
0.0
 11
47.7203
 21
38.844
 31
0.0
  0
LINE
  8
0
 62
     0
 10
47.7203
 20
38.844
 30
0.0
 11
47.7203
 21
33.044
 31
0.0
  0
LINE
  8
0
 62
     0
 10
47.7203
 20
33.044
 30
0.0
 11
46.9209
 21
33.044
 31
0.0
  0
LINE
  8
0
 62
     0
 10
46.9209
 20
33.044
 30
0.0
 11
46.9209
 21
29.9434
 31
0.0
  0
LINE
  8
0
 62
     0
 10
46.9209
 20
29.9434
 30
0.0
 11
47.7203
 21
29.9434
 31
0.0
  0
LINE
  8
0
 62
     0
 10
47.7203
 20
29.9434
 30
0.0
 11
47.7203
 21
28.9429
 31
0.0
  0
LINE
  8
0
 62
     0
 10
47.7203
 20
28.9429
 30
0.0
 11
61.7209
 21
28.9429
 31
0.0
  0
LINE
  8
0
 62
     0
 10
61.7209
 20
28.9429
 30
0.0
 11
61.7209
 21
29.9434
 31
0.0
  0
LINE
  8
0
 62
     0
 10
61.7209
 20
29.9434
 30
0.0
 11
62.5203
 21
29.9434
 31
0.0
  0
LINE
  8
0
 62
     0
 10
62.5203
 20
29.9434
 30
0.0
 11
62.5203
 21
33.044
 31
0.0
  0
LINE
  8
0
 62
     0
 10
62.5203
 20
33.044
 30
0.0
 11
61.7209
 21
33.044
 31
0.0
  0
LINE
  8
0
 62
     0
 10
61.7209
 20
33.044
 30
0.0
 11
61.7209
 21
38.844
 31
0.0
  0
LINE
  8
0
 62
     0
 10
61.7209
 20
38.844
 30
0.0
 11
62.5203
 21
38.844
 31
0.0
  0
LINE
  8
0
 62
     0
 10
62.5203
 20
38.844
 30
0.0
 11
62.5203
 21
41.9435
 31
0.0
  0
LINE
  8
0
 62
     0
 10
62.5203
 20
41.9435
 30
0.0
 11
61.7209
 21
41.9435
 31
0.0
  0
LINE
  8
0
 62
     0
 10
61.7209
 20
41.9435
 30
0.0
 11
61.7209
 21
42.9436
 31
0.0
  0
LINE
  8
0
 62
     0
 10
61.7209
 20
42.9436
 30
0.0
 11
47.7203
 21
42.9436
 31
0.0
  0
LINE
  8
0
 62
     0
 10
264.414
 20
61.9936
 30
0.0
 11
264.414
 21
60.9935
 31
0.0
  0
LINE
  8
0
 62
     0
 10
264.414
 20
60.9935
 30
0.0
 11
263.613
 21
60.9935
 31
0.0
  0
LINE
  8
0
 62
     0
 10
263.613
 20
60.9935
 30
0.0
 11
263.613
 21
57.8926
 31
0.0
  0
LINE
  8
0
 62
     0
 10
263.613
 20
57.8926
 30
0.0
 11
264.414
 21
57.8926
 31
0.0
  0
LINE
  8
0
 62
     0
 10
264.414
 20
57.8926
 30
0.0
 11
264.414
 21
57.2932
 31
0.0
  0
LINE
  8
0
 62
     0
 10
264.414
 20
57.2932
 30
0.0
 11
262.888
 21
57.2932
 31
0.0
  0
LINE
  8
0
 62
     0
 10
262.888
 20
57.2932
 30
0.0
 11
262.888
 21
60.5236
 31
0.0
  0
LINE
  8
0
 62
     0
 10
262.888
 20
60.5236
 30
0.0
 11
261.163
 21
60.5236
 31
0.0
  0
LINE
  8
0
 62
     0
 10
261.163
 20
60.5236
 30
0.0
 11
261.163
 21
61.444
 31
0.0
  0
LINE
  8
0
 62
     0
 10
261.163
 20
61.444
 30
0.0
 11
257.864
 21
61.444
 31
0.0
  0
LINE
  8
0
 62
     0
 10
257.864
 20
61.444
 30
0.0
 11
257.864
 21
60.5236
 31
0.0
  0
LINE
  8
0
 62
     0
 10
257.864
 20
60.5236
 30
0.0
 11
256.139
 21
60.5236
 31
0.0
  0
LINE
  8
0
 62
     0
 10
256.139
 20
60.5236
 30
0.0
 11
256.139
 21
57.2932
 31
0.0
  0
LINE
  8
0
 62
     0
 10
256.139
 20
57.2932
 30
0.0
 11
255.313
 21
57.2932
 31
0.0
  0
LINE
  8
0
 62
     0
 10
255.313
 20
57.2932
 30
0.0
 11
255.313
 21
54.4932
 31
0.0
  0
LINE
  8
0
 62
     0
 10
255.313
 20
54.4932
 30
0.0
 11
256.139
 21
54.4932
 31
0.0
  0
LINE
  8
0
 62
     0
 10
256.139
 20
54.4932
 30
0.0
 11
256.139
 21
48.223
 31
0.0
  0
LINE
  8
0
 62
     0
 10
256.139
 20
48.223
 30
0.0
 11
257.864
 21
48.223
 31
0.0
  0
LINE
  8
0
 62
     0
 10
257.864
 20
48.223
 30
0.0
 11
257.864
 21
47.2433
 31
0.0
  0
LINE
  8
0
 62
     0
 10
257.864
 20
47.2433
 30
0.0
 11
261.163
 21
47.2433
 31
0.0
  0
LINE
  8
0
 62
     0
 10
261.163
 20
47.2433
 30
0.0
 11
261.163
 21
48.223
 31
0.0
  0
LINE
  8
0
 62
     0
 10
261.163
 20
48.223
 30
0.0
 11
262.888
 21
48.223
 31
0.0
  0
LINE
  8
0
 62
     0
 10
262.888
 20
48.223
 30
0.0
 11
262.888
 21
52.6934
 31
0.0
  0
LINE
  8
0
 62
     0
 10
262.888
 20
52.6934
 30
0.0
 11
264.414
 21
52.6934
 31
0.0
  0
LINE
  8
0
 62
     0
 10
264.414
 20
52.6934
 30
0.0
 11
264.414
 21
52.094
 31
0.0
  0
LINE
  8
0
 62
     0
 10
264.414
 20
52.094
 30
0.0
 11
263.613
 21
52.094
 31
0.0
  0
LINE
  8
0
 62
     0
 10
263.613
 20
52.094
 30
0.0
 11
263.613
 21
48.9934
 31
0.0
  0
LINE
  8
0
 62
     0
 10
263.613
 20
48.9934
 30
0.0
 11
264.414
 21
48.9934
 31
0.0
  0
LINE
  8
0
 62
     0
 10
264.414
 20
48.9934
 30
0.0
 11
264.414
 21
47.9929
 31
0.0
  0
LINE
  8
0
 62
     0
 10
264.414
 20
47.9929
 30
0.0
 11
278.413
 21
47.9929
 31
0.0
  0
LINE
  8
0
 62
     0
 10
278.413
 20
47.9929
 30
0.0
 11
278.413
 21
48.9934
 31
0.0
  0
LINE
  8
0
 62
     0
 10
278.413
 20
48.9934
 30
0.0
 11
279.214
 21
48.9934
 31
0.0
  0
LINE
  8
0
 62
     0
 10
279.214
 20
48.9934
 30
0.0
 11
279.214
 21
52.094
 31
0.0
  0
LINE
  8
0
 62
     0
 10
279.214
 20
52.094
 30
0.0
 11
278.413
 21
52.094
 31
0.0
  0
LINE
  8
0
 62
     0
 10
278.413
 20
52.094
 30
0.0
 11
278.413
 21
52.6934
 31
0.0
  0
LINE
  8
0
 62
     0
 10
278.413
 20
52.6934
 30
0.0
 11
279.939
 21
52.6934
 31
0.0
  0
LINE
  8
0
 62
     0
 10
279.939
 20
52.6934
 30
0.0
 11
279.939
 21
48.223
 31
0.0
  0
LINE
  8
0
 62
     0
 10
279.939
 20
48.223
 30
0.0
 11
281.664
 21
48.223
 31
0.0
  0
LINE
  8
0
 62
     0
 10
281.664
 20
48.223
 30
0.0
 11
281.664
 21
47.2433
 31
0.0
  0
LINE
  8
0
 62
     0
 10
281.664
 20
47.2433
 30
0.0
 11
284.963
 21
47.2433
 31
0.0
  0
LINE
  8
0
 62
     0
 10
284.963
 20
47.2433
 30
0.0
 11
284.963
 21
48.223
 31
0.0
  0
LINE
  8
0
 62
     0
 10
284.963
 20
48.223
 30
0.0
 11
286.688
 21
48.223
 31
0.0
  0
LINE
  8
0
 62
     0
 10
286.688
 20
48.223
 30
0.0
 11
286.688
 21
54.4932
 31
0.0
  0
LINE
  8
0
 62
     0
 10
286.688
 20
54.4932
 30
0.0
 11
287.514
 21
54.4932
 31
0.0
  0
LINE
  8
0
 62
     0
 10
287.514
 20
54.4932
 30
0.0
 11
287.514
 21
57.2932
 31
0.0
  0
LINE
  8
0
 62
     0
 10
287.514
 20
57.2932
 30
0.0
 11
286.688
 21
57.2932
 31
0.0
  0
LINE
  8
0
 62
     0
 10
286.688
 20
57.2932
 30
0.0
 11
286.688
 21
60.5236
 31
0.0
  0
LINE
  8
0
 62
     0
 10
286.688
 20
60.5236
 30
0.0
 11
284.963
 21
60.5236
 31
0.0
  0
LINE
  8
0
 62
     0
 10
284.963
 20
60.5236
 30
0.0
 11
284.963
 21
61.444
 31
0.0
  0
LINE
  8
0
 62
     0
 10
284.963
 20
61.444
 30
0.0
 11
281.664
 21
61.444
 31
0.0
  0
LINE
  8
0
 62
     0
 10
281.664
 20
61.444
 30
0.0
 11
281.664
 21
60.5236
 31
0.0
  0
LINE
  8
0
 62
     0
 10
281.664
 20
60.5236
 30
0.0
 11
279.939
 21
60.5236
 31
0.0
  0
LINE
  8
0
 62
     0
 10
279.939
 20
60.5236
 30
0.0
 11
279.939
 21
57.2932
 31
0.0
  0
LINE
  8
0
 62
     0
 10
279.939
 20
57.2932
 30
0.0
 11
278.413
 21
57.2932
 31
0.0
  0
LINE
  8
0
 62
     0
 10
278.413
 20
57.2932
 30
0.0
 11
278.413
 21
57.8926
 31
0.0
  0
LINE
  8
0
 62
     0
 10
278.413
 20
57.8926
 30
0.0
 11
279.214
 21
57.8926
 31
0.0
  0
LINE
  8
0
 62
     0
 10
279.214
 20
57.8926
 30
0.0
 11
279.214
 21
60.9935
 31
0.0
  0
LINE
  8
0
 62
     0
 10
279.214
 20
60.9935
 30
0.0
 11
278.413
 21
60.9935
 31
0.0
  0
LINE
  8
0
 62
     0
 10
278.413
 20
60.9935
 30
0.0
 11
278.413
 21
61.9936
 31
0.0
  0
LINE
  8
0
 62
     0
 10
278.413
 20
61.9936
 30
0.0
 11
264.414
 21
61.9936
 31
0.0
  0
LINE
  8
0
 62
     0
 10
233.458
 20
61.9936
 30
0.0
 11
233.458
 21
60.9935
 31
0.0
  0
LINE
  8
0
 62
     0
 10
233.458
 20
60.9935
 30
0.0
 11
232.657
 21
60.9935
 31
0.0
  0
LINE
  8
0
 62
     0
 10
232.657
 20
60.9935
 30
0.0
 11
232.657
 21
57.8926
 31
0.0
  0
LINE
  8
0
 62
     0
 10
232.657
 20
57.8926
 30
0.0
 11
233.458
 21
57.8926
 31
0.0
  0
LINE
  8
0
 62
     0
 10
233.458
 20
57.8926
 30
0.0
 11
233.458
 21
52.094
 31
0.0
  0
LINE
  8
0
 62
     0
 10
233.458
 20
52.094
 30
0.0
 11
232.657
 21
52.094
 31
0.0
  0
LINE
  8
0
 62
     0
 10
232.657
 20
52.094
 30
0.0
 11
232.657
 21
48.9934
 31
0.0
  0
LINE
  8
0
 62
     0
 10
232.657
 20
48.9934
 30
0.0
 11
233.458
 21
48.9934
 31
0.0
  0
LINE
  8
0
 62
     0
 10
233.458
 20
48.9934
 30
0.0
 11
233.458
 21
47.9929
 31
0.0
  0
LINE
  8
0
 62
     0
 10
233.458
 20
47.9929
 30
0.0
 11
247.457
 21
47.9929
 31
0.0
  0
LINE
  8
0
 62
     0
 10
247.457
 20
47.9929
 30
0.0
 11
247.457
 21
48.9934
 31
0.0
  0
LINE
  8
0
 62
     0
 10
247.457
 20
48.9934
 30
0.0
 11
248.258
 21
48.9934
 31
0.0
  0
LINE
  8
0
 62
     0
 10
248.258
 20
48.9934
 30
0.0
 11
248.258
 21
52.094
 31
0.0
  0
LINE
  8
0
 62
     0
 10
248.258
 20
52.094
 30
0.0
 11
247.457
 21
52.094
 31
0.0
  0
LINE
  8
0
 62
     0
 10
247.457
 20
52.094
 30
0.0
 11
247.457
 21
57.8926
 31
0.0
  0
LINE
  8
0
 62
     0
 10
247.457
 20
57.8926
 30
0.0
 11
248.258
 21
57.8926
 31
0.0
  0
LINE
  8
0
 62
     0
 10
248.258
 20
57.8926
 30
0.0
 11
248.258
 21
60.9935
 31
0.0
  0
LINE
  8
0
 62
     0
 10
248.258
 20
60.9935
 30
0.0
 11
247.457
 21
60.9935
 31
0.0
  0
LINE
  8
0
 62
     0
 10
247.457
 20
60.9935
 30
0.0
 11
247.457
 21
61.9936
 31
0.0
  0
LINE
  8
0
 62
     0
 10
247.457
 20
61.9936
 30
0.0
 11
233.458
 21
61.9936
 31
0.0
  0
LINE
  8
0
 62
     0
 10
214.408
 20
61.9936
 30
0.0
 11
214.408
 21
60.9935
 31
0.0
  0
LINE
  8
0
 62
     0
 10
214.408
 20
60.9935
 30
0.0
 11
213.607
 21
60.9935
 31
0.0
  0
LINE
  8
0
 62
     0
 10
213.607
 20
60.9935
 30
0.0
 11
213.607
 21
57.8926
 31
0.0
  0
LINE
  8
0
 62
     0
 10
213.607
 20
57.8926
 30
0.0
 11
214.408
 21
57.8926
 31
0.0
  0
LINE
  8
0
 62
     0
 10
214.408
 20
57.8926
 30
0.0
 11
214.408
 21
52.094
 31
0.0
  0
LINE
  8
0
 62
     0
 10
214.408
 20
52.094
 30
0.0
 11
213.607
 21
52.094
 31
0.0
  0
LINE
  8
0
 62
     0
 10
213.607
 20
52.094
 30
0.0
 11
213.607
 21
48.9934
 31
0.0
  0
LINE
  8
0
 62
     0
 10
213.607
 20
48.9934
 30
0.0
 11
214.408
 21
48.9934
 31
0.0
  0
LINE
  8
0
 62
     0
 10
214.408
 20
48.9934
 30
0.0
 11
214.408
 21
47.9929
 31
0.0
  0
LINE
  8
0
 62
     0
 10
214.408
 20
47.9929
 30
0.0
 11
228.407
 21
47.9929
 31
0.0
  0
LINE
  8
0
 62
     0
 10
228.407
 20
47.9929
 30
0.0
 11
228.407
 21
48.9934
 31
0.0
  0
LINE
  8
0
 62
     0
 10
228.407
 20
48.9934
 30
0.0
 11
229.208
 21
48.9934
 31
0.0
  0
LINE
  8
0
 62
     0
 10
229.208
 20
48.9934
 30
0.0
 11
229.208
 21
52.094
 31
0.0
  0
LINE
  8
0
 62
     0
 10
229.208
 20
52.094
 30
0.0
 11
228.407
 21
52.094
 31
0.0
  0
LINE
  8
0
 62
     0
 10
228.407
 20
52.094
 30
0.0
 11
228.407
 21
57.8926
 31
0.0
  0
LINE
  8
0
 62
     0
 10
228.407
 20
57.8926
 30
0.0
 11
229.208
 21
57.8926
 31
0.0
  0
LINE
  8
0
 62
     0
 10
229.208
 20
57.8926
 30
0.0
 11
229.208
 21
60.9935
 31
0.0
  0
LINE
  8
0
 62
     0
 10
229.208
 20
60.9935
 30
0.0
 11
228.407
 21
60.9935
 31
0.0
  0
LINE
  8
0
 62
     0
 10
228.407
 20
60.9935
 30
0.0
 11
228.407
 21
61.9936
 31
0.0
  0
LINE
  8
0
 62
     0
 10
228.407
 20
61.9936
 30
0.0
 11
214.408
 21
61.9936
 31
0.0
  0
LINE
  8
0
 62
     0
 10
195.358
 20
61.9936
 30
0.0
 11
195.358
 21
60.9935
 31
0.0
  0
LINE
  8
0
 62
     0
 10
195.358
 20
60.9935
 30
0.0
 11
194.557
 21
60.9935
 31
0.0
  0
LINE
  8
0
 62
     0
 10
194.557
 20
60.9935
 30
0.0
 11
194.557
 21
57.8926
 31
0.0
  0
LINE
  8
0
 62
     0
 10
194.557
 20
57.8926
 30
0.0
 11
195.358
 21
57.8926
 31
0.0
  0
LINE
  8
0
 62
     0
 10
195.358
 20
57.8926
 30
0.0
 11
195.358
 21
52.094
 31
0.0
  0
LINE
  8
0
 62
     0
 10
195.358
 20
52.094
 30
0.0
 11
194.557
 21
52.094
 31
0.0
  0
LINE
  8
0
 62
     0
 10
194.557
 20
52.094
 30
0.0
 11
194.557
 21
48.9934
 31
0.0
  0
LINE
  8
0
 62
     0
 10
194.557
 20
48.9934
 30
0.0
 11
195.358
 21
48.9934
 31
0.0
  0
LINE
  8
0
 62
     0
 10
195.358
 20
48.9934
 30
0.0
 11
195.358
 21
47.9929
 31
0.0
  0
LINE
  8
0
 62
     0
 10
195.358
 20
47.9929
 30
0.0
 11
209.357
 21
47.9929
 31
0.0
  0
LINE
  8
0
 62
     0
 10
209.357
 20
47.9929
 30
0.0
 11
209.357
 21
48.9934
 31
0.0
  0
LINE
  8
0
 62
     0
 10
209.357
 20
48.9934
 30
0.0
 11
210.158
 21
48.9934
 31
0.0
  0
LINE
  8
0
 62
     0
 10
210.158
 20
48.9934
 30
0.0
 11
210.158
 21
52.094
 31
0.0
  0
LINE
  8
0
 62
     0
 10
210.158
 20
52.094
 30
0.0
 11
209.357
 21
52.094
 31
0.0
  0
LINE
  8
0
 62
     0
 10
209.357
 20
52.094
 30
0.0
 11
209.357
 21
57.8926
 31
0.0
  0
LINE
  8
0
 62
     0
 10
209.357
 20
57.8926
 30
0.0
 11
210.158
 21
57.8926
 31
0.0
  0
LINE
  8
0
 62
     0
 10
210.158
 20
57.8926
 30
0.0
 11
210.158
 21
60.9935
 31
0.0
  0
LINE
  8
0
 62
     0
 10
210.158
 20
60.9935
 30
0.0
 11
209.357
 21
60.9935
 31
0.0
  0
LINE
  8
0
 62
     0
 10
209.357
 20
60.9935
 30
0.0
 11
209.357
 21
61.9936
 31
0.0
  0
LINE
  8
0
 62
     0
 10
209.357
 20
61.9936
 30
0.0
 11
195.358
 21
61.9936
 31
0.0
  0
LINE
  8
0
 62
     0
 10
176.308
 20
61.9936
 30
0.0
 11
176.308
 21
60.9935
 31
0.0
  0
LINE
  8
0
 62
     0
 10
176.308
 20
60.9935
 30
0.0
 11
175.507
 21
60.9935
 31
0.0
  0
LINE
  8
0
 62
     0
 10
175.507
 20
60.9935
 30
0.0
 11
175.507
 21
57.8926
 31
0.0
  0
LINE
  8
0
 62
     0
 10
175.507
 20
57.8926
 30
0.0
 11
176.308
 21
57.8926
 31
0.0
  0
LINE
  8
0
 62
     0
 10
176.308
 20
57.8926
 30
0.0
 11
176.308
 21
52.094
 31
0.0
  0
LINE
  8
0
 62
     0
 10
176.308
 20
52.094
 30
0.0
 11
175.507
 21
52.094
 31
0.0
  0
LINE
  8
0
 62
     0
 10
175.507
 20
52.094
 30
0.0
 11
175.507
 21
48.9934
 31
0.0
  0
LINE
  8
0
 62
     0
 10
175.507
 20
48.9934
 30
0.0
 11
176.308
 21
48.9934
 31
0.0
  0
LINE
  8
0
 62
     0
 10
176.308
 20
48.9934
 30
0.0
 11
176.308
 21
47.9929
 31
0.0
  0
LINE
  8
0
 62
     0
 10
176.308
 20
47.9929
 30
0.0
 11
190.307
 21
47.9929
 31
0.0
  0
LINE
  8
0
 62
     0
 10
190.307
 20
47.9929
 30
0.0
 11
190.307
 21
48.9934
 31
0.0
  0
LINE
  8
0
 62
     0
 10
190.307
 20
48.9934
 30
0.0
 11
191.108
 21
48.9934
 31
0.0
  0
LINE
  8
0
 62
     0
 10
191.108
 20
48.9934
 30
0.0
 11
191.108
 21
52.094
 31
0.0
  0
LINE
  8
0
 62
     0
 10
191.108
 20
52.094
 30
0.0
 11
190.307
 21
52.094
 31
0.0
  0
LINE
  8
0
 62
     0
 10
190.307
 20
52.094
 30
0.0
 11
190.307
 21
57.8926
 31
0.0
  0
LINE
  8
0
 62
     0
 10
190.307
 20
57.8926
 30
0.0
 11
191.108
 21
57.8926
 31
0.0
  0
LINE
  8
0
 62
     0
 10
191.108
 20
57.8926
 30
0.0
 11
191.108
 21
60.9935
 31
0.0
  0
LINE
  8
0
 62
     0
 10
191.108
 20
60.9935
 30
0.0
 11
190.307
 21
60.9935
 31
0.0
  0
LINE
  8
0
 62
     0
 10
190.307
 20
60.9935
 30
0.0
 11
190.307
 21
61.9936
 31
0.0
  0
LINE
  8
0
 62
     0
 10
190.307
 20
61.9936
 30
0.0
 11
176.308
 21
61.9936
 31
0.0
  0
LINE
  8
0
 62
     0
 10
157.258
 20
61.9936
 30
0.0
 11
157.258
 21
60.9935
 31
0.0
  0
LINE
  8
0
 62
     0
 10
157.258
 20
60.9935
 30
0.0
 11
156.457
 21
60.9935
 31
0.0
  0
LINE
  8
0
 62
     0
 10
156.457
 20
60.9935
 30
0.0
 11
156.457
 21
57.8926
 31
0.0
  0
LINE
  8
0
 62
     0
 10
156.457
 20
57.8926
 30
0.0
 11
157.258
 21
57.8926
 31
0.0
  0
LINE
  8
0
 62
     0
 10
157.258
 20
57.8926
 30
0.0
 11
157.258
 21
52.094
 31
0.0
  0
LINE
  8
0
 62
     0
 10
157.258
 20
52.094
 30
0.0
 11
156.457
 21
52.094
 31
0.0
  0
LINE
  8
0
 62
     0
 10
156.457
 20
52.094
 30
0.0
 11
156.457
 21
48.9934
 31
0.0
  0
LINE
  8
0
 62
     0
 10
156.457
 20
48.9934
 30
0.0
 11
157.258
 21
48.9934
 31
0.0
  0
LINE
  8
0
 62
     0
 10
157.258
 20
48.9934
 30
0.0
 11
157.258
 21
47.9929
 31
0.0
  0
LINE
  8
0
 62
     0
 10
157.258
 20
47.9929
 30
0.0
 11
171.257
 21
47.9929
 31
0.0
  0
LINE
  8
0
 62
     0
 10
171.257
 20
47.9929
 30
0.0
 11
171.257
 21
48.9934
 31
0.0
  0
LINE
  8
0
 62
     0
 10
171.257
 20
48.9934
 30
0.0
 11
172.058
 21
48.9934
 31
0.0
  0
LINE
  8
0
 62
     0
 10
172.058
 20
48.9934
 30
0.0
 11
172.058
 21
52.094
 31
0.0
  0
LINE
  8
0
 62
     0
 10
172.058
 20
52.094
 30
0.0
 11
171.257
 21
52.094
 31
0.0
  0
LINE
  8
0
 62
     0
 10
171.257
 20
52.094
 30
0.0
 11
171.257
 21
57.8926
 31
0.0
  0
LINE
  8
0
 62
     0
 10
171.257
 20
57.8926
 30
0.0
 11
172.058
 21
57.8926
 31
0.0
  0
LINE
  8
0
 62
     0
 10
172.058
 20
57.8926
 30
0.0
 11
172.058
 21
60.9935
 31
0.0
  0
LINE
  8
0
 62
     0
 10
172.058
 20
60.9935
 30
0.0
 11
171.257
 21
60.9935
 31
0.0
  0
LINE
  8
0
 62
     0
 10
171.257
 20
60.9935
 30
0.0
 11
171.257
 21
61.9936
 31
0.0
  0
LINE
  8
0
 62
     0
 10
171.257
 20
61.9936
 30
0.0
 11
157.258
 21
61.9936
 31
0.0
  0
LINE
  8
0
 62
     0
 10
138.208
 20
61.9936
 30
0.0
 11
138.208
 21
60.9935
 31
0.0
  0
LINE
  8
0
 62
     0
 10
138.208
 20
60.9935
 30
0.0
 11
137.407
 21
60.9935
 31
0.0
  0
LINE
  8
0
 62
     0
 10
137.407
 20
60.9935
 30
0.0
 11
137.407
 21
57.8926
 31
0.0
  0
LINE
  8
0
 62
     0
 10
137.407
 20
57.8926
 30
0.0
 11
138.208
 21
57.8926
 31
0.0
  0
LINE
  8
0
 62
     0
 10
138.208
 20
57.8926
 30
0.0
 11
138.208
 21
52.094
 31
0.0
  0
LINE
  8
0
 62
     0
 10
138.208
 20
52.094
 30
0.0
 11
137.407
 21
52.094
 31
0.0
  0
LINE
  8
0
 62
     0
 10
137.407
 20
52.094
 30
0.0
 11
137.407
 21
48.9934
 31
0.0
  0
LINE
  8
0
 62
     0
 10
137.407
 20
48.9934
 30
0.0
 11
138.208
 21
48.9934
 31
0.0
  0
LINE
  8
0
 62
     0
 10
138.208
 20
48.9934
 30
0.0
 11
138.208
 21
47.9929
 31
0.0
  0
LINE
  8
0
 62
     0
 10
138.208
 20
47.9929
 30
0.0
 11
152.207
 21
47.9929
 31
0.0
  0
LINE
  8
0
 62
     0
 10
152.207
 20
47.9929
 30
0.0
 11
152.207
 21
48.9934
 31
0.0
  0
LINE
  8
0
 62
     0
 10
152.207
 20
48.9934
 30
0.0
 11
153.008
 21
48.9934
 31
0.0
  0
LINE
  8
0
 62
     0
 10
153.008
 20
48.9934
 30
0.0
 11
153.008
 21
52.094
 31
0.0
  0
LINE
  8
0
 62
     0
 10
153.008
 20
52.094
 30
0.0
 11
152.207
 21
52.094
 31
0.0
  0
LINE
  8
0
 62
     0
 10
152.207
 20
52.094
 30
0.0
 11
152.207
 21
57.8926
 31
0.0
  0
LINE
  8
0
 62
     0
 10
152.207
 20
57.8926
 30
0.0
 11
153.008
 21
57.8926
 31
0.0
  0
LINE
  8
0
 62
     0
 10
153.008
 20
57.8926
 30
0.0
 11
153.008
 21
60.9935
 31
0.0
  0
LINE
  8
0
 62
     0
 10
153.008
 20
60.9935
 30
0.0
 11
152.207
 21
60.9935
 31
0.0
  0
LINE
  8
0
 62
     0
 10
152.207
 20
60.9935
 30
0.0
 11
152.207
 21
61.9936
 31
0.0
  0
LINE
  8
0
 62
     0
 10
152.207
 20
61.9936
 30
0.0
 11
138.208
 21
61.9936
 31
0.0
  0
LINE
  8
0
 62
     0
 10
119.158
 20
61.9936
 30
0.0
 11
119.158
 21
60.9935
 31
0.0
  0
LINE
  8
0
 62
     0
 10
119.158
 20
60.9935
 30
0.0
 11
118.357
 21
60.9935
 31
0.0
  0
LINE
  8
0
 62
     0
 10
118.357
 20
60.9935
 30
0.0
 11
118.357
 21
57.8926
 31
0.0
  0
LINE
  8
0
 62
     0
 10
118.357
 20
57.8926
 30
0.0
 11
119.158
 21
57.8926
 31
0.0
  0
LINE
  8
0
 62
     0
 10
119.158
 20
57.8926
 30
0.0
 11
119.158
 21
52.094
 31
0.0
  0
LINE
  8
0
 62
     0
 10
119.158
 20
52.094
 30
0.0
 11
118.357
 21
52.094
 31
0.0
  0
LINE
  8
0
 62
     0
 10
118.357
 20
52.094
 30
0.0
 11
118.357
 21
48.9934
 31
0.0
  0
LINE
  8
0
 62
     0
 10
118.357
 20
48.9934
 30
0.0
 11
119.158
 21
48.9934
 31
0.0
  0
LINE
  8
0
 62
     0
 10
119.158
 20
48.9934
 30
0.0
 11
119.158
 21
47.9929
 31
0.0
  0
LINE
  8
0
 62
     0
 10
119.158
 20
47.9929
 30
0.0
 11
133.157
 21
47.9929
 31
0.0
  0
LINE
  8
0
 62
     0
 10
133.157
 20
47.9929
 30
0.0
 11
133.157
 21
48.9934
 31
0.0
  0
LINE
  8
0
 62
     0
 10
133.157
 20
48.9934
 30
0.0
 11
133.958
 21
48.9934
 31
0.0
  0
LINE
  8
0
 62
     0
 10
133.958
 20
48.9934
 30
0.0
 11
133.958
 21
52.094
 31
0.0
  0
LINE
  8
0
 62
     0
 10
133.958
 20
52.094
 30
0.0
 11
133.157
 21
52.094
 31
0.0
  0
LINE
  8
0
 62
     0
 10
133.157
 20
52.094
 30
0.0
 11
133.157
 21
57.8926
 31
0.0
  0
LINE
  8
0
 62
     0
 10
133.157
 20
57.8926
 30
0.0
 11
133.958
 21
57.8926
 31
0.0
  0
LINE
  8
0
 62
     0
 10
133.958
 20
57.8926
 30
0.0
 11
133.958
 21
60.9935
 31
0.0
  0
LINE
  8
0
 62
     0
 10
133.958
 20
60.9935
 30
0.0
 11
133.157
 21
60.9935
 31
0.0
  0
LINE
  8
0
 62
     0
 10
133.157
 20
60.9935
 30
0.0
 11
133.157
 21
61.9936
 31
0.0
  0
LINE
  8
0
 62
     0
 10
133.157
 20
61.9936
 30
0.0
 11
119.158
 21
61.9936
 31
0.0
  0
LINE
  8
0
 62
     0
 10
100.108
 20
61.9936
 30
0.0
 11
100.108
 21
60.9935
 31
0.0
  0
LINE
  8
0
 62
     0
 10
100.108
 20
60.9935
 30
0.0
 11
99.3069
 21
60.9935
 31
0.0
  0
LINE
  8
0
 62
     0
 10
99.3069
 20
60.9935
 30
0.0
 11
99.3069
 21
57.8926
 31
0.0
  0
LINE
  8
0
 62
     0
 10
99.3069
 20
57.8926
 30
0.0
 11
100.108
 21
57.8926
 31
0.0
  0
LINE
  8
0
 62
     0
 10
100.108
 20
57.8926
 30
0.0
 11
100.108
 21
52.094
 31
0.0
  0
LINE
  8
0
 62
     0
 10
100.108
 20
52.094
 30
0.0
 11
99.3069
 21
52.094
 31
0.0
  0
LINE
  8
0
 62
     0
 10
99.3069
 20
52.094
 30
0.0
 11
99.3069
 21
48.9934
 31
0.0
  0
LINE
  8
0
 62
     0
 10
99.3069
 20
48.9934
 30
0.0
 11
100.108
 21
48.9934
 31
0.0
  0
LINE
  8
0
 62
     0
 10
100.108
 20
48.9934
 30
0.0
 11
100.108
 21
47.9929
 31
0.0
  0
LINE
  8
0
 62
     0
 10
100.108
 20
47.9929
 30
0.0
 11
114.107
 21
47.9929
 31
0.0
  0
LINE
  8
0
 62
     0
 10
114.107
 20
47.9929
 30
0.0
 11
114.107
 21
48.9934
 31
0.0
  0
LINE
  8
0
 62
     0
 10
114.107
 20
48.9934
 30
0.0
 11
114.908
 21
48.9934
 31
0.0
  0
LINE
  8
0
 62
     0
 10
114.908
 20
48.9934
 30
0.0
 11
114.908
 21
52.094
 31
0.0
  0
LINE
  8
0
 62
     0
 10
114.908
 20
52.094
 30
0.0
 11
114.107
 21
52.094
 31
0.0
  0
LINE
  8
0
 62
     0
 10
114.107
 20
52.094
 30
0.0
 11
114.107
 21
57.8926
 31
0.0
  0
LINE
  8
0
 62
     0
 10
114.107
 20
57.8926
 30
0.0
 11
114.908
 21
57.8926
 31
0.0
  0
LINE
  8
0
 62
     0
 10
114.908
 20
57.8926
 30
0.0
 11
114.908
 21
60.9935
 31
0.0
  0
LINE
  8
0
 62
     0
 10
114.908
 20
60.9935
 30
0.0
 11
114.107
 21
60.9935
 31
0.0
  0
LINE
  8
0
 62
     0
 10
114.107
 20
60.9935
 30
0.0
 11
114.107
 21
61.9936
 31
0.0
  0
LINE
  8
0
 62
     0
 10
114.107
 20
61.9936
 30
0.0
 11
100.108
 21
61.9936
 31
0.0
  0
LINE
  8
0
 62
     0
 10
81.0578
 20
61.9936
 30
0.0
 11
81.0578
 21
60.9935
 31
0.0
  0
LINE
  8
0
 62
     0
 10
81.0578
 20
60.9935
 30
0.0
 11
80.2569
 21
60.9935
 31
0.0
  0
LINE
  8
0
 62
     0
 10
80.2569
 20
60.9935
 30
0.0
 11
80.2569
 21
57.8926
 31
0.0
  0
LINE
  8
0
 62
     0
 10
80.2569
 20
57.8926
 30
0.0
 11
81.0578
 21
57.8926
 31
0.0
  0
LINE
  8
0
 62
     0
 10
81.0578
 20
57.8926
 30
0.0
 11
81.0578
 21
52.094
 31
0.0
  0
LINE
  8
0
 62
     0
 10
81.0578
 20
52.094
 30
0.0
 11
80.2569
 21
52.094
 31
0.0
  0
LINE
  8
0
 62
     0
 10
80.2569
 20
52.094
 30
0.0
 11
80.2569
 21
48.9934
 31
0.0
  0
LINE
  8
0
 62
     0
 10
80.2569
 20
48.9934
 30
0.0
 11
81.0578
 21
48.9934
 31
0.0
  0
LINE
  8
0
 62
     0
 10
81.0578
 20
48.9934
 30
0.0
 11
81.0578
 21
47.9929
 31
0.0
  0
LINE
  8
0
 62
     0
 10
81.0578
 20
47.9929
 30
0.0
 11
95.057
 21
47.9929
 31
0.0
  0
LINE
  8
0
 62
     0
 10
95.057
 20
47.9929
 30
0.0
 11
95.057
 21
48.9934
 31
0.0
  0
LINE
  8
0
 62
     0
 10
95.057
 20
48.9934
 30
0.0
 11
95.8578
 21
48.9934
 31
0.0
  0
LINE
  8
0
 62
     0
 10
95.8578
 20
48.9934
 30
0.0
 11
95.8578
 21
52.094
 31
0.0
  0
LINE
  8
0
 62
     0
 10
95.8578
 20
52.094
 30
0.0
 11
95.057
 21
52.094
 31
0.0
  0
LINE
  8
0
 62
     0
 10
95.057
 20
52.094
 30
0.0
 11
95.057
 21
57.8926
 31
0.0
  0
LINE
  8
0
 62
     0
 10
95.057
 20
57.8926
 30
0.0
 11
95.8578
 21
57.8926
 31
0.0
  0
LINE
  8
0
 62
     0
 10
95.8578
 20
57.8926
 30
0.0
 11
95.8578
 21
60.9935
 31
0.0
  0
LINE
  8
0
 62
     0
 10
95.8578
 20
60.9935
 30
0.0
 11
95.057
 21
60.9935
 31
0.0
  0
LINE
  8
0
 62
     0
 10
95.057
 20
60.9935
 30
0.0
 11
95.057
 21
61.9936
 31
0.0
  0
LINE
  8
0
 62
     0
 10
95.057
 20
61.9936
 30
0.0
 11
81.0578
 21
61.9936
 31
0.0
  0
LINE
  8
0
 62
     0
 10
62.0078
 20
61.9936
 30
0.0
 11
62.0078
 21
60.9935
 31
0.0
  0
LINE
  8
0
 62
     0
 10
62.0078
 20
60.9935
 30
0.0
 11
61.2069
 21
60.9935
 31
0.0
  0
LINE
  8
0
 62
     0
 10
61.2069
 20
60.9935
 30
0.0
 11
61.2069
 21
57.8926
 31
0.0
  0
LINE
  8
0
 62
     0
 10
61.2069
 20
57.8926
 30
0.0
 11
62.0078
 21
57.8926
 31
0.0
  0
LINE
  8
0
 62
     0
 10
62.0078
 20
57.8926
 30
0.0
 11
62.0078
 21
52.094
 31
0.0
  0
LINE
  8
0
 62
     0
 10
62.0078
 20
52.094
 30
0.0
 11
61.2069
 21
52.094
 31
0.0
  0
LINE
  8
0
 62
     0
 10
61.2069
 20
52.094
 30
0.0
 11
61.2069
 21
48.9934
 31
0.0
  0
LINE
  8
0
 62
     0
 10
61.2069
 20
48.9934
 30
0.0
 11
62.0078
 21
48.9934
 31
0.0
  0
LINE
  8
0
 62
     0
 10
62.0078
 20
48.9934
 30
0.0
 11
62.0078
 21
47.9929
 31
0.0
  0
LINE
  8
0
 62
     0
 10
62.0078
 20
47.9929
 30
0.0
 11
76.007
 21
47.9929
 31
0.0
  0
LINE
  8
0
 62
     0
 10
76.007
 20
47.9929
 30
0.0
 11
76.007
 21
48.9934
 31
0.0
  0
LINE
  8
0
 62
     0
 10
76.007
 20
48.9934
 30
0.0
 11
76.8078
 21
48.9934
 31
0.0
  0
LINE
  8
0
 62
     0
 10
76.8078
 20
48.9934
 30
0.0
 11
76.8078
 21
52.094
 31
0.0
  0
LINE
  8
0
 62
     0
 10
76.8078
 20
52.094
 30
0.0
 11
76.007
 21
52.094
 31
0.0
  0
LINE
  8
0
 62
     0
 10
76.007
 20
52.094
 30
0.0
 11
76.007
 21
57.8926
 31
0.0
  0
LINE
  8
0
 62
     0
 10
76.007
 20
57.8926
 30
0.0
 11
76.8078
 21
57.8926
 31
0.0
  0
LINE
  8
0
 62
     0
 10
76.8078
 20
57.8926
 30
0.0
 11
76.8078
 21
60.9935
 31
0.0
  0
LINE
  8
0
 62
     0
 10
76.8078
 20
60.9935
 30
0.0
 11
76.007
 21
60.9935
 31
0.0
  0
LINE
  8
0
 62
     0
 10
76.007
 20
60.9935
 30
0.0
 11
76.007
 21
61.9936
 31
0.0
  0
LINE
  8
0
 62
     0
 10
76.007
 20
61.9936
 30
0.0
 11
62.0078
 21
61.9936
 31
0.0
  0
LINE
  8
0
 62
     0
 10
42.9577
 20
61.9936
 30
0.0
 11
42.9577
 21
60.9935
 31
0.0
  0
LINE
  8
0
 62
     0
 10
42.9577
 20
60.9935
 30
0.0
 11
42.1569
 21
60.9935
 31
0.0
  0
LINE
  8
0
 62
     0
 10
42.1569
 20
60.9935
 30
0.0
 11
42.1569
 21
57.8926
 31
0.0
  0
LINE
  8
0
 62
     0
 10
42.1569
 20
57.8926
 30
0.0
 11
42.9577
 21
57.8926
 31
0.0
  0
LINE
  8
0
 62
     0
 10
42.9577
 20
57.8926
 30
0.0
 11
42.9577
 21
52.094
 31
0.0
  0
LINE
  8
0
 62
     0
 10
42.9577
 20
52.094
 30
0.0
 11
42.1569
 21
52.094
 31
0.0
  0
LINE
  8
0
 62
     0
 10
42.1569
 20
52.094
 30
0.0
 11
42.1569
 21
48.9934
 31
0.0
  0
LINE
  8
0
 62
     0
 10
42.1569
 20
48.9934
 30
0.0
 11
42.9577
 21
48.9934
 31
0.0
  0
LINE
  8
0
 62
     0
 10
42.9577
 20
48.9934
 30
0.0
 11
42.9577
 21
47.9929
 31
0.0
  0
LINE
  8
0
 62
     0
 10
42.9577
 20
47.9929
 30
0.0
 11
56.957
 21
47.9929
 31
0.0
  0
LINE
  8
0
 62
     0
 10
56.957
 20
47.9929
 30
0.0
 11
56.957
 21
48.9934
 31
0.0
  0
LINE
  8
0
 62
     0
 10
56.957
 20
48.9934
 30
0.0
 11
57.7578
 21
48.9934
 31
0.0
  0
LINE
  8
0
 62
     0
 10
57.7578
 20
48.9934
 30
0.0
 11
57.7578
 21
52.094
 31
0.0
  0
LINE
  8
0
 62
     0
 10
57.7578
 20
52.094
 30
0.0
 11
56.957
 21
52.094
 31
0.0
  0
LINE
  8
0
 62
     0
 10
56.957
 20
52.094
 30
0.0
 11
56.957
 21
57.8926
 31
0.0
  0
LINE
  8
0
 62
     0
 10
56.957
 20
57.8926
 30
0.0
 11
57.7578
 21
57.8926
 31
0.0
  0
LINE
  8
0
 62
     0
 10
57.7578
 20
57.8926
 30
0.0
 11
57.7578
 21
60.9935
 31
0.0
  0
LINE
  8
0
 62
     0
 10
57.7578
 20
60.9935
 30
0.0
 11
56.957
 21
60.9935
 31
0.0
  0
LINE
  8
0
 62
     0
 10
56.957
 20
60.9935
 30
0.0
 11
56.957
 21
61.9936
 31
0.0
  0
LINE
  8
0
 62
     0
 10
56.957
 20
61.9936
 30
0.0
 11
42.9577
 21
61.9936
 31
0.0
  0
LINE
  8
0
 62
     0
 10
16.7638
 20
61.9936
 30
0.0
 11
16.7638
 21
60.9935
 31
0.0
  0
LINE
  8
0
 62
     0
 10
16.7638
 20
60.9935
 30
0.0
 11
15.9632
 21
60.9935
 31
0.0
  0
LINE
  8
0
 62
     0
 10
15.9632
 20
60.9935
 30
0.0
 11
15.9632
 21
57.8926
 31
0.0
  0
LINE
  8
0
 62
     0
 10
15.9632
 20
57.8926
 30
0.0
 11
16.7638
 21
57.8926
 31
0.0
  0
LINE
  8
0
 62
     0
 10
16.7638
 20
57.8926
 30
0.0
 11
16.7638
 21
52.094
 31
0.0
  0
LINE
  8
0
 62
     0
 10
16.7638
 20
52.094
 30
0.0
 11
15.9632
 21
52.094
 31
0.0
  0
LINE
  8
0
 62
     0
 10
15.9632
 20
52.094
 30
0.0
 11
15.9632
 21
48.9934
 31
0.0
  0
LINE
  8
0
 62
     0
 10
15.9632
 20
48.9934
 30
0.0
 11
16.7638
 21
48.9934
 31
0.0
  0
LINE
  8
0
 62
     0
 10
16.7638
 20
48.9934
 30
0.0
 11
16.7638
 21
47.9929
 31
0.0
  0
LINE
  8
0
 62
     0
 10
16.7638
 20
47.9929
 30
0.0
 11
30.7633
 21
47.9929
 31
0.0
  0
LINE
  8
0
 62
     0
 10
30.7633
 20
47.9929
 30
0.0
 11
30.7633
 21
48.9934
 31
0.0
  0
LINE
  8
0
 62
     0
 10
30.7633
 20
48.9934
 30
0.0
 11
31.564
 21
48.9934
 31
0.0
  0
LINE
  8
0
 62
     0
 10
31.564
 20
48.9934
 30
0.0
 11
31.564
 21
52.094
 31
0.0
  0
LINE
  8
0
 62
     0
 10
31.564
 20
52.094
 30
0.0
 11
30.7633
 21
52.094
 31
0.0
  0
LINE
  8
0
 62
     0
 10
30.7633
 20
52.094
 30
0.0
 11
30.7633
 21
57.8926
 31
0.0
  0
LINE
  8
0
 62
     0
 10
30.7633
 20
57.8926
 30
0.0
 11
31.564
 21
57.8926
 31
0.0
  0
LINE
  8
0
 62
     0
 10
31.564
 20
57.8926
 30
0.0
 11
31.564
 21
60.9935
 31
0.0
  0
LINE
  8
0
 62
     0
 10
31.564
 20
60.9935
 30
0.0
 11
30.7633
 21
60.9935
 31
0.0
  0
LINE
  8
0
 62
     0
 10
30.7633
 20
60.9935
 30
0.0
 11
30.7633
 21
61.9936
 31
0.0
  0
LINE
  8
0
 62
     0
 10
30.7633
 20
61.9936
 30
0.0
 11
16.7638
 21
61.9936
 31
0.0
  0
LINE
  8
0
 62
     0
 10
271.558
 20
81.0436
 30
0.0
 11
271.558
 21
80.0435
 31
0.0
  0
LINE
  8
0
 62
     0
 10
271.558
 20
80.0435
 30
0.0
 11
270.757
 21
80.0435
 31
0.0
  0
LINE
  8
0
 62
     0
 10
270.757
 20
80.0435
 30
0.0
 11
270.757
 21
76.9426
 31
0.0
  0
LINE
  8
0
 62
     0
 10
270.757
 20
76.9426
 30
0.0
 11
271.558
 21
76.9426
 31
0.0
  0
LINE
  8
0
 62
     0
 10
271.558
 20
76.9426
 30
0.0
 11
271.558
 21
71.144
 31
0.0
  0
LINE
  8
0
 62
     0
 10
271.558
 20
71.144
 30
0.0
 11
270.757
 21
71.144
 31
0.0
  0
LINE
  8
0
 62
     0
 10
270.757
 20
71.144
 30
0.0
 11
270.757
 21
68.0434
 31
0.0
  0
LINE
  8
0
 62
     0
 10
270.757
 20
68.0434
 30
0.0
 11
271.558
 21
68.0434
 31
0.0
  0
LINE
  8
0
 62
     0
 10
271.558
 20
68.0434
 30
0.0
 11
271.558
 21
67.0429
 31
0.0
  0
LINE
  8
0
 62
     0
 10
271.558
 20
67.0429
 30
0.0
 11
285.557
 21
67.0429
 31
0.0
  0
LINE
  8
0
 62
     0
 10
285.557
 20
67.0429
 30
0.0
 11
285.557
 21
68.0434
 31
0.0
  0
LINE
  8
0
 62
     0
 10
285.557
 20
68.0434
 30
0.0
 11
286.358
 21
68.0434
 31
0.0
  0
LINE
  8
0
 62
     0
 10
286.358
 20
68.0434
 30
0.0
 11
286.358
 21
71.144
 31
0.0
  0
LINE
  8
0
 62
     0
 10
286.358
 20
71.144
 30
0.0
 11
285.557
 21
71.144
 31
0.0
  0
LINE
  8
0
 62
     0
 10
285.557
 20
71.144
 30
0.0
 11
285.557
 21
76.9426
 31
0.0
  0
LINE
  8
0
 62
     0
 10
285.557
 20
76.9426
 30
0.0
 11
286.358
 21
76.9426
 31
0.0
  0
LINE
  8
0
 62
     0
 10
286.358
 20
76.9426
 30
0.0
 11
286.358
 21
80.0435
 31
0.0
  0
LINE
  8
0
 62
     0
 10
286.358
 20
80.0435
 30
0.0
 11
285.557
 21
80.0435
 31
0.0
  0
LINE
  8
0
 62
     0
 10
285.557
 20
80.0435
 30
0.0
 11
285.557
 21
81.0436
 31
0.0
  0
LINE
  8
0
 62
     0
 10
285.557
 20
81.0436
 30
0.0
 11
271.558
 21
81.0436
 31
0.0
  0
LINE
  8
0
 62
     0
 10
247.745
 20
81.0436
 30
0.0
 11
247.745
 21
80.0435
 31
0.0
  0
LINE
  8
0
 62
     0
 10
247.745
 20
80.0435
 30
0.0
 11
246.946
 21
80.0435
 31
0.0
  0
LINE
  8
0
 62
     0
 10
246.946
 20
80.0435
 30
0.0
 11
246.946
 21
76.9426
 31
0.0
  0
LINE
  8
0
 62
     0
 10
246.946
 20
76.9426
 30
0.0
 11
247.745
 21
76.9426
 31
0.0
  0
LINE
  8
0
 62
     0
 10
247.745
 20
76.9426
 30
0.0
 11
247.745
 21
71.144
 31
0.0
  0
LINE
  8
0
 62
     0
 10
247.745
 20
71.144
 30
0.0
 11
246.946
 21
71.144
 31
0.0
  0
LINE
  8
0
 62
     0
 10
246.946
 20
71.144
 30
0.0
 11
246.946
 21
68.0434
 31
0.0
  0
LINE
  8
0
 62
     0
 10
246.946
 20
68.0434
 30
0.0
 11
247.745
 21
68.0434
 31
0.0
  0
LINE
  8
0
 62
     0
 10
247.745
 20
68.0434
 30
0.0
 11
247.745
 21
67.0429
 31
0.0
  0
LINE
  8
0
 62
     0
 10
247.745
 20
67.0429
 30
0.0
 11
261.746
 21
67.0429
 31
0.0
  0
LINE
  8
0
 62
     0
 10
261.746
 20
67.0429
 30
0.0
 11
261.746
 21
68.0434
 31
0.0
  0
LINE
  8
0
 62
     0
 10
261.746
 20
68.0434
 30
0.0
 11
262.545
 21
68.0434
 31
0.0
  0
LINE
  8
0
 62
     0
 10
262.545
 20
68.0434
 30
0.0
 11
262.545
 21
71.144
 31
0.0
  0
LINE
  8
0
 62
     0
 10
262.545
 20
71.144
 30
0.0
 11
261.746
 21
71.144
 31
0.0
  0
LINE
  8
0
 62
     0
 10
261.746
 20
71.144
 30
0.0
 11
261.746
 21
76.9426
 31
0.0
  0
LINE
  8
0
 62
     0
 10
261.746
 20
76.9426
 30
0.0
 11
262.545
 21
76.9426
 31
0.0
  0
LINE
  8
0
 62
     0
 10
262.545
 20
76.9426
 30
0.0
 11
262.545
 21
80.0435
 31
0.0
  0
LINE
  8
0
 62
     0
 10
262.545
 20
80.0435
 30
0.0
 11
261.746
 21
80.0435
 31
0.0
  0
LINE
  8
0
 62
     0
 10
261.746
 20
80.0435
 30
0.0
 11
261.746
 21
81.0436
 31
0.0
  0
LINE
  8
0
 62
     0
 10
261.746
 20
81.0436
 30
0.0
 11
247.745
 21
81.0436
 31
0.0
  0
LINE
  8
0
 62
     0
 10
228.695
 20
81.0436
 30
0.0
 11
228.695
 21
80.0435
 31
0.0
  0
LINE
  8
0
 62
     0
 10
228.695
 20
80.0435
 30
0.0
 11
227.896
 21
80.0435
 31
0.0
  0
LINE
  8
0
 62
     0
 10
227.896
 20
80.0435
 30
0.0
 11
227.896
 21
76.9426
 31
0.0
  0
LINE
  8
0
 62
     0
 10
227.896
 20
76.9426
 30
0.0
 11
228.695
 21
76.9426
 31
0.0
  0
LINE
  8
0
 62
     0
 10
228.695
 20
76.9426
 30
0.0
 11
228.695
 21
71.144
 31
0.0
  0
LINE
  8
0
 62
     0
 10
228.695
 20
71.144
 30
0.0
 11
227.896
 21
71.144
 31
0.0
  0
LINE
  8
0
 62
     0
 10
227.896
 20
71.144
 30
0.0
 11
227.896
 21
68.0434
 31
0.0
  0
LINE
  8
0
 62
     0
 10
227.896
 20
68.0434
 30
0.0
 11
228.695
 21
68.0434
 31
0.0
  0
LINE
  8
0
 62
     0
 10
228.695
 20
68.0434
 30
0.0
 11
228.695
 21
67.0429
 31
0.0
  0
LINE
  8
0
 62
     0
 10
228.695
 20
67.0429
 30
0.0
 11
242.696
 21
67.0429
 31
0.0
  0
LINE
  8
0
 62
     0
 10
242.696
 20
67.0429
 30
0.0
 11
242.696
 21
68.0434
 31
0.0
  0
LINE
  8
0
 62
     0
 10
242.696
 20
68.0434
 30
0.0
 11
243.495
 21
68.0434
 31
0.0
  0
LINE
  8
0
 62
     0
 10
243.495
 20
68.0434
 30
0.0
 11
243.495
 21
71.144
 31
0.0
  0
LINE
  8
0
 62
     0
 10
243.495
 20
71.144
 30
0.0
 11
242.696
 21
71.144
 31
0.0
  0
LINE
  8
0
 62
     0
 10
242.696
 20
71.144
 30
0.0
 11
242.696
 21
76.9426
 31
0.0
  0
LINE
  8
0
 62
     0
 10
242.696
 20
76.9426
 30
0.0
 11
243.495
 21
76.9426
 31
0.0
  0
LINE
  8
0
 62
     0
 10
243.495
 20
76.9426
 30
0.0
 11
243.495
 21
80.0435
 31
0.0
  0
LINE
  8
0
 62
     0
 10
243.495
 20
80.0435
 30
0.0
 11
242.696
 21
80.0435
 31
0.0
  0
LINE
  8
0
 62
     0
 10
242.696
 20
80.0435
 30
0.0
 11
242.696
 21
81.0436
 31
0.0
  0
LINE
  8
0
 62
     0
 10
242.696
 20
81.0436
 30
0.0
 11
228.695
 21
81.0436
 31
0.0
  0
LINE
  8
0
 62
     0
 10
209.645
 20
81.0436
 30
0.0
 11
209.645
 21
80.0435
 31
0.0
  0
LINE
  8
0
 62
     0
 10
209.645
 20
80.0435
 30
0.0
 11
208.846
 21
80.0435
 31
0.0
  0
LINE
  8
0
 62
     0
 10
208.846
 20
80.0435
 30
0.0
 11
208.846
 21
76.9426
 31
0.0
  0
LINE
  8
0
 62
     0
 10
208.846
 20
76.9426
 30
0.0
 11
209.645
 21
76.9426
 31
0.0
  0
LINE
  8
0
 62
     0
 10
209.645
 20
76.9426
 30
0.0
 11
209.645
 21
71.144
 31
0.0
  0
LINE
  8
0
 62
     0
 10
209.645
 20
71.144
 30
0.0
 11
208.846
 21
71.144
 31
0.0
  0
LINE
  8
0
 62
     0
 10
208.846
 20
71.144
 30
0.0
 11
208.846
 21
68.0434
 31
0.0
  0
LINE
  8
0
 62
     0
 10
208.846
 20
68.0434
 30
0.0
 11
209.645
 21
68.0434
 31
0.0
  0
LINE
  8
0
 62
     0
 10
209.645
 20
68.0434
 30
0.0
 11
209.645
 21
67.0429
 31
0.0
  0
LINE
  8
0
 62
     0
 10
209.645
 20
67.0429
 30
0.0
 11
223.646
 21
67.0429
 31
0.0
  0
LINE
  8
0
 62
     0
 10
223.646
 20
67.0429
 30
0.0
 11
223.646
 21
68.0434
 31
0.0
  0
LINE
  8
0
 62
     0
 10
223.646
 20
68.0434
 30
0.0
 11
224.445
 21
68.0434
 31
0.0
  0
LINE
  8
0
 62
     0
 10
224.445
 20
68.0434
 30
0.0
 11
224.445
 21
71.144
 31
0.0
  0
LINE
  8
0
 62
     0
 10
224.445
 20
71.144
 30
0.0
 11
223.646
 21
71.144
 31
0.0
  0
LINE
  8
0
 62
     0
 10
223.646
 20
71.144
 30
0.0
 11
223.646
 21
76.9426
 31
0.0
  0
LINE
  8
0
 62
     0
 10
223.646
 20
76.9426
 30
0.0
 11
224.445
 21
76.9426
 31
0.0
  0
LINE
  8
0
 62
     0
 10
224.445
 20
76.9426
 30
0.0
 11
224.445
 21
80.0435
 31
0.0
  0
LINE
  8
0
 62
     0
 10
224.445
 20
80.0435
 30
0.0
 11
223.646
 21
80.0435
 31
0.0
  0
LINE
  8
0
 62
     0
 10
223.646
 20
80.0435
 30
0.0
 11
223.646
 21
81.0436
 31
0.0
  0
LINE
  8
0
 62
     0
 10
223.646
 20
81.0436
 30
0.0
 11
209.645
 21
81.0436
 31
0.0
  0
LINE
  8
0
 62
     0
 10
190.595
 20
81.0436
 30
0.0
 11
190.595
 21
80.0435
 31
0.0
  0
LINE
  8
0
 62
     0
 10
190.595
 20
80.0435
 30
0.0
 11
189.796
 21
80.0435
 31
0.0
  0
LINE
  8
0
 62
     0
 10
189.796
 20
80.0435
 30
0.0
 11
189.796
 21
76.9426
 31
0.0
  0
LINE
  8
0
 62
     0
 10
189.796
 20
76.9426
 30
0.0
 11
190.595
 21
76.9426
 31
0.0
  0
LINE
  8
0
 62
     0
 10
190.595
 20
76.9426
 30
0.0
 11
190.595
 21
71.144
 31
0.0
  0
LINE
  8
0
 62
     0
 10
190.595
 20
71.144
 30
0.0
 11
189.796
 21
71.144
 31
0.0
  0
LINE
  8
0
 62
     0
 10
189.796
 20
71.144
 30
0.0
 11
189.796
 21
68.0434
 31
0.0
  0
LINE
  8
0
 62
     0
 10
189.796
 20
68.0434
 30
0.0
 11
190.595
 21
68.0434
 31
0.0
  0
LINE
  8
0
 62
     0
 10
190.595
 20
68.0434
 30
0.0
 11
190.595
 21
67.0429
 31
0.0
  0
LINE
  8
0
 62
     0
 10
190.595
 20
67.0429
 30
0.0
 11
204.596
 21
67.0429
 31
0.0
  0
LINE
  8
0
 62
     0
 10
204.596
 20
67.0429
 30
0.0
 11
204.596
 21
68.0434
 31
0.0
  0
LINE
  8
0
 62
     0
 10
204.596
 20
68.0434
 30
0.0
 11
205.395
 21
68.0434
 31
0.0
  0
LINE
  8
0
 62
     0
 10
205.395
 20
68.0434
 30
0.0
 11
205.395
 21
71.144
 31
0.0
  0
LINE
  8
0
 62
     0
 10
205.395
 20
71.144
 30
0.0
 11
204.596
 21
71.144
 31
0.0
  0
LINE
  8
0
 62
     0
 10
204.596
 20
71.144
 30
0.0
 11
204.596
 21
76.9426
 31
0.0
  0
LINE
  8
0
 62
     0
 10
204.596
 20
76.9426
 30
0.0
 11
205.395
 21
76.9426
 31
0.0
  0
LINE
  8
0
 62
     0
 10
205.395
 20
76.9426
 30
0.0
 11
205.395
 21
80.0435
 31
0.0
  0
LINE
  8
0
 62
     0
 10
205.395
 20
80.0435
 30
0.0
 11
204.596
 21
80.0435
 31
0.0
  0
LINE
  8
0
 62
     0
 10
204.596
 20
80.0435
 30
0.0
 11
204.596
 21
81.0436
 31
0.0
  0
LINE
  8
0
 62
     0
 10
204.596
 20
81.0436
 30
0.0
 11
190.595
 21
81.0436
 31
0.0
  0
LINE
  8
0
 62
     0
 10
171.545
 20
81.0436
 30
0.0
 11
171.545
 21
80.0435
 31
0.0
  0
LINE
  8
0
 62
     0
 10
171.545
 20
80.0435
 30
0.0
 11
170.746
 21
80.0435
 31
0.0
  0
LINE
  8
0
 62
     0
 10
170.746
 20
80.0435
 30
0.0
 11
170.746
 21
76.9426
 31
0.0
  0
LINE
  8
0
 62
     0
 10
170.746
 20
76.9426
 30
0.0
 11
171.545
 21
76.9426
 31
0.0
  0
LINE
  8
0
 62
     0
 10
171.545
 20
76.9426
 30
0.0
 11
171.545
 21
71.144
 31
0.0
  0
LINE
  8
0
 62
     0
 10
171.545
 20
71.144
 30
0.0
 11
170.746
 21
71.144
 31
0.0
  0
LINE
  8
0
 62
     0
 10
170.746
 20
71.144
 30
0.0
 11
170.746
 21
68.0434
 31
0.0
  0
LINE
  8
0
 62
     0
 10
170.746
 20
68.0434
 30
0.0
 11
171.545
 21
68.0434
 31
0.0
  0
LINE
  8
0
 62
     0
 10
171.545
 20
68.0434
 30
0.0
 11
171.545
 21
67.0429
 31
0.0
  0
LINE
  8
0
 62
     0
 10
171.545
 20
67.0429
 30
0.0
 11
185.546
 21
67.0429
 31
0.0
  0
LINE
  8
0
 62
     0
 10
185.546
 20
67.0429
 30
0.0
 11
185.546
 21
68.0434
 31
0.0
  0
LINE
  8
0
 62
     0
 10
185.546
 20
68.0434
 30
0.0
 11
186.345
 21
68.0434
 31
0.0
  0
LINE
  8
0
 62
     0
 10
186.345
 20
68.0434
 30
0.0
 11
186.345
 21
71.144
 31
0.0
  0
LINE
  8
0
 62
     0
 10
186.345
 20
71.144
 30
0.0
 11
185.546
 21
71.144
 31
0.0
  0
LINE
  8
0
 62
     0
 10
185.546
 20
71.144
 30
0.0
 11
185.546
 21
76.9426
 31
0.0
  0
LINE
  8
0
 62
     0
 10
185.546
 20
76.9426
 30
0.0
 11
186.345
 21
76.9426
 31
0.0
  0
LINE
  8
0
 62
     0
 10
186.345
 20
76.9426
 30
0.0
 11
186.345
 21
80.0435
 31
0.0
  0
LINE
  8
0
 62
     0
 10
186.345
 20
80.0435
 30
0.0
 11
185.546
 21
80.0435
 31
0.0
  0
LINE
  8
0
 62
     0
 10
185.546
 20
80.0435
 30
0.0
 11
185.546
 21
81.0436
 31
0.0
  0
LINE
  8
0
 62
     0
 10
185.546
 20
81.0436
 30
0.0
 11
171.545
 21
81.0436
 31
0.0
  0
LINE
  8
0
 62
     0
 10
152.495
 20
81.0436
 30
0.0
 11
152.495
 21
80.0435
 31
0.0
  0
LINE
  8
0
 62
     0
 10
152.495
 20
80.0435
 30
0.0
 11
151.696
 21
80.0435
 31
0.0
  0
LINE
  8
0
 62
     0
 10
151.696
 20
80.0435
 30
0.0
 11
151.696
 21
76.9426
 31
0.0
  0
LINE
  8
0
 62
     0
 10
151.696
 20
76.9426
 30
0.0
 11
152.495
 21
76.9426
 31
0.0
  0
LINE
  8
0
 62
     0
 10
152.495
 20
76.9426
 30
0.0
 11
152.495
 21
71.144
 31
0.0
  0
LINE
  8
0
 62
     0
 10
152.495
 20
71.144
 30
0.0
 11
151.696
 21
71.144
 31
0.0
  0
LINE
  8
0
 62
     0
 10
151.696
 20
71.144
 30
0.0
 11
151.696
 21
68.0434
 31
0.0
  0
LINE
  8
0
 62
     0
 10
151.696
 20
68.0434
 30
0.0
 11
152.495
 21
68.0434
 31
0.0
  0
LINE
  8
0
 62
     0
 10
152.495
 20
68.0434
 30
0.0
 11
152.495
 21
67.0429
 31
0.0
  0
LINE
  8
0
 62
     0
 10
152.495
 20
67.0429
 30
0.0
 11
166.496
 21
67.0429
 31
0.0
  0
LINE
  8
0
 62
     0
 10
166.496
 20
67.0429
 30
0.0
 11
166.496
 21
68.0434
 31
0.0
  0
LINE
  8
0
 62
     0
 10
166.496
 20
68.0434
 30
0.0
 11
167.295
 21
68.0434
 31
0.0
  0
LINE
  8
0
 62
     0
 10
167.295
 20
68.0434
 30
0.0
 11
167.295
 21
71.144
 31
0.0
  0
LINE
  8
0
 62
     0
 10
167.295
 20
71.144
 30
0.0
 11
166.496
 21
71.144
 31
0.0
  0
LINE
  8
0
 62
     0
 10
166.496
 20
71.144
 30
0.0
 11
166.496
 21
76.9426
 31
0.0
  0
LINE
  8
0
 62
     0
 10
166.496
 20
76.9426
 30
0.0
 11
167.295
 21
76.9426
 31
0.0
  0
LINE
  8
0
 62
     0
 10
167.295
 20
76.9426
 30
0.0
 11
167.295
 21
80.0435
 31
0.0
  0
LINE
  8
0
 62
     0
 10
167.295
 20
80.0435
 30
0.0
 11
166.496
 21
80.0435
 31
0.0
  0
LINE
  8
0
 62
     0
 10
166.496
 20
80.0435
 30
0.0
 11
166.496
 21
81.0436
 31
0.0
  0
LINE
  8
0
 62
     0
 10
166.496
 20
81.0436
 30
0.0
 11
152.495
 21
81.0436
 31
0.0
  0
LINE
  8
0
 62
     0
 10
133.445
 20
81.0436
 30
0.0
 11
133.445
 21
80.0435
 31
0.0
  0
LINE
  8
0
 62
     0
 10
133.445
 20
80.0435
 30
0.0
 11
132.644
 21
80.0435
 31
0.0
  0
LINE
  8
0
 62
     0
 10
132.644
 20
80.0435
 30
0.0
 11
132.644
 21
76.9426
 31
0.0
  0
LINE
  8
0
 62
     0
 10
132.644
 20
76.9426
 30
0.0
 11
133.445
 21
76.9426
 31
0.0
  0
LINE
  8
0
 62
     0
 10
133.445
 20
76.9426
 30
0.0
 11
133.445
 21
71.144
 31
0.0
  0
LINE
  8
0
 62
     0
 10
133.445
 20
71.144
 30
0.0
 11
132.644
 21
71.144
 31
0.0
  0
LINE
  8
0
 62
     0
 10
132.644
 20
71.144
 30
0.0
 11
132.644
 21
68.0434
 31
0.0
  0
LINE
  8
0
 62
     0
 10
132.644
 20
68.0434
 30
0.0
 11
133.445
 21
68.0434
 31
0.0
  0
LINE
  8
0
 62
     0
 10
133.445
 20
68.0434
 30
0.0
 11
133.445
 21
67.0429
 31
0.0
  0
LINE
  8
0
 62
     0
 10
133.445
 20
67.0429
 30
0.0
 11
147.446
 21
67.0429
 31
0.0
  0
LINE
  8
0
 62
     0
 10
147.446
 20
67.0429
 30
0.0
 11
147.446
 21
68.0434
 31
0.0
  0
LINE
  8
0
 62
     0
 10
147.446
 20
68.0434
 30
0.0
 11
148.245
 21
68.0434
 31
0.0
  0
LINE
  8
0
 62
     0
 10
148.245
 20
68.0434
 30
0.0
 11
148.245
 21
71.144
 31
0.0
  0
LINE
  8
0
 62
     0
 10
148.245
 20
71.144
 30
0.0
 11
147.446
 21
71.144
 31
0.0
  0
LINE
  8
0
 62
     0
 10
147.446
 20
71.144
 30
0.0
 11
147.446
 21
76.9426
 31
0.0
  0
LINE
  8
0
 62
     0
 10
147.446
 20
76.9426
 30
0.0
 11
148.245
 21
76.9426
 31
0.0
  0
LINE
  8
0
 62
     0
 10
148.245
 20
76.9426
 30
0.0
 11
148.245
 21
80.0435
 31
0.0
  0
LINE
  8
0
 62
     0
 10
148.245
 20
80.0435
 30
0.0
 11
147.446
 21
80.0435
 31
0.0
  0
LINE
  8
0
 62
     0
 10
147.446
 20
80.0435
 30
0.0
 11
147.446
 21
81.0436
 31
0.0
  0
LINE
  8
0
 62
     0
 10
147.446
 20
81.0436
 30
0.0
 11
133.445
 21
81.0436
 31
0.0
  0
LINE
  8
0
 62
     0
 10
114.395
 20
81.0436
 30
0.0
 11
114.395
 21
80.0435
 31
0.0
  0
LINE
  8
0
 62
     0
 10
114.395
 20
80.0435
 30
0.0
 11
113.596
 21
80.0435
 31
0.0
  0
LINE
  8
0
 62
     0
 10
113.596
 20
80.0435
 30
0.0
 11
113.596
 21
76.9426
 31
0.0
  0
LINE
  8
0
 62
     0
 10
113.596
 20
76.9426
 30
0.0
 11
114.395
 21
76.9426
 31
0.0
  0
LINE
  8
0
 62
     0
 10
114.395
 20
76.9426
 30
0.0
 11
114.395
 21
71.144
 31
0.0
  0
LINE
  8
0
 62
     0
 10
114.395
 20
71.144
 30
0.0
 11
113.596
 21
71.144
 31
0.0
  0
LINE
  8
0
 62
     0
 10
113.596
 20
71.144
 30
0.0
 11
113.596
 21
68.0434
 31
0.0
  0
LINE
  8
0
 62
     0
 10
113.596
 20
68.0434
 30
0.0
 11
114.395
 21
68.0434
 31
0.0
  0
LINE
  8
0
 62
     0
 10
114.395
 20
68.0434
 30
0.0
 11
114.395
 21
67.0429
 31
0.0
  0
LINE
  8
0
 62
     0
 10
114.395
 20
67.0429
 30
0.0
 11
128.396
 21
67.0429
 31
0.0
  0
LINE
  8
0
 62
     0
 10
128.396
 20
67.0429
 30
0.0
 11
128.396
 21
68.0434
 31
0.0
  0
LINE
  8
0
 62
     0
 10
128.396
 20
68.0434
 30
0.0
 11
129.195
 21
68.0434
 31
0.0
  0
LINE
  8
0
 62
     0
 10
129.195
 20
68.0434
 30
0.0
 11
129.195
 21
71.144
 31
0.0
  0
LINE
  8
0
 62
     0
 10
129.195
 20
71.144
 30
0.0
 11
128.396
 21
71.144
 31
0.0
  0
LINE
  8
0
 62
     0
 10
128.396
 20
71.144
 30
0.0
 11
128.396
 21
76.9426
 31
0.0
  0
LINE
  8
0
 62
     0
 10
128.396
 20
76.9426
 30
0.0
 11
129.195
 21
76.9426
 31
0.0
  0
LINE
  8
0
 62
     0
 10
129.195
 20
76.9426
 30
0.0
 11
129.195
 21
80.0435
 31
0.0
  0
LINE
  8
0
 62
     0
 10
129.195
 20
80.0435
 30
0.0
 11
128.396
 21
80.0435
 31
0.0
  0
LINE
  8
0
 62
     0
 10
128.396
 20
80.0435
 30
0.0
 11
128.396
 21
81.0436
 31
0.0
  0
LINE
  8
0
 62
     0
 10
128.396
 20
81.0436
 30
0.0
 11
114.395
 21
81.0436
 31
0.0
  0
LINE
  8
0
 62
     0
 10
95.3452
 20
81.0436
 30
0.0
 11
95.3452
 21
80.0435
 31
0.0
  0
LINE
  8
0
 62
     0
 10
95.3452
 20
80.0435
 30
0.0
 11
94.5459
 21
80.0435
 31
0.0
  0
LINE
  8
0
 62
     0
 10
94.5459
 20
80.0435
 30
0.0
 11
94.5459
 21
76.9426
 31
0.0
  0
LINE
  8
0
 62
     0
 10
94.5459
 20
76.9426
 30
0.0
 11
95.3452
 21
76.9426
 31
0.0
  0
LINE
  8
0
 62
     0
 10
95.3452
 20
76.9426
 30
0.0
 11
95.3452
 21
71.144
 31
0.0
  0
LINE
  8
0
 62
     0
 10
95.3452
 20
71.144
 30
0.0
 11
94.5459
 21
71.144
 31
0.0
  0
LINE
  8
0
 62
     0
 10
94.5459
 20
71.144
 30
0.0
 11
94.5459
 21
68.0434
 31
0.0
  0
LINE
  8
0
 62
     0
 10
94.5459
 20
68.0434
 30
0.0
 11
95.3452
 21
68.0434
 31
0.0
  0
LINE
  8
0
 62
     0
 10
95.3452
 20
68.0434
 30
0.0
 11
95.3452
 21
67.0429
 31
0.0
  0
LINE
  8
0
 62
     0
 10
95.3452
 20
67.0429
 30
0.0
 11
109.346
 21
67.0429
 31
0.0
  0
LINE
  8
0
 62
     0
 10
109.346
 20
67.0429
 30
0.0
 11
109.346
 21
68.0434
 31
0.0
  0
LINE
  8
0
 62
     0
 10
109.346
 20
68.0434
 30
0.0
 11
110.145
 21
68.0434
 31
0.0
  0
LINE
  8
0
 62
     0
 10
110.145
 20
68.0434
 30
0.0
 11
110.145
 21
71.144
 31
0.0
  0
LINE
  8
0
 62
     0
 10
110.145
 20
71.144
 30
0.0
 11
109.346
 21
71.144
 31
0.0
  0
LINE
  8
0
 62
     0
 10
109.346
 20
71.144
 30
0.0
 11
109.346
 21
76.9426
 31
0.0
  0
LINE
  8
0
 62
     0
 10
109.346
 20
76.9426
 30
0.0
 11
110.145
 21
76.9426
 31
0.0
  0
LINE
  8
0
 62
     0
 10
110.145
 20
76.9426
 30
0.0
 11
110.145
 21
80.0435
 31
0.0
  0
LINE
  8
0
 62
     0
 10
110.145
 20
80.0435
 30
0.0
 11
109.346
 21
80.0435
 31
0.0
  0
LINE
  8
0
 62
     0
 10
109.346
 20
80.0435
 30
0.0
 11
109.346
 21
81.0436
 31
0.0
  0
LINE
  8
0
 62
     0
 10
109.346
 20
81.0436
 30
0.0
 11
95.3452
 21
81.0436
 31
0.0
  0
LINE
  8
0
 62
     0
 10
76.2953
 20
81.0436
 30
0.0
 11
76.2953
 21
80.0435
 31
0.0
  0
LINE
  8
0
 62
     0
 10
76.2953
 20
80.0435
 30
0.0
 11
75.4959
 21
80.0435
 31
0.0
  0
LINE
  8
0
 62
     0
 10
75.4959
 20
80.0435
 30
0.0
 11
75.4959
 21
76.9426
 31
0.0
  0
LINE
  8
0
 62
     0
 10
75.4959
 20
76.9426
 30
0.0
 11
76.2953
 21
76.9426
 31
0.0
  0
LINE
  8
0
 62
     0
 10
76.2953
 20
76.9426
 30
0.0
 11
76.2953
 21
71.144
 31
0.0
  0
LINE
  8
0
 62
     0
 10
76.2953
 20
71.144
 30
0.0
 11
75.4959
 21
71.144
 31
0.0
  0
LINE
  8
0
 62
     0
 10
75.4959
 20
71.144
 30
0.0
 11
75.4959
 21
68.0434
 31
0.0
  0
LINE
  8
0
 62
     0
 10
75.4959
 20
68.0434
 30
0.0
 11
76.2953
 21
68.0434
 31
0.0
  0
LINE
  8
0
 62
     0
 10
76.2953
 20
68.0434
 30
0.0
 11
76.2953
 21
67.0429
 31
0.0
  0
LINE
  8
0
 62
     0
 10
76.2953
 20
67.0429
 30
0.0
 11
90.2959
 21
67.0429
 31
0.0
  0
LINE
  8
0
 62
     0
 10
90.2959
 20
67.0429
 30
0.0
 11
90.2959
 21
68.0434
 31
0.0
  0
LINE
  8
0
 62
     0
 10
90.2959
 20
68.0434
 30
0.0
 11
91.0953
 21
68.0434
 31
0.0
  0
LINE
  8
0
 62
     0
 10
91.0953
 20
68.0434
 30
0.0
 11
91.0953
 21
71.144
 31
0.0
  0
LINE
  8
0
 62
     0
 10
91.0953
 20
71.144
 30
0.0
 11
90.2959
 21
71.144
 31
0.0
  0
LINE
  8
0
 62
     0
 10
90.2959
 20
71.144
 30
0.0
 11
90.2959
 21
76.9426
 31
0.0
  0
LINE
  8
0
 62
     0
 10
90.2959
 20
76.9426
 30
0.0
 11
91.0953
 21
76.9426
 31
0.0
  0
LINE
  8
0
 62
     0
 10
91.0953
 20
76.9426
 30
0.0
 11
91.0953
 21
80.0435
 31
0.0
  0
LINE
  8
0
 62
     0
 10
91.0953
 20
80.0435
 30
0.0
 11
90.2959
 21
80.0435
 31
0.0
  0
LINE
  8
0
 62
     0
 10
90.2959
 20
80.0435
 30
0.0
 11
90.2959
 21
81.0436
 31
0.0
  0
LINE
  8
0
 62
     0
 10
90.2959
 20
81.0436
 30
0.0
 11
76.2953
 21
81.0436
 31
0.0
  0
LINE
  8
0
 62
     0
 10
57.2453
 20
81.0436
 30
0.0
 11
57.2453
 21
80.0435
 31
0.0
  0
LINE
  8
0
 62
     0
 10
57.2453
 20
80.0435
 30
0.0
 11
56.4459
 21
80.0435
 31
0.0
  0
LINE
  8
0
 62
     0
 10
56.4459
 20
80.0435
 30
0.0
 11
56.4459
 21
76.9426
 31
0.0
  0
LINE
  8
0
 62
     0
 10
56.4459
 20
76.9426
 30
0.0
 11
57.2453
 21
76.9426
 31
0.0
  0
LINE
  8
0
 62
     0
 10
57.2453
 20
76.9426
 30
0.0
 11
57.2453
 21
71.144
 31
0.0
  0
LINE
  8
0
 62
     0
 10
57.2453
 20
71.144
 30
0.0
 11
56.4459
 21
71.144
 31
0.0
  0
LINE
  8
0
 62
     0
 10
56.4459
 20
71.144
 30
0.0
 11
56.4459
 21
68.0434
 31
0.0
  0
LINE
  8
0
 62
     0
 10
56.4459
 20
68.0434
 30
0.0
 11
57.2453
 21
68.0434
 31
0.0
  0
LINE
  8
0
 62
     0
 10
57.2453
 20
68.0434
 30
0.0
 11
57.2453
 21
67.0429
 31
0.0
  0
LINE
  8
0
 62
     0
 10
57.2453
 20
67.0429
 30
0.0
 11
71.2459
 21
67.0429
 31
0.0
  0
LINE
  8
0
 62
     0
 10
71.2459
 20
67.0429
 30
0.0
 11
71.2459
 21
68.0434
 31
0.0
  0
LINE
  8
0
 62
     0
 10
71.2459
 20
68.0434
 30
0.0
 11
72.0453
 21
68.0434
 31
0.0
  0
LINE
  8
0
 62
     0
 10
72.0453
 20
68.0434
 30
0.0
 11
72.0453
 21
71.144
 31
0.0
  0
LINE
  8
0
 62
     0
 10
72.0453
 20
71.144
 30
0.0
 11
71.2459
 21
71.144
 31
0.0
  0
LINE
  8
0
 62
     0
 10
71.2459
 20
71.144
 30
0.0
 11
71.2459
 21
76.9426
 31
0.0
  0
LINE
  8
0
 62
     0
 10
71.2459
 20
76.9426
 30
0.0
 11
72.0453
 21
76.9426
 31
0.0
  0
LINE
  8
0
 62
     0
 10
72.0453
 20
76.9426
 30
0.0
 11
72.0453
 21
80.0435
 31
0.0
  0
LINE
  8
0
 62
     0
 10
72.0453
 20
80.0435
 30
0.0
 11
71.2459
 21
80.0435
 31
0.0
  0
LINE
  8
0
 62
     0
 10
71.2459
 20
80.0435
 30
0.0
 11
71.2459
 21
81.0436
 31
0.0
  0
LINE
  8
0
 62
     0
 10
71.2459
 20
81.0436
 30
0.0
 11
57.2453
 21
81.0436
 31
0.0
  0
LINE
  8
0
 62
     0
 10
38.1952
 20
81.0436
 30
0.0
 11
38.1952
 21
80.0435
 31
0.0
  0
LINE
  8
0
 62
     0
 10
38.1952
 20
80.0435
 30
0.0
 11
37.3959
 21
80.0435
 31
0.0
  0
LINE
  8
0
 62
     0
 10
37.3959
 20
80.0435
 30
0.0
 11
37.3959
 21
76.9426
 31
0.0
  0
LINE
  8
0
 62
     0
 10
37.3959
 20
76.9426
 30
0.0
 11
38.1952
 21
76.9426
 31
0.0
  0
LINE
  8
0
 62
     0
 10
38.1952
 20
76.9426
 30
0.0
 11
38.1952
 21
71.144
 31
0.0
  0
LINE
  8
0
 62
     0
 10
38.1952
 20
71.144
 30
0.0
 11
37.3959
 21
71.144
 31
0.0
  0
LINE
  8
0
 62
     0
 10
37.3959
 20
71.144
 30
0.0
 11
37.3959
 21
68.0434
 31
0.0
  0
LINE
  8
0
 62
     0
 10
37.3959
 20
68.0434
 30
0.0
 11
38.1952
 21
68.0434
 31
0.0
  0
LINE
  8
0
 62
     0
 10
38.1952
 20
68.0434
 30
0.0
 11
38.1952
 21
67.0429
 31
0.0
  0
LINE
  8
0
 62
     0
 10
38.1952
 20
67.0429
 30
0.0
 11
52.1959
 21
67.0429
 31
0.0
  0
LINE
  8
0
 62
     0
 10
52.1959
 20
67.0429
 30
0.0
 11
52.1959
 21
68.0434
 31
0.0
  0
LINE
  8
0
 62
     0
 10
52.1959
 20
68.0434
 30
0.0
 11
52.9953
 21
68.0434
 31
0.0
  0
LINE
  8
0
 62
     0
 10
52.9953
 20
68.0434
 30
0.0
 11
52.9953
 21
71.144
 31
0.0
  0
LINE
  8
0
 62
     0
 10
52.9953
 20
71.144
 30
0.0
 11
52.1959
 21
71.144
 31
0.0
  0
LINE
  8
0
 62
     0
 10
52.1959
 20
71.144
 30
0.0
 11
52.1959
 21
76.9426
 31
0.0
  0
LINE
  8
0
 62
     0
 10
52.1959
 20
76.9426
 30
0.0
 11
52.9953
 21
76.9426
 31
0.0
  0
LINE
  8
0
 62
     0
 10
52.9953
 20
76.9426
 30
0.0
 11
52.9953
 21
80.0435
 31
0.0
  0
LINE
  8
0
 62
     0
 10
52.9953
 20
80.0435
 30
0.0
 11
52.1959
 21
80.0435
 31
0.0
  0
LINE
  8
0
 62
     0
 10
52.1959
 20
80.0435
 30
0.0
 11
52.1959
 21
81.0436
 31
0.0
  0
LINE
  8
0
 62
     0
 10
52.1959
 20
81.0436
 30
0.0
 11
38.1952
 21
81.0436
 31
0.0
  0
LINE
  8
0
 62
     0
 10
14.3826
 20
81.0436
 30
0.0
 11
14.3826
 21
80.0435
 31
0.0
  0
LINE
  8
0
 62
     0
 10
14.3826
 20
80.0435
 30
0.0
 11
13.5819
 21
80.0435
 31
0.0
  0
LINE
  8
0
 62
     0
 10
13.5819
 20
80.0435
 30
0.0
 11
13.5819
 21
76.9426
 31
0.0
  0
LINE
  8
0
 62
     0
 10
13.5819
 20
76.9426
 30
0.0
 11
14.3826
 21
76.9426
 31
0.0
  0
LINE
  8
0
 62
     0
 10
14.3826
 20
76.9426
 30
0.0
 11
14.3826
 21
71.144
 31
0.0
  0
LINE
  8
0
 62
     0
 10
14.3826
 20
71.144
 30
0.0
 11
13.5819
 21
71.144
 31
0.0
  0
LINE
  8
0
 62
     0
 10
13.5819
 20
71.144
 30
0.0
 11
13.5819
 21
68.0434
 31
0.0
  0
LINE
  8
0
 62
     0
 10
13.5819
 20
68.0434
 30
0.0
 11
14.3826
 21
68.0434
 31
0.0
  0
LINE
  8
0
 62
     0
 10
14.3826
 20
68.0434
 30
0.0
 11
14.3826
 21
67.0429
 31
0.0
  0
LINE
  8
0
 62
     0
 10
14.3826
 20
67.0429
 30
0.0
 11
28.3821
 21
67.0429
 31
0.0
  0
LINE
  8
0
 62
     0
 10
28.3821
 20
67.0429
 30
0.0
 11
28.3821
 21
68.0434
 31
0.0
  0
LINE
  8
0
 62
     0
 10
28.3821
 20
68.0434
 30
0.0
 11
29.1827
 21
68.0434
 31
0.0
  0
LINE
  8
0
 62
     0
 10
29.1827
 20
68.0434
 30
0.0
 11
29.1827
 21
71.144
 31
0.0
  0
LINE
  8
0
 62
     0
 10
29.1827
 20
71.144
 30
0.0
 11
28.3821
 21
71.144
 31
0.0
  0
LINE
  8
0
 62
     0
 10
28.3821
 20
71.144
 30
0.0
 11
28.3821
 21
76.9426
 31
0.0
  0
LINE
  8
0
 62
     0
 10
28.3821
 20
76.9426
 30
0.0
 11
29.1827
 21
76.9426
 31
0.0
  0
LINE
  8
0
 62
     0
 10
29.1827
 20
76.9426
 30
0.0
 11
29.1827
 21
80.0435
 31
0.0
  0
LINE
  8
0
 62
     0
 10
29.1827
 20
80.0435
 30
0.0
 11
28.3821
 21
80.0435
 31
0.0
  0
LINE
  8
0
 62
     0
 10
28.3821
 20
80.0435
 30
0.0
 11
28.3821
 21
81.0436
 31
0.0
  0
LINE
  8
0
 62
     0
 10
28.3821
 20
81.0436
 30
0.0
 11
14.3826
 21
81.0436
 31
0.0
  0
LINE
  8
0
 62
     0
 10
266.795
 20
100.094
 30
0.0
 11
266.795
 21
99.0946
 31
0.0
  0
LINE
  8
0
 62
     0
 10
266.795
 20
99.0946
 30
0.0
 11
265.996
 21
99.0946
 31
0.0
  0
LINE
  8
0
 62
     0
 10
265.996
 20
99.0946
 30
0.0
 11
265.996
 21
95.9926
 31
0.0
  0
LINE
  8
0
 62
     0
 10
265.996
 20
95.9926
 30
0.0
 11
266.795
 21
95.9926
 31
0.0
  0
LINE
  8
0
 62
     0
 10
266.795
 20
95.9926
 30
0.0
 11
266.795
 21
95.3946
 31
0.0
  0
LINE
  8
0
 62
     0
 10
266.795
 20
95.3946
 30
0.0
 11
265.271
 21
95.3946
 31
0.0
  0
LINE
  8
0
 62
     0
 10
265.271
 20
95.3946
 30
0.0
 11
265.271
 21
98.6247
 31
0.0
  0
LINE
  8
0
 62
     0
 10
265.271
 20
98.6247
 30
0.0
 11
263.546
 21
98.6247
 31
0.0
  0
LINE
  8
0
 62
     0
 10
263.546
 20
98.6247
 30
0.0
 11
263.546
 21
99.544
 31
0.0
  0
LINE
  8
0
 62
     0
 10
263.546
 20
99.544
 30
0.0
 11
260.245
 21
99.544
 31
0.0
  0
LINE
  8
0
 62
     0
 10
260.245
 20
99.544
 30
0.0
 11
260.245
 21
98.6247
 31
0.0
  0
LINE
  8
0
 62
     0
 10
260.245
 20
98.6247
 30
0.0
 11
258.52
 21
98.6247
 31
0.0
  0
LINE
  8
0
 62
     0
 10
258.52
 20
98.6247
 30
0.0
 11
258.52
 21
95.3946
 31
0.0
  0
LINE
  8
0
 62
     0
 10
258.52
 20
95.3946
 30
0.0
 11
257.696
 21
95.3946
 31
0.0
  0
LINE
  8
0
 62
     0
 10
257.696
 20
95.3946
 30
0.0
 11
257.696
 21
92.5932
 31
0.0
  0
LINE
  8
0
 62
     0
 10
257.696
 20
92.5932
 30
0.0
 11
258.52
 21
92.5932
 31
0.0
  0
LINE
  8
0
 62
     0
 10
258.52
 20
92.5932
 30
0.0
 11
258.52
 21
86.3244
 31
0.0
  0
LINE
  8
0
 62
     0
 10
258.52
 20
86.3244
 30
0.0
 11
260.245
 21
86.3244
 31
0.0
  0
LINE
  8
0
 62
     0
 10
260.245
 20
86.3244
 30
0.0
 11
260.245
 21
85.3433
 31
0.0
  0
LINE
  8
0
 62
     0
 10
260.245
 20
85.3433
 30
0.0
 11
263.546
 21
85.3433
 31
0.0
  0
LINE
  8
0
 62
     0
 10
263.546
 20
85.3433
 30
0.0
 11
263.546
 21
86.3244
 31
0.0
  0
LINE
  8
0
 62
     0
 10
263.546
 20
86.3244
 30
0.0
 11
265.271
 21
86.3244
 31
0.0
  0
LINE
  8
0
 62
     0
 10
265.271
 20
86.3244
 30
0.0
 11
265.271
 21
90.7934
 31
0.0
  0
LINE
  8
0
 62
     0
 10
265.271
 20
90.7934
 30
0.0
 11
266.795
 21
90.7934
 31
0.0
  0
LINE
  8
0
 62
     0
 10
266.795
 20
90.7934
 30
0.0
 11
266.795
 21
90.194
 31
0.0
  0
LINE
  8
0
 62
     0
 10
266.795
 20
90.194
 30
0.0
 11
265.996
 21
90.194
 31
0.0
  0
LINE
  8
0
 62
     0
 10
265.996
 20
90.194
 30
0.0
 11
265.996
 21
87.0934
 31
0.0
  0
LINE
  8
0
 62
     0
 10
265.996
 20
87.0934
 30
0.0
 11
266.795
 21
87.0934
 31
0.0
  0
LINE
  8
0
 62
     0
 10
266.795
 20
87.0934
 30
0.0
 11
266.795
 21
86.0929
 31
0.0
  0
LINE
  8
0
 62
     0
 10
266.795
 20
86.0929
 30
0.0
 11
280.796
 21
86.0929
 31
0.0
  0
LINE
  8
0
 62
     0
 10
280.796
 20
86.0929
 30
0.0
 11
280.796
 21
87.0934
 31
0.0
  0
LINE
  8
0
 62
     0
 10
280.796
 20
87.0934
 30
0.0
 11
281.595
 21
87.0934
 31
0.0
  0
LINE
  8
0
 62
     0
 10
281.595
 20
87.0934
 30
0.0
 11
281.595
 21
90.194
 31
0.0
  0
LINE
  8
0
 62
     0
 10
281.595
 20
90.194
 30
0.0
 11
280.796
 21
90.194
 31
0.0
  0
LINE
  8
0
 62
     0
 10
280.796
 20
90.194
 30
0.0
 11
280.796
 21
90.7934
 31
0.0
  0
LINE
  8
0
 62
     0
 10
280.796
 20
90.7934
 30
0.0
 11
282.32
 21
90.7934
 31
0.0
  0
LINE
  8
0
 62
     0
 10
282.32
 20
90.7934
 30
0.0
 11
282.32
 21
86.3244
 31
0.0
  0
LINE
  8
0
 62
     0
 10
282.32
 20
86.3244
 30
0.0
 11
284.045
 21
86.3244
 31
0.0
  0
LINE
  8
0
 62
     0
 10
284.045
 20
86.3244
 30
0.0
 11
284.045
 21
85.3433
 31
0.0
  0
LINE
  8
0
 62
     0
 10
284.045
 20
85.3433
 30
0.0
 11
287.346
 21
85.3433
 31
0.0
  0
LINE
  8
0
 62
     0
 10
287.346
 20
85.3433
 30
0.0
 11
287.346
 21
86.3244
 31
0.0
  0
LINE
  8
0
 62
     0
 10
287.346
 20
86.3244
 30
0.0
 11
289.071
 21
86.3244
 31
0.0
  0
LINE
  8
0
 62
     0
 10
289.071
 20
86.3244
 30
0.0
 11
289.071
 21
92.5932
 31
0.0
  0
LINE
  8
0
 62
     0
 10
289.071
 20
92.5932
 30
0.0
 11
289.895
 21
92.5932
 31
0.0
  0
LINE
  8
0
 62
     0
 10
289.895
 20
92.5932
 30
0.0
 11
289.895
 21
95.3946
 31
0.0
  0
LINE
  8
0
 62
     0
 10
289.895
 20
95.3946
 30
0.0
 11
289.071
 21
95.3946
 31
0.0
  0
LINE
  8
0
 62
     0
 10
289.071
 20
95.3946
 30
0.0
 11
289.071
 21
98.6247
 31
0.0
  0
LINE
  8
0
 62
     0
 10
289.071
 20
98.6247
 30
0.0
 11
287.346
 21
98.6247
 31
0.0
  0
LINE
  8
0
 62
     0
 10
287.346
 20
98.6247
 30
0.0
 11
287.346
 21
99.544
 31
0.0
  0
LINE
  8
0
 62
     0
 10
287.346
 20
99.544
 30
0.0
 11
284.045
 21
99.544
 31
0.0
  0
LINE
  8
0
 62
     0
 10
284.045
 20
99.544
 30
0.0
 11
284.045
 21
98.6247
 31
0.0
  0
LINE
  8
0
 62
     0
 10
284.045
 20
98.6247
 30
0.0
 11
282.32
 21
98.6247
 31
0.0
  0
LINE
  8
0
 62
     0
 10
282.32
 20
98.6247
 30
0.0
 11
282.32
 21
95.3946
 31
0.0
  0
LINE
  8
0
 62
     0
 10
282.32
 20
95.3946
 30
0.0
 11
280.796
 21
95.3946
 31
0.0
  0
LINE
  8
0
 62
     0
 10
280.796
 20
95.3946
 30
0.0
 11
280.796
 21
95.9926
 31
0.0
  0
LINE
  8
0
 62
     0
 10
280.796
 20
95.9926
 30
0.0
 11
281.595
 21
95.9926
 31
0.0
  0
LINE
  8
0
 62
     0
 10
281.595
 20
95.9926
 30
0.0
 11
281.595
 21
99.0946
 31
0.0
  0
LINE
  8
0
 62
     0
 10
281.595
 20
99.0946
 30
0.0
 11
280.796
 21
99.0946
 31
0.0
  0
LINE
  8
0
 62
     0
 10
280.796
 20
99.0946
 30
0.0
 11
280.796
 21
100.094
 31
0.0
  0
LINE
  8
0
 62
     0
 10
280.796
 20
100.094
 30
0.0
 11
266.795
 21
100.094
 31
0.0
  0
LINE
  8
0
 62
     0
 10
238.22
 20
100.094
 30
0.0
 11
238.22
 21
99.0946
 31
0.0
  0
LINE
  8
0
 62
     0
 10
238.22
 20
99.0946
 30
0.0
 11
237.421
 21
99.0946
 31
0.0
  0
LINE
  8
0
 62
     0
 10
237.421
 20
99.0946
 30
0.0
 11
237.421
 21
95.9926
 31
0.0
  0
LINE
  8
0
 62
     0
 10
237.421
 20
95.9926
 30
0.0
 11
238.22
 21
95.9926
 31
0.0
  0
LINE
  8
0
 62
     0
 10
238.22
 20
95.9926
 30
0.0
 11
238.22
 21
90.194
 31
0.0
  0
LINE
  8
0
 62
     0
 10
238.22
 20
90.194
 30
0.0
 11
237.421
 21
90.194
 31
0.0
  0
LINE
  8
0
 62
     0
 10
237.421
 20
90.194
 30
0.0
 11
237.421
 21
87.0934
 31
0.0
  0
LINE
  8
0
 62
     0
 10
237.421
 20
87.0934
 30
0.0
 11
238.22
 21
87.0934
 31
0.0
  0
LINE
  8
0
 62
     0
 10
238.22
 20
87.0934
 30
0.0
 11
238.22
 21
86.0929
 31
0.0
  0
LINE
  8
0
 62
     0
 10
238.22
 20
86.0929
 30
0.0
 11
252.221
 21
86.0929
 31
0.0
  0
LINE
  8
0
 62
     0
 10
252.221
 20
86.0929
 30
0.0
 11
252.221
 21
87.0934
 31
0.0
  0
LINE
  8
0
 62
     0
 10
252.221
 20
87.0934
 30
0.0
 11
253.02
 21
87.0934
 31
0.0
  0
LINE
  8
0
 62
     0
 10
253.02
 20
87.0934
 30
0.0
 11
253.02
 21
90.194
 31
0.0
  0
LINE
  8
0
 62
     0
 10
253.02
 20
90.194
 30
0.0
 11
252.221
 21
90.194
 31
0.0
  0
LINE
  8
0
 62
     0
 10
252.221
 20
90.194
 30
0.0
 11
252.221
 21
95.9926
 31
0.0
  0
LINE
  8
0
 62
     0
 10
252.221
 20
95.9926
 30
0.0
 11
253.02
 21
95.9926
 31
0.0
  0
LINE
  8
0
 62
     0
 10
253.02
 20
95.9926
 30
0.0
 11
253.02
 21
99.0946
 31
0.0
  0
LINE
  8
0
 62
     0
 10
253.02
 20
99.0946
 30
0.0
 11
252.221
 21
99.0946
 31
0.0
  0
LINE
  8
0
 62
     0
 10
252.221
 20
99.0946
 30
0.0
 11
252.221
 21
100.094
 31
0.0
  0
LINE
  8
0
 62
     0
 10
252.221
 20
100.094
 30
0.0
 11
238.22
 21
100.094
 31
0.0
  0
LINE
  8
0
 62
     0
 10
219.17
 20
100.094
 30
0.0
 11
219.17
 21
99.0946
 31
0.0
  0
LINE
  8
0
 62
     0
 10
219.17
 20
99.0946
 30
0.0
 11
218.371
 21
99.0946
 31
0.0
  0
LINE
  8
0
 62
     0
 10
218.371
 20
99.0946
 30
0.0
 11
218.371
 21
95.9926
 31
0.0
  0
LINE
  8
0
 62
     0
 10
218.371
 20
95.9926
 30
0.0
 11
219.17
 21
95.9926
 31
0.0
  0
LINE
  8
0
 62
     0
 10
219.17
 20
95.9926
 30
0.0
 11
219.17
 21
90.194
 31
0.0
  0
LINE
  8
0
 62
     0
 10
219.17
 20
90.194
 30
0.0
 11
218.371
 21
90.194
 31
0.0
  0
LINE
  8
0
 62
     0
 10
218.371
 20
90.194
 30
0.0
 11
218.371
 21
87.0934
 31
0.0
  0
LINE
  8
0
 62
     0
 10
218.371
 20
87.0934
 30
0.0
 11
219.17
 21
87.0934
 31
0.0
  0
LINE
  8
0
 62
     0
 10
219.17
 20
87.0934
 30
0.0
 11
219.17
 21
86.0929
 31
0.0
  0
LINE
  8
0
 62
     0
 10
219.17
 20
86.0929
 30
0.0
 11
233.171
 21
86.0929
 31
0.0
  0
LINE
  8
0
 62
     0
 10
233.171
 20
86.0929
 30
0.0
 11
233.171
 21
87.0934
 31
0.0
  0
LINE
  8
0
 62
     0
 10
233.171
 20
87.0934
 30
0.0
 11
233.97
 21
87.0934
 31
0.0
  0
LINE
  8
0
 62
     0
 10
233.97
 20
87.0934
 30
0.0
 11
233.97
 21
90.194
 31
0.0
  0
LINE
  8
0
 62
     0
 10
233.97
 20
90.194
 30
0.0
 11
233.171
 21
90.194
 31
0.0
  0
LINE
  8
0
 62
     0
 10
233.171
 20
90.194
 30
0.0
 11
233.171
 21
95.9926
 31
0.0
  0
LINE
  8
0
 62
     0
 10
233.171
 20
95.9926
 30
0.0
 11
233.97
 21
95.9926
 31
0.0
  0
LINE
  8
0
 62
     0
 10
233.97
 20
95.9926
 30
0.0
 11
233.97
 21
99.0946
 31
0.0
  0
LINE
  8
0
 62
     0
 10
233.97
 20
99.0946
 30
0.0
 11
233.171
 21
99.0946
 31
0.0
  0
LINE
  8
0
 62
     0
 10
233.171
 20
99.0946
 30
0.0
 11
233.171
 21
100.094
 31
0.0
  0
LINE
  8
0
 62
     0
 10
233.171
 20
100.094
 30
0.0
 11
219.17
 21
100.094
 31
0.0
  0
LINE
  8
0
 62
     0
 10
200.12
 20
100.094
 30
0.0
 11
200.12
 21
99.0946
 31
0.0
  0
LINE
  8
0
 62
     0
 10
200.12
 20
99.0946
 30
0.0
 11
199.321
 21
99.0946
 31
0.0
  0
LINE
  8
0
 62
     0
 10
199.321
 20
99.0946
 30
0.0
 11
199.321
 21
95.9926
 31
0.0
  0
LINE
  8
0
 62
     0
 10
199.321
 20
95.9926
 30
0.0
 11
200.12
 21
95.9926
 31
0.0
  0
LINE
  8
0
 62
     0
 10
200.12
 20
95.9926
 30
0.0
 11
200.12
 21
90.194
 31
0.0
  0
LINE
  8
0
 62
     0
 10
200.12
 20
90.194
 30
0.0
 11
199.321
 21
90.194
 31
0.0
  0
LINE
  8
0
 62
     0
 10
199.321
 20
90.194
 30
0.0
 11
199.321
 21
87.0934
 31
0.0
  0
LINE
  8
0
 62
     0
 10
199.321
 20
87.0934
 30
0.0
 11
200.12
 21
87.0934
 31
0.0
  0
LINE
  8
0
 62
     0
 10
200.12
 20
87.0934
 30
0.0
 11
200.12
 21
86.0929
 31
0.0
  0
LINE
  8
0
 62
     0
 10
200.12
 20
86.0929
 30
0.0
 11
214.121
 21
86.0929
 31
0.0
  0
LINE
  8
0
 62
     0
 10
214.121
 20
86.0929
 30
0.0
 11
214.121
 21
87.0934
 31
0.0
  0
LINE
  8
0
 62
     0
 10
214.121
 20
87.0934
 30
0.0
 11
214.92
 21
87.0934
 31
0.0
  0
LINE
  8
0
 62
     0
 10
214.92
 20
87.0934
 30
0.0
 11
214.92
 21
90.194
 31
0.0
  0
LINE
  8
0
 62
     0
 10
214.92
 20
90.194
 30
0.0
 11
214.121
 21
90.194
 31
0.0
  0
LINE
  8
0
 62
     0
 10
214.121
 20
90.194
 30
0.0
 11
214.121
 21
95.9926
 31
0.0
  0
LINE
  8
0
 62
     0
 10
214.121
 20
95.9926
 30
0.0
 11
214.92
 21
95.9926
 31
0.0
  0
LINE
  8
0
 62
     0
 10
214.92
 20
95.9926
 30
0.0
 11
214.92
 21
99.0946
 31
0.0
  0
LINE
  8
0
 62
     0
 10
214.92
 20
99.0946
 30
0.0
 11
214.121
 21
99.0946
 31
0.0
  0
LINE
  8
0
 62
     0
 10
214.121
 20
99.0946
 30
0.0
 11
214.121
 21
100.094
 31
0.0
  0
LINE
  8
0
 62
     0
 10
214.121
 20
100.094
 30
0.0
 11
200.12
 21
100.094
 31
0.0
  0
LINE
  8
0
 62
     0
 10
181.07
 20
100.094
 30
0.0
 11
181.07
 21
99.0946
 31
0.0
  0
LINE
  8
0
 62
     0
 10
181.07
 20
99.0946
 30
0.0
 11
180.271
 21
99.0946
 31
0.0
  0
LINE
  8
0
 62
     0
 10
180.271
 20
99.0946
 30
0.0
 11
180.271
 21
95.9926
 31
0.0
  0
LINE
  8
0
 62
     0
 10
180.271
 20
95.9926
 30
0.0
 11
181.07
 21
95.9926
 31
0.0
  0
LINE
  8
0
 62
     0
 10
181.07
 20
95.9926
 30
0.0
 11
181.07
 21
90.194
 31
0.0
  0
LINE
  8
0
 62
     0
 10
181.07
 20
90.194
 30
0.0
 11
180.271
 21
90.194
 31
0.0
  0
LINE
  8
0
 62
     0
 10
180.271
 20
90.194
 30
0.0
 11
180.271
 21
87.0934
 31
0.0
  0
LINE
  8
0
 62
     0
 10
180.271
 20
87.0934
 30
0.0
 11
181.07
 21
87.0934
 31
0.0
  0
LINE
  8
0
 62
     0
 10
181.07
 20
87.0934
 30
0.0
 11
181.07
 21
86.0929
 31
0.0
  0
LINE
  8
0
 62
     0
 10
181.07
 20
86.0929
 30
0.0
 11
195.071
 21
86.0929
 31
0.0
  0
LINE
  8
0
 62
     0
 10
195.071
 20
86.0929
 30
0.0
 11
195.071
 21
87.0934
 31
0.0
  0
LINE
  8
0
 62
     0
 10
195.071
 20
87.0934
 30
0.0
 11
195.87
 21
87.0934
 31
0.0
  0
LINE
  8
0
 62
     0
 10
195.87
 20
87.0934
 30
0.0
 11
195.87
 21
90.194
 31
0.0
  0
LINE
  8
0
 62
     0
 10
195.87
 20
90.194
 30
0.0
 11
195.071
 21
90.194
 31
0.0
  0
LINE
  8
0
 62
     0
 10
195.071
 20
90.194
 30
0.0
 11
195.071
 21
95.9926
 31
0.0
  0
LINE
  8
0
 62
     0
 10
195.071
 20
95.9926
 30
0.0
 11
195.87
 21
95.9926
 31
0.0
  0
LINE
  8
0
 62
     0
 10
195.87
 20
95.9926
 30
0.0
 11
195.87
 21
99.0946
 31
0.0
  0
LINE
  8
0
 62
     0
 10
195.87
 20
99.0946
 30
0.0
 11
195.071
 21
99.0946
 31
0.0
  0
LINE
  8
0
 62
     0
 10
195.071
 20
99.0946
 30
0.0
 11
195.071
 21
100.094
 31
0.0
  0
LINE
  8
0
 62
     0
 10
195.071
 20
100.094
 30
0.0
 11
181.07
 21
100.094
 31
0.0
  0
LINE
  8
0
 62
     0
 10
162.02
 20
100.094
 30
0.0
 11
162.02
 21
99.0946
 31
0.0
  0
LINE
  8
0
 62
     0
 10
162.02
 20
99.0946
 30
0.0
 11
161.221
 21
99.0946
 31
0.0
  0
LINE
  8
0
 62
     0
 10
161.221
 20
99.0946
 30
0.0
 11
161.221
 21
95.9926
 31
0.0
  0
LINE
  8
0
 62
     0
 10
161.221
 20
95.9926
 30
0.0
 11
162.02
 21
95.9926
 31
0.0
  0
LINE
  8
0
 62
     0
 10
162.02
 20
95.9926
 30
0.0
 11
162.02
 21
90.194
 31
0.0
  0
LINE
  8
0
 62
     0
 10
162.02
 20
90.194
 30
0.0
 11
161.221
 21
90.194
 31
0.0
  0
LINE
  8
0
 62
     0
 10
161.221
 20
90.194
 30
0.0
 11
161.221
 21
87.0934
 31
0.0
  0
LINE
  8
0
 62
     0
 10
161.221
 20
87.0934
 30
0.0
 11
162.02
 21
87.0934
 31
0.0
  0
LINE
  8
0
 62
     0
 10
162.02
 20
87.0934
 30
0.0
 11
162.02
 21
86.0929
 31
0.0
  0
LINE
  8
0
 62
     0
 10
162.02
 20
86.0929
 30
0.0
 11
176.021
 21
86.0929
 31
0.0
  0
LINE
  8
0
 62
     0
 10
176.021
 20
86.0929
 30
0.0
 11
176.021
 21
87.0934
 31
0.0
  0
LINE
  8
0
 62
     0
 10
176.021
 20
87.0934
 30
0.0
 11
176.82
 21
87.0934
 31
0.0
  0
LINE
  8
0
 62
     0
 10
176.82
 20
87.0934
 30
0.0
 11
176.82
 21
90.194
 31
0.0
  0
LINE
  8
0
 62
     0
 10
176.82
 20
90.194
 30
0.0
 11
176.021
 21
90.194
 31
0.0
  0
LINE
  8
0
 62
     0
 10
176.021
 20
90.194
 30
0.0
 11
176.021
 21
95.9926
 31
0.0
  0
LINE
  8
0
 62
     0
 10
176.021
 20
95.9926
 30
0.0
 11
176.82
 21
95.9926
 31
0.0
  0
LINE
  8
0
 62
     0
 10
176.82
 20
95.9926
 30
0.0
 11
176.82
 21
99.0946
 31
0.0
  0
LINE
  8
0
 62
     0
 10
176.82
 20
99.0946
 30
0.0
 11
176.021
 21
99.0946
 31
0.0
  0
LINE
  8
0
 62
     0
 10
176.021
 20
99.0946
 30
0.0
 11
176.021
 21
100.094
 31
0.0
  0
LINE
  8
0
 62
     0
 10
176.021
 20
100.094
 30
0.0
 11
162.02
 21
100.094
 31
0.0
  0
LINE
  8
0
 62
     0
 10
142.97
 20
100.094
 30
0.0
 11
142.97
 21
99.0946
 31
0.0
  0
LINE
  8
0
 62
     0
 10
142.97
 20
99.0946
 30
0.0
 11
142.171
 21
99.0946
 31
0.0
  0
LINE
  8
0
 62
     0
 10
142.171
 20
99.0946
 30
0.0
 11
142.171
 21
95.9926
 31
0.0
  0
LINE
  8
0
 62
     0
 10
142.171
 20
95.9926
 30
0.0
 11
142.97
 21
95.9926
 31
0.0
  0
LINE
  8
0
 62
     0
 10
142.97
 20
95.9926
 30
0.0
 11
142.97
 21
90.194
 31
0.0
  0
LINE
  8
0
 62
     0
 10
142.97
 20
90.194
 30
0.0
 11
142.171
 21
90.194
 31
0.0
  0
LINE
  8
0
 62
     0
 10
142.171
 20
90.194
 30
0.0
 11
142.171
 21
87.0934
 31
0.0
  0
LINE
  8
0
 62
     0
 10
142.171
 20
87.0934
 30
0.0
 11
142.97
 21
87.0934
 31
0.0
  0
LINE
  8
0
 62
     0
 10
142.97
 20
87.0934
 30
0.0
 11
142.97
 21
86.0929
 31
0.0
  0
LINE
  8
0
 62
     0
 10
142.97
 20
86.0929
 30
0.0
 11
156.971
 21
86.0929
 31
0.0
  0
LINE
  8
0
 62
     0
 10
156.971
 20
86.0929
 30
0.0
 11
156.971
 21
87.0934
 31
0.0
  0
LINE
  8
0
 62
     0
 10
156.971
 20
87.0934
 30
0.0
 11
157.77
 21
87.0934
 31
0.0
  0
LINE
  8
0
 62
     0
 10
157.77
 20
87.0934
 30
0.0
 11
157.77
 21
90.194
 31
0.0
  0
LINE
  8
0
 62
     0
 10
157.77
 20
90.194
 30
0.0
 11
156.971
 21
90.194
 31
0.0
  0
LINE
  8
0
 62
     0
 10
156.971
 20
90.194
 30
0.0
 11
156.971
 21
95.9926
 31
0.0
  0
LINE
  8
0
 62
     0
 10
156.971
 20
95.9926
 30
0.0
 11
157.77
 21
95.9926
 31
0.0
  0
LINE
  8
0
 62
     0
 10
157.77
 20
95.9926
 30
0.0
 11
157.77
 21
99.0946
 31
0.0
  0
LINE
  8
0
 62
     0
 10
157.77
 20
99.0946
 30
0.0
 11
156.971
 21
99.0946
 31
0.0
  0
LINE
  8
0
 62
     0
 10
156.971
 20
99.0946
 30
0.0
 11
156.971
 21
100.094
 31
0.0
  0
LINE
  8
0
 62
     0
 10
156.971
 20
100.094
 30
0.0
 11
142.97
 21
100.094
 31
0.0
  0
LINE
  8
0
 62
     0
 10
123.92
 20
100.094
 30
0.0
 11
123.92
 21
99.0946
 31
0.0
  0
LINE
  8
0
 62
     0
 10
123.92
 20
99.0946
 30
0.0
 11
123.119
 21
99.0946
 31
0.0
  0
LINE
  8
0
 62
     0
 10
123.119
 20
99.0946
 30
0.0
 11
123.119
 21
95.9926
 31
0.0
  0
LINE
  8
0
 62
     0
 10
123.119
 20
95.9926
 30
0.0
 11
123.92
 21
95.9926
 31
0.0
  0
LINE
  8
0
 62
     0
 10
123.92
 20
95.9926
 30
0.0
 11
123.92
 21
90.194
 31
0.0
  0
LINE
  8
0
 62
     0
 10
123.92
 20
90.194
 30
0.0
 11
123.119
 21
90.194
 31
0.0
  0
LINE
  8
0
 62
     0
 10
123.119
 20
90.194
 30
0.0
 11
123.119
 21
87.0934
 31
0.0
  0
LINE
  8
0
 62
     0
 10
123.119
 20
87.0934
 30
0.0
 11
123.92
 21
87.0934
 31
0.0
  0
LINE
  8
0
 62
     0
 10
123.92
 20
87.0934
 30
0.0
 11
123.92
 21
86.0929
 31
0.0
  0
LINE
  8
0
 62
     0
 10
123.92
 20
86.0929
 30
0.0
 11
137.921
 21
86.0929
 31
0.0
  0
LINE
  8
0
 62
     0
 10
137.921
 20
86.0929
 30
0.0
 11
137.921
 21
87.0934
 31
0.0
  0
LINE
  8
0
 62
     0
 10
137.921
 20
87.0934
 30
0.0
 11
138.72
 21
87.0934
 31
0.0
  0
LINE
  8
0
 62
     0
 10
138.72
 20
87.0934
 30
0.0
 11
138.72
 21
90.194
 31
0.0
  0
LINE
  8
0
 62
     0
 10
138.72
 20
90.194
 30
0.0
 11
137.921
 21
90.194
 31
0.0
  0
LINE
  8
0
 62
     0
 10
137.921
 20
90.194
 30
0.0
 11
137.921
 21
95.9926
 31
0.0
  0
LINE
  8
0
 62
     0
 10
137.921
 20
95.9926
 30
0.0
 11
138.72
 21
95.9926
 31
0.0
  0
LINE
  8
0
 62
     0
 10
138.72
 20
95.9926
 30
0.0
 11
138.72
 21
99.0946
 31
0.0
  0
LINE
  8
0
 62
     0
 10
138.72
 20
99.0946
 30
0.0
 11
137.921
 21
99.0946
 31
0.0
  0
LINE
  8
0
 62
     0
 10
137.921
 20
99.0946
 30
0.0
 11
137.921
 21
100.094
 31
0.0
  0
LINE
  8
0
 62
     0
 10
137.921
 20
100.094
 30
0.0
 11
123.92
 21
100.094
 31
0.0
  0
LINE
  8
0
 62
     0
 10
104.87
 20
100.094
 30
0.0
 11
104.87
 21
99.0946
 31
0.0
  0
LINE
  8
0
 62
     0
 10
104.87
 20
99.0946
 30
0.0
 11
104.071
 21
99.0946
 31
0.0
  0
LINE
  8
0
 62
     0
 10
104.071
 20
99.0946
 30
0.0
 11
104.071
 21
95.9926
 31
0.0
  0
LINE
  8
0
 62
     0
 10
104.071
 20
95.9926
 30
0.0
 11
104.87
 21
95.9926
 31
0.0
  0
LINE
  8
0
 62
     0
 10
104.87
 20
95.9926
 30
0.0
 11
104.87
 21
90.194
 31
0.0
  0
LINE
  8
0
 62
     0
 10
104.87
 20
90.194
 30
0.0
 11
104.071
 21
90.194
 31
0.0
  0
LINE
  8
0
 62
     0
 10
104.071
 20
90.194
 30
0.0
 11
104.071
 21
87.0934
 31
0.0
  0
LINE
  8
0
 62
     0
 10
104.071
 20
87.0934
 30
0.0
 11
104.87
 21
87.0934
 31
0.0
  0
LINE
  8
0
 62
     0
 10
104.87
 20
87.0934
 30
0.0
 11
104.87
 21
86.0929
 31
0.0
  0
LINE
  8
0
 62
     0
 10
104.87
 20
86.0929
 30
0.0
 11
118.87
 21
86.0929
 31
0.0
  0
LINE
  8
0
 62
     0
 10
118.87
 20
86.0929
 30
0.0
 11
118.87
 21
87.0934
 31
0.0
  0
LINE
  8
0
 62
     0
 10
118.87
 20
87.0934
 30
0.0
 11
119.669
 21
87.0934
 31
0.0
  0
LINE
  8
0
 62
     0
 10
119.669
 20
87.0934
 30
0.0
 11
119.669
 21
90.194
 31
0.0
  0
LINE
  8
0
 62
     0
 10
119.669
 20
90.194
 30
0.0
 11
118.87
 21
90.194
 31
0.0
  0
LINE
  8
0
 62
     0
 10
118.87
 20
90.194
 30
0.0
 11
118.87
 21
95.9926
 31
0.0
  0
LINE
  8
0
 62
     0
 10
118.87
 20
95.9926
 30
0.0
 11
119.669
 21
95.9926
 31
0.0
  0
LINE
  8
0
 62
     0
 10
119.669
 20
95.9926
 30
0.0
 11
119.669
 21
99.0946
 31
0.0
  0
LINE
  8
0
 62
     0
 10
119.669
 20
99.0946
 30
0.0
 11
118.87
 21
99.0946
 31
0.0
  0
LINE
  8
0
 62
     0
 10
118.87
 20
99.0946
 30
0.0
 11
118.87
 21
100.094
 31
0.0
  0
LINE
  8
0
 62
     0
 10
118.87
 20
100.094
 30
0.0
 11
104.87
 21
100.094
 31
0.0
  0
LINE
  8
0
 62
     0
 10
85.8203
 20
100.094
 30
0.0
 11
85.8203
 21
99.0946
 31
0.0
  0
LINE
  8
0
 62
     0
 10
85.8203
 20
99.0946
 30
0.0
 11
85.0209
 21
99.0946
 31
0.0
  0
LINE
  8
0
 62
     0
 10
85.0209
 20
99.0946
 30
0.0
 11
85.0209
 21
95.9926
 31
0.0
  0
LINE
  8
0
 62
     0
 10
85.0209
 20
95.9926
 30
0.0
 11
85.8203
 21
95.9926
 31
0.0
  0
LINE
  8
0
 62
     0
 10
85.8203
 20
95.9926
 30
0.0
 11
85.8203
 21
90.194
 31
0.0
  0
LINE
  8
0
 62
     0
 10
85.8203
 20
90.194
 30
0.0
 11
85.0209
 21
90.194
 31
0.0
  0
LINE
  8
0
 62
     0
 10
85.0209
 20
90.194
 30
0.0
 11
85.0209
 21
87.0934
 31
0.0
  0
LINE
  8
0
 62
     0
 10
85.0209
 20
87.0934
 30
0.0
 11
85.8203
 21
87.0934
 31
0.0
  0
LINE
  8
0
 62
     0
 10
85.8203
 20
87.0934
 30
0.0
 11
85.8203
 21
86.0929
 31
0.0
  0
LINE
  8
0
 62
     0
 10
85.8203
 20
86.0929
 30
0.0
 11
99.8209
 21
86.0929
 31
0.0
  0
LINE
  8
0
 62
     0
 10
99.8209
 20
86.0929
 30
0.0
 11
99.8209
 21
87.0934
 31
0.0
  0
LINE
  8
0
 62
     0
 10
99.8209
 20
87.0934
 30
0.0
 11
100.619
 21
87.0934
 31
0.0
  0
LINE
  8
0
 62
     0
 10
100.619
 20
87.0934
 30
0.0
 11
100.619
 21
90.194
 31
0.0
  0
LINE
  8
0
 62
     0
 10
100.619
 20
90.194
 30
0.0
 11
99.8209
 21
90.194
 31
0.0
  0
LINE
  8
0
 62
     0
 10
99.8209
 20
90.194
 30
0.0
 11
99.8209
 21
95.9926
 31
0.0
  0
LINE
  8
0
 62
     0
 10
99.8209
 20
95.9926
 30
0.0
 11
100.619
 21
95.9926
 31
0.0
  0
LINE
  8
0
 62
     0
 10
100.619
 20
95.9926
 30
0.0
 11
100.619
 21
99.0946
 31
0.0
  0
LINE
  8
0
 62
     0
 10
100.619
 20
99.0946
 30
0.0
 11
99.8209
 21
99.0946
 31
0.0
  0
LINE
  8
0
 62
     0
 10
99.8209
 20
99.0946
 30
0.0
 11
99.8209
 21
100.094
 31
0.0
  0
LINE
  8
0
 62
     0
 10
99.8209
 20
100.094
 30
0.0
 11
85.8203
 21
100.094
 31
0.0
  0
LINE
  8
0
 62
     0
 10
66.7703
 20
100.094
 30
0.0
 11
66.7703
 21
99.0946
 31
0.0
  0
LINE
  8
0
 62
     0
 10
66.7703
 20
99.0946
 30
0.0
 11
65.9709
 21
99.0946
 31
0.0
  0
LINE
  8
0
 62
     0
 10
65.9709
 20
99.0946
 30
0.0
 11
65.9709
 21
95.9926
 31
0.0
  0
LINE
  8
0
 62
     0
 10
65.9709
 20
95.9926
 30
0.0
 11
66.7703
 21
95.9926
 31
0.0
  0
LINE
  8
0
 62
     0
 10
66.7703
 20
95.9926
 30
0.0
 11
66.7703
 21
90.194
 31
0.0
  0
LINE
  8
0
 62
     0
 10
66.7703
 20
90.194
 30
0.0
 11
65.9709
 21
90.194
 31
0.0
  0
LINE
  8
0
 62
     0
 10
65.9709
 20
90.194
 30
0.0
 11
65.9709
 21
87.0934
 31
0.0
  0
LINE
  8
0
 62
     0
 10
65.9709
 20
87.0934
 30
0.0
 11
66.7703
 21
87.0934
 31
0.0
  0
LINE
  8
0
 62
     0
 10
66.7703
 20
87.0934
 30
0.0
 11
66.7703
 21
86.0929
 31
0.0
  0
LINE
  8
0
 62
     0
 10
66.7703
 20
86.0929
 30
0.0
 11
80.7709
 21
86.0929
 31
0.0
  0
LINE
  8
0
 62
     0
 10
80.7709
 20
86.0929
 30
0.0
 11
80.7709
 21
87.0934
 31
0.0
  0
LINE
  8
0
 62
     0
 10
80.7709
 20
87.0934
 30
0.0
 11
81.5703
 21
87.0934
 31
0.0
  0
LINE
  8
0
 62
     0
 10
81.5703
 20
87.0934
 30
0.0
 11
81.5703
 21
90.194
 31
0.0
  0
LINE
  8
0
 62
     0
 10
81.5703
 20
90.194
 30
0.0
 11
80.7709
 21
90.194
 31
0.0
  0
LINE
  8
0
 62
     0
 10
80.7709
 20
90.194
 30
0.0
 11
80.7709
 21
95.9926
 31
0.0
  0
LINE
  8
0
 62
     0
 10
80.7709
 20
95.9926
 30
0.0
 11
81.5703
 21
95.9926
 31
0.0
  0
LINE
  8
0
 62
     0
 10
81.5703
 20
95.9926
 30
0.0
 11
81.5703
 21
99.0946
 31
0.0
  0
LINE
  8
0
 62
     0
 10
81.5703
 20
99.0946
 30
0.0
 11
80.7709
 21
99.0946
 31
0.0
  0
LINE
  8
0
 62
     0
 10
80.7709
 20
99.0946
 30
0.0
 11
80.7709
 21
100.094
 31
0.0
  0
LINE
  8
0
 62
     0
 10
80.7709
 20
100.094
 30
0.0
 11
66.7703
 21
100.094
 31
0.0
  0
LINE
  8
0
 62
     0
 10
47.7203
 20
100.094
 30
0.0
 11
47.7203
 21
99.0946
 31
0.0
  0
LINE
  8
0
 62
     0
 10
47.7203
 20
99.0946
 30
0.0
 11
46.9209
 21
99.0946
 31
0.0
  0
LINE
  8
0
 62
     0
 10
46.9209
 20
99.0946
 30
0.0
 11
46.9209
 21
95.9926
 31
0.0
  0
LINE
  8
0
 62
     0
 10
46.9209
 20
95.9926
 30
0.0
 11
47.7203
 21
95.9926
 31
0.0
  0
LINE
  8
0
 62
     0
 10
47.7203
 20
95.9926
 30
0.0
 11
47.7203
 21
90.194
 31
0.0
  0
LINE
  8
0
 62
     0
 10
47.7203
 20
90.194
 30
0.0
 11
46.9209
 21
90.194
 31
0.0
  0
LINE
  8
0
 62
     0
 10
46.9209
 20
90.194
 30
0.0
 11
46.9209
 21
87.0934
 31
0.0
  0
LINE
  8
0
 62
     0
 10
46.9209
 20
87.0934
 30
0.0
 11
47.7203
 21
87.0934
 31
0.0
  0
LINE
  8
0
 62
     0
 10
47.7203
 20
87.0934
 30
0.0
 11
47.7203
 21
86.0929
 31
0.0
  0
LINE
  8
0
 62
     0
 10
47.7203
 20
86.0929
 30
0.0
 11
61.7209
 21
86.0929
 31
0.0
  0
LINE
  8
0
 62
     0
 10
61.7209
 20
86.0929
 30
0.0
 11
61.7209
 21
87.0934
 31
0.0
  0
LINE
  8
0
 62
     0
 10
61.7209
 20
87.0934
 30
0.0
 11
62.5203
 21
87.0934
 31
0.0
  0
LINE
  8
0
 62
     0
 10
62.5203
 20
87.0934
 30
0.0
 11
62.5203
 21
90.194
 31
0.0
  0
LINE
  8
0
 62
     0
 10
62.5203
 20
90.194
 30
0.0
 11
61.7209
 21
90.194
 31
0.0
  0
LINE
  8
0
 62
     0
 10
61.7209
 20
90.194
 30
0.0
 11
61.7209
 21
95.9926
 31
0.0
  0
LINE
  8
0
 62
     0
 10
61.7209
 20
95.9926
 30
0.0
 11
62.5203
 21
95.9926
 31
0.0
  0
LINE
  8
0
 62
     0
 10
62.5203
 20
95.9926
 30
0.0
 11
62.5203
 21
99.0946
 31
0.0
  0
LINE
  8
0
 62
     0
 10
62.5203
 20
99.0946
 30
0.0
 11
61.7209
 21
99.0946
 31
0.0
  0
LINE
  8
0
 62
     0
 10
61.7209
 20
99.0946
 30
0.0
 11
61.7209
 21
100.094
 31
0.0
  0
LINE
  8
0
 62
     0
 10
61.7209
 20
100.094
 30
0.0
 11
47.7203
 21
100.094
 31
0.0
  0
LINE
  8
0
 62
     0
 10
28.6701
 20
100.094
 30
0.0
 11
28.6701
 21
99.0946
 31
0.0
  0
LINE
  8
0
 62
     0
 10
28.6701
 20
99.0946
 30
0.0
 11
27.8708
 21
99.0946
 31
0.0
  0
LINE
  8
0
 62
     0
 10
27.8708
 20
99.0946
 30
0.0
 11
27.8708
 21
95.9926
 31
0.0
  0
LINE
  8
0
 62
     0
 10
27.8708
 20
95.9926
 30
0.0
 11
28.6701
 21
95.9926
 31
0.0
  0
LINE
  8
0
 62
     0
 10
28.6701
 20
95.9926
 30
0.0
 11
28.6701
 21
90.194
 31
0.0
  0
LINE
  8
0
 62
     0
 10
28.6701
 20
90.194
 30
0.0
 11
27.8708
 21
90.194
 31
0.0
  0
LINE
  8
0
 62
     0
 10
27.8708
 20
90.194
 30
0.0
 11
27.8708
 21
87.0934
 31
0.0
  0
LINE
  8
0
 62
     0
 10
27.8708
 20
87.0934
 30
0.0
 11
28.6701
 21
87.0934
 31
0.0
  0
LINE
  8
0
 62
     0
 10
28.6701
 20
87.0934
 30
0.0
 11
28.6701
 21
86.0929
 31
0.0
  0
LINE
  8
0
 62
     0
 10
28.6701
 20
86.0929
 30
0.0
 11
42.6709
 21
86.0929
 31
0.0
  0
LINE
  8
0
 62
     0
 10
42.6709
 20
86.0929
 30
0.0
 11
42.6709
 21
87.0934
 31
0.0
  0
LINE
  8
0
 62
     0
 10
42.6709
 20
87.0934
 30
0.0
 11
43.4703
 21
87.0934
 31
0.0
  0
LINE
  8
0
 62
     0
 10
43.4703
 20
87.0934
 30
0.0
 11
43.4703
 21
90.194
 31
0.0
  0
LINE
  8
0
 62
     0
 10
43.4703
 20
90.194
 30
0.0
 11
42.6709
 21
90.194
 31
0.0
  0
LINE
  8
0
 62
     0
 10
42.6709
 20
90.194
 30
0.0
 11
42.6709
 21
95.9926
 31
0.0
  0
LINE
  8
0
 62
     0
 10
42.6709
 20
95.9926
 30
0.0
 11
43.4703
 21
95.9926
 31
0.0
  0
LINE
  8
0
 62
     0
 10
43.4703
 20
95.9926
 30
0.0
 11
43.4703
 21
99.0946
 31
0.0
  0
LINE
  8
0
 62
     0
 10
43.4703
 20
99.0946
 30
0.0
 11
42.6709
 21
99.0946
 31
0.0
  0
LINE
  8
0
 62
     0
 10
42.6709
 20
99.0946
 30
0.0
 11
42.6709
 21
100.094
 31
0.0
  0
LINE
  8
0
 62
     0
 10
42.6709
 20
100.094
 30
0.0
 11
28.6701
 21
100.094
 31
0.0
  0
LINE
  8
0
 62
     0
 10
9.62007
 20
100.094
 30
0.0
 11
9.62007
 21
99.0946
 31
0.0
  0
LINE
  8
0
 62
     0
 10
9.62007
 20
99.0946
 30
0.0
 11
8.81944
 21
99.0946
 31
0.0
  0
LINE
  8
0
 62
     0
 10
8.81944
 20
99.0946
 30
0.0
 11
8.81944
 21
95.9926
 31
0.0
  0
LINE
  8
0
 62
     0
 10
8.81944
 20
95.9926
 30
0.0
 11
9.62007
 21
95.9926
 31
0.0
  0
LINE
  8
0
 62
     0
 10
9.62007
 20
95.9926
 30
0.0
 11
9.62007
 21
90.194
 31
0.0
  0
LINE
  8
0
 62
     0
 10
9.62007
 20
90.194
 30
0.0
 11
8.81944
 21
90.194
 31
0.0
  0
LINE
  8
0
 62
     0
 10
8.81944
 20
90.194
 30
0.0
 11
8.81944
 21
87.0934
 31
0.0
  0
LINE
  8
0
 62
     0
 10
8.81944
 20
87.0934
 30
0.0
 11
9.62007
 21
87.0934
 31
0.0
  0
LINE
  8
0
 62
     0
 10
9.62007
 20
87.0934
 30
0.0
 11
9.62007
 21
86.0929
 31
0.0
  0
LINE
  8
0
 62
     0
 10
9.62007
 20
86.0929
 30
0.0
 11
23.6209
 21
86.0929
 31
0.0
  0
LINE
  8
0
 62
     0
 10
23.6209
 20
86.0929
 30
0.0
 11
23.6209
 21
87.0934
 31
0.0
  0
LINE
  8
0
 62
     0
 10
23.6209
 20
87.0934
 30
0.0
 11
24.4202
 21
87.0934
 31
0.0
  0
LINE
  8
0
 62
     0
 10
24.4202
 20
87.0934
 30
0.0
 11
24.4202
 21
90.194
 31
0.0
  0
LINE
  8
0
 62
     0
 10
24.4202
 20
90.194
 30
0.0
 11
23.6209
 21
90.194
 31
0.0
  0
LINE
  8
0
 62
     0
 10
23.6209
 20
90.194
 30
0.0
 11
23.6209
 21
95.9926
 31
0.0
  0
LINE
  8
0
 62
     0
 10
23.6209
 20
95.9926
 30
0.0
 11
24.4202
 21
95.9926
 31
0.0
  0
LINE
  8
0
 62
     0
 10
24.4202
 20
95.9926
 30
0.0
 11
24.4202
 21
99.0946
 31
0.0
  0
LINE
  8
0
 62
     0
 10
24.4202
 20
99.0946
 30
0.0
 11
23.6209
 21
99.0946
 31
0.0
  0
LINE
  8
0
 62
     0
 10
23.6209
 20
99.0946
 30
0.0
 11
23.6209
 21
100.094
 31
0.0
  0
LINE
  8
0
 62
     0
 10
23.6209
 20
100.094
 30
0.0
 11
9.62007
 21
100.094
 31
0.0
  0
LINE
  8
0
 62
     0
 10
3.11712
 20
107.593
 30
0.0
 11
2.68304
 21
107.373
 31
0.0
  0
LINE
  8
0
 62
     0
 10
2.68304
 20
107.373
 30
0.0
 11
2.34129
 21
107.031
 31
0.0
  0
LINE
  8
0
 62
     0
 10
2.34129
 20
107.031
 30
0.0
 11
2.1208
 21
106.597
 31
0.0
  0
LINE
  8
0
 62
     0
 10
2.1208
 20
106.597
 30
0.0
 11
2.04501
 21
106.119
 31
0.0
  0
LINE
  8
0
 62
     0
 10
2.04501
 20
106.119
 30
0.0
 11
2.1208
 21
105.64
 31
0.0
  0
LINE
  8
0
 62
     0
 10
2.1208
 20
105.64
 30
0.0
 11
2.34129
 21
105.208
 31
0.0
  0
LINE
  8
0
 62
     0
 10
2.34129
 20
105.208
 30
0.0
 11
2.68304
 21
104.866
 31
0.0
  0
LINE
  8
0
 62
     0
 10
2.68304
 20
104.866
 30
0.0
 11
3.11712
 21
104.644
 31
0.0
  0
LINE
  8
0
 62
     0
 10
3.11712
 20
104.644
 30
0.0
 11
3.59392
 21
104.568
 31
0.0
  0
LINE
  8
0
 62
     0
 10
3.59392
 20
104.568
 30
0.0
 11
4.07349
 21
104.644
 31
0.0
  0
LINE
  8
0
 62
     0
 10
4.07349
 20
104.644
 30
0.0
 11
4.50617
 21
104.866
 31
0.0
  0
LINE
  8
0
 62
     0
 10
4.50617
 20
104.866
 30
0.0
 11
4.84794
 21
105.208
 31
0.0
  0
LINE
  8
0
 62
     0
 10
4.84794
 20
105.208
 30
0.0
 11
5.0698
 21
105.64
 31
0.0
  0
LINE
  8
0
 62
     0
 10
5.0698
 20
105.64
 30
0.0
 11
5.14421
 21
106.119
 31
0.0
  0
LINE
  8
0
 62
     0
 10
5.14421
 20
106.119
 30
0.0
 11
5.0698
 21
106.597
 31
0.0
  0
LINE
  8
0
 62
     0
 10
5.0698
 20
106.597
 30
0.0
 11
4.84794
 21
107.031
 31
0.0
  0
LINE
  8
0
 62
     0
 10
4.84794
 20
107.031
 30
0.0
 11
4.50617
 21
107.373
 31
0.0
  0
LINE
  8
0
 62
     0
 10
4.50617
 20
107.373
 30
0.0
 11
4.07349
 21
107.593
 31
0.0
  0
LINE
  8
0
 62
     0
 10
4.07349
 20
107.593
 30
0.0
 11
3.59392
 21
107.669
 31
0.0
  0
LINE
  8
0
 62
     0
 10
3.59392
 20
107.669
 30
0.0
 11
3.11712
 21
107.593
 31
0.0
  0
LINE
  8
0
 62
     0
 10
333.867
 20
107.593
 30
0.0
 11
333.434
 21
107.373
 31
0.0
  0
LINE
  8
0
 62
     0
 10
333.434
 20
107.373
 30
0.0
 11
333.092
 21
107.031
 31
0.0
  0
LINE
  8
0
 62
     0
 10
333.092
 20
107.031
 30
0.0
 11
332.872
 21
106.597
 31
0.0
  0
LINE
  8
0
 62
     0
 10
332.872
 20
106.597
 30
0.0
 11
332.796
 21
106.119
 31
0.0
  0
LINE
  8
0
 62
     0
 10
332.796
 20
106.119
 30
0.0
 11
332.872
 21
105.64
 31
0.0
  0
LINE
  8
0
 62
     0
 10
332.872
 20
105.64
 30
0.0
 11
333.092
 21
105.208
 31
0.0
  0
LINE
  8
0
 62
     0
 10
333.092
 20
105.208
 30
0.0
 11
333.434
 21
104.866
 31
0.0
  0
LINE
  8
0
 62
     0
 10
333.434
 20
104.866
 30
0.0
 11
333.867
 21
104.644
 31
0.0
  0
LINE
  8
0
 62
     0
 10
333.867
 20
104.644
 30
0.0
 11
334.347
 21
104.568
 31
0.0
  0
LINE
  8
0
 62
     0
 10
334.347
 20
104.568
 30
0.0
 11
334.825
 21
104.644
 31
0.0
  0
LINE
  8
0
 62
     0
 10
334.825
 20
104.644
 30
0.0
 11
335.257
 21
104.866
 31
0.0
  0
LINE
  8
0
 62
     0
 10
335.257
 20
104.866
 30
0.0
 11
335.599
 21
105.208
 31
0.0
  0
LINE
  8
0
 62
     0
 10
335.599
 20
105.208
 30
0.0
 11
335.821
 21
105.64
 31
0.0
  0
LINE
  8
0
 62
     0
 10
335.821
 20
105.64
 30
0.0
 11
335.897
 21
106.119
 31
0.0
  0
LINE
  8
0
 62
     0
 10
335.897
 20
106.119
 30
0.0
 11
335.821
 21
106.597
 31
0.0
  0
LINE
  8
0
 62
     0
 10
335.821
 20
106.597
 30
0.0
 11
335.599
 21
107.031
 31
0.0
  0
LINE
  8
0
 62
     0
 10
335.599
 20
107.031
 30
0.0
 11
335.257
 21
107.373
 31
0.0
  0
LINE
  8
0
 62
     0
 10
335.257
 20
107.373
 30
0.0
 11
334.825
 21
107.593
 31
0.0
  0
LINE
  8
0
 62
     0
 10
334.825
 20
107.593
 30
0.0
 11
334.347
 21
107.669
 31
0.0
  0
LINE
  8
0
 62
     0
 10
334.347
 20
107.669
 30
0.0
 11
333.867
 21
107.593
 31
0.0
  0
LINE
  8
0
 62
     0
 10
251.179
 20
107.593
 30
0.0
 11
250.748
 21
107.373
 31
0.0
  0
LINE
  8
0
 62
     0
 10
250.748
 20
107.373
 30
0.0
 11
250.405
 21
107.031
 31
0.0
  0
LINE
  8
0
 62
     0
 10
250.405
 20
107.031
 30
0.0
 11
250.184
 21
106.597
 31
0.0
  0
LINE
  8
0
 62
     0
 10
250.184
 20
106.597
 30
0.0
 11
250.109
 21
106.119
 31
0.0
  0
LINE
  8
0
 62
     0
 10
250.109
 20
106.119
 30
0.0
 11
250.184
 21
105.64
 31
0.0
  0
LINE
  8
0
 62
     0
 10
250.184
 20
105.64
 30
0.0
 11
250.405
 21
105.208
 31
0.0
  0
LINE
  8
0
 62
     0
 10
250.405
 20
105.208
 30
0.0
 11
250.748
 21
104.866
 31
0.0
  0
LINE
  8
0
 62
     0
 10
250.748
 20
104.866
 30
0.0
 11
251.179
 21
104.644
 31
0.0
  0
LINE
  8
0
 62
     0
 10
251.179
 20
104.644
 30
0.0
 11
251.659
 21
104.568
 31
0.0
  0
LINE
  8
0
 62
     0
 10
251.659
 20
104.568
 30
0.0
 11
252.137
 21
104.644
 31
0.0
  0
LINE
  8
0
 62
     0
 10
252.137
 20
104.644
 30
0.0
 11
252.569
 21
104.866
 31
0.0
  0
LINE
  8
0
 62
     0
 10
252.569
 20
104.866
 30
0.0
 11
252.913
 21
105.208
 31
0.0
  0
LINE
  8
0
 62
     0
 10
252.913
 20
105.208
 30
0.0
 11
253.132
 21
105.64
 31
0.0
  0
LINE
  8
0
 62
     0
 10
253.132
 20
105.64
 30
0.0
 11
253.209
 21
106.119
 31
0.0
  0
LINE
  8
0
 62
     0
 10
253.209
 20
106.119
 30
0.0
 11
253.132
 21
106.597
 31
0.0
  0
LINE
  8
0
 62
     0
 10
253.132
 20
106.597
 30
0.0
 11
252.913
 21
107.031
 31
0.0
  0
LINE
  8
0
 62
     0
 10
252.913
 20
107.031
 30
0.0
 11
252.569
 21
107.373
 31
0.0
  0
LINE
  8
0
 62
     0
 10
252.569
 20
107.373
 30
0.0
 11
252.137
 21
107.593
 31
0.0
  0
LINE
  8
0
 62
     0
 10
252.137
 20
107.593
 30
0.0
 11
251.659
 21
107.669
 31
0.0
  0
LINE
  8
0
 62
     0
 10
251.659
 20
107.669
 30
0.0
 11
251.179
 21
107.593
 31
0.0
  0
LINE
  8
0
 62
     0
 10
168.491
 20
107.593
 30
0.0
 11
168.06
 21
107.373
 31
0.0
  0
LINE
  8
0
 62
     0
 10
168.06
 20
107.373
 30
0.0
 11
167.717
 21
107.031
 31
0.0
  0
LINE
  8
0
 62
     0
 10
167.717
 20
107.031
 30
0.0
 11
167.496
 21
106.597
 31
0.0
  0
LINE
  8
0
 62
     0
 10
167.496
 20
106.597
 30
0.0
 11
167.421
 21
106.119
 31
0.0
  0
LINE
  8
0
 62
     0
 10
167.421
 20
106.119
 30
0.0
 11
167.496
 21
105.64
 31
0.0
  0
LINE
  8
0
 62
     0
 10
167.496
 20
105.64
 30
0.0
 11
167.717
 21
105.208
 31
0.0
  0
LINE
  8
0
 62
     0
 10
167.717
 20
105.208
 30
0.0
 11
168.06
 21
104.866
 31
0.0
  0
LINE
  8
0
 62
     0
 10
168.06
 20
104.866
 30
0.0
 11
168.491
 21
104.644
 31
0.0
  0
LINE
  8
0
 62
     0
 10
168.491
 20
104.644
 30
0.0
 11
168.971
 21
104.568
 31
0.0
  0
LINE
  8
0
 62
     0
 10
168.971
 20
104.568
 30
0.0
 11
169.449
 21
104.644
 31
0.0
  0
LINE
  8
0
 62
     0
 10
169.449
 20
104.644
 30
0.0
 11
169.882
 21
104.866
 31
0.0
  0
LINE
  8
0
 62
     0
 10
169.882
 20
104.866
 30
0.0
 11
170.225
 21
105.208
 31
0.0
  0
LINE
  8
0
 62
     0
 10
170.225
 20
105.208
 30
0.0
 11
170.444
 21
105.64
 31
0.0
  0
LINE
  8
0
 62
     0
 10
170.444
 20
105.64
 30
0.0
 11
170.52
 21
106.119
 31
0.0
  0
LINE
  8
0
 62
     0
 10
170.52
 20
106.119
 30
0.0
 11
170.444
 21
106.597
 31
0.0
  0
LINE
  8
0
 62
     0
 10
170.444
 20
106.597
 30
0.0
 11
170.225
 21
107.031
 31
0.0
  0
LINE
  8
0
 62
     0
 10
170.225
 20
107.031
 30
0.0
 11
169.882
 21
107.373
 31
0.0
  0
LINE
  8
0
 62
     0
 10
169.882
 20
107.373
 30
0.0
 11
169.449
 21
107.593
 31
0.0
  0
LINE
  8
0
 62
     0
 10
169.449
 20
107.593
 30
0.0
 11
168.971
 21
107.669
 31
0.0
  0
LINE
  8
0
 62
     0
 10
168.971
 20
107.669
 30
0.0
 11
168.491
 21
107.593
 31
0.0
  0
LINE
  8
0
 62
     0
 10
85.8037
 20
107.593
 30
0.0
 11
85.3708
 21
107.373
 31
0.0
  0
LINE
  8
0
 62
     0
 10
85.3708
 20
107.373
 30
0.0
 11
85.029
 21
107.031
 31
0.0
  0
LINE
  8
0
 62
     0
 10
85.029
 20
107.031
 30
0.0
 11
84.8085
 21
106.597
 31
0.0
  0
LINE
  8
0
 62
     0
 10
84.8085
 20
106.597
 30
0.0
 11
84.733
 21
106.119
 31
0.0
  0
LINE
  8
0
 62
     0
 10
84.733
 20
106.119
 30
0.0
 11
84.8085
 21
105.64
 31
0.0
  0
LINE
  8
0
 62
     0
 10
84.8085
 20
105.64
 30
0.0
 11
85.029
 21
105.208
 31
0.0
  0
LINE
  8
0
 62
     0
 10
85.029
 20
105.208
 30
0.0
 11
85.3708
 21
104.866
 31
0.0
  0
LINE
  8
0
 62
     0
 10
85.3708
 20
104.866
 30
0.0
 11
85.8037
 21
104.644
 31
0.0
  0
LINE
  8
0
 62
     0
 10
85.8037
 20
104.644
 30
0.0
 11
86.2831
 21
104.568
 31
0.0
  0
LINE
  8
0
 62
     0
 10
86.2831
 20
104.568
 30
0.0
 11
86.7615
 21
104.644
 31
0.0
  0
LINE
  8
0
 62
     0
 10
86.7615
 20
104.644
 30
0.0
 11
87.194
 21
104.866
 31
0.0
  0
LINE
  8
0
 62
     0
 10
87.194
 20
104.866
 30
0.0
 11
87.5372
 21
105.208
 31
0.0
  0
LINE
  8
0
 62
     0
 10
87.5372
 20
105.208
 30
0.0
 11
87.7563
 21
105.64
 31
0.0
  0
LINE
  8
0
 62
     0
 10
87.7563
 20
105.64
 30
0.0
 11
87.8321
 21
106.119
 31
0.0
  0
LINE
  8
0
 62
     0
 10
87.8321
 20
106.119
 30
0.0
 11
87.7563
 21
106.597
 31
0.0
  0
LINE
  8
0
 62
     0
 10
87.7563
 20
106.597
 30
0.0
 11
87.5372
 21
107.031
 31
0.0
  0
LINE
  8
0
 62
     0
 10
87.5372
 20
107.031
 30
0.0
 11
87.194
 21
107.373
 31
0.0
  0
LINE
  8
0
 62
     0
 10
87.194
 20
107.373
 30
0.0
 11
86.7615
 21
107.593
 31
0.0
  0
LINE
  8
0
 62
     0
 10
86.7615
 20
107.593
 30
0.0
 11
86.2831
 21
107.669
 31
0.0
  0
LINE
  8
0
 62
     0
 10
86.2831
 20
107.669
 30
0.0
 11
85.8037
 21
107.593
 31
0.0
  0
ENDSEC
  0
EOF
